<?xml version="1.0" encoding="UTF-8"?>
<svg id="Ebene_1" data-name="Ebene 1" xmlns="http://www.w3.org/2000/svg" xmlns:xlink="http://www.w3.org/1999/xlink" viewBox="0 0 321.19 102">
  <defs>
    <style>
      .cls-1 {
        fill: none;
      }

      .cls-2 {
        fill: #37ff05;
      }

      .cls-3 {
        fill: #1f0;
      }

      .cls-4 {
        clip-path: url(#clippath);
      }
    </style>
    <clipPath id="clippath">
      <rect class="cls-1" x="3.02" y="3" width="128" height="96"/>
    </clipPath>
  </defs>
  <g class="cls-4">
    <g>
      <path class="cls-3" d="M73.4,74.66c-.24-.7-.86-1.05-1.85-1.05-2.15,0-4.19,1.26-6.11,3.78h7.42c.6-1.12.78-2.03.54-2.73Z"/>
      <path class="cls-3" d="M21.84,24.42c2.04-1.61,3.82-3.7,5.34-6.26,1.52-2.56,2.22-4.66,2.09-6.28-.12-1.62-1.21-2.44-3.28-2.44s-4.13.81-6.21,2.44c-2.08,1.62-3.88,3.72-5.4,6.28-1.51,2.54-2.18,4.62-2.02,6.25.16,1.62,1.26,2.44,3.32,2.44s4.11-.81,6.15-2.42Z"/>
      <path class="cls-3" d="M29.3,69.6c-.12-1.62-1.22-2.44-3.28-2.44s-4.13.81-6.21,2.44c-2.08,1.62-3.88,3.72-5.4,6.28-1.51,2.54-2.18,4.62-2.02,6.25.15,1.62,1.26,2.44,3.32,2.44s4.11-.81,6.15-2.42c2.04-1.61,3.82-3.7,5.34-6.26,1.52-2.56,2.22-4.66,2.09-6.28h0Z"/>
      <path class="cls-3" d="M53.19,73.79c-1.19,0-2.4.5-3.63,1.51-1.23,1.01-2.33,2.35-3.32,4.01-1.02,1.72-1.49,3.04-1.43,3.98.06.94.66,1.41,1.79,1.41,1.3,0,2.57-.47,3.81-1.41,1.24-.94,2.35-2.23,3.32-3.88,2.22-3.75,2.04-5.63-.54-5.63Z"/>
      <path class="cls-3" d="M52.91,24.32c.19.84.86,1.25,2.01,1.25,1.32,0,2.58-.45,3.75-1.34,1.18-.89,2.18-2.04,3.01-3.43.81-1.37,1.15-2.51,1-3.41-.15-.9-.86-1.36-2.14-1.36-1.13,0-2.29.43-3.49,1.3-1.2.87-2.23,2.04-3.1,3.5-.88,1.49-1.23,2.65-1.04,3.48h0Z"/>
      <path class="cls-3" d="M50.76,53.02l1.57-2.64c-.65.3-1.89.64-3.7,1.03-1.44.3-2.52.63-3.27,1.01-.74.38-1.35.96-1.81,1.73-.88,1.49-.45,2.23,1.28,2.23,1.22,0,2.37-.33,3.47-1,1.1-.66,1.92-1.45,2.46-2.37h0Z"/>
      <path class="cls-3" d="M130.26,6.76c-1.06-2.02-3.08-3.27-5.27-3.27h-4.43c-2.09,0-4,1.12-5.11,2.99l-2.72,4.59c-1.55-.72-3.42-1.09-5.61-1.09-3.21,0-6.19.77-8.88,2.28-1.61-1.49-3.83-2.31-6.43-2.31-.69,0-1.38.06-2.07.17.04-1.15-.2-2.31-.75-3.34-1.06-2.02-3.08-3.27-5.27-3.27h-4.42c-2.09,0-4,1.12-5.11,2.99l-2.34,3.95h-3.49c-.29,0-.58.02-.87.07-.82-.28-1.71-.45-2.66-.52.02-1.1-.23-2.21-.75-3.21-1.06-2.02-3.08-3.27-5.27-3.27h-4.42c-2.09,0-4,1.12-5.11,2.99l-2.23,3.76c-.75.05-1.5.16-2.23.36-.46-.12-.93-.18-1.41-.18h-1.4c-.96-2.77-3.73-7.42-11.56-7.42-4.56,0-9.14,1.56-13.59,4.64-4.19,2.9-7.67,6.65-10.33,11.14-3.18,5.36-4.18,10.03-3.06,14.26.56,2.1,2.42,6.56,8.3,7.86-1.94,2.01-3.66,4.27-5.15,6.77-3.15,5.32-4.16,9.95-3.09,14.15v.05c.57,2.08,2.4,6.5,8.22,7.83-1.97,2.02-3.7,4.29-5.19,6.79-3.18,5.36-4.18,10.03-3.06,14.26.66,2.47,3.12,8.23,11.83,8.23,3.14,0,6.27-.74,9.37-2.19,1.09,1.04,2.52,1.64,4.04,1.64h4.42c1.92,0,3.68-.94,4.81-2.54,1.56,1.78,3.95,3.05,7.34,3.05,1.4,0,2.8-.22,4.17-.64.39.08.79.12,1.18.12h4.26c1.29,0,2.52-.43,3.53-1.2,1.56,1,3.68,1.71,6.58,1.71,2.32,0,4.61-.47,6.82-1.39.91.56,1.96.88,3.05.88h4.42c.78,0,1.54-.16,2.24-.45.7.29,1.45.45,2.22.45h4.75c2.09,0,4-1.12,5.11-2.99l2.95-4.98c1.16-1.96,1.22-4.43.16-6.45-.12-.23-.26-.46-.41-.67.47-.42.88-.92,1.22-1.49l2.42-4.08c.91-1.54,1.16-3.42.67-5.17-.41-1.46-1.3-2.71-2.5-3.53.41-.18.79-.41,1.15-.67,1.53.99,3.61,1.69,6.42,1.69,3.22,0,6.39-.92,9.4-2.75,2.85-1.73,5.22-3.97,7.02-6.66.71-1.05,1.09-2.28,1.11-3.56,1.1-.66,1.96-1.65,2.5-2.86,2.14-4.9,1.24-8.42.11-10.52-1.22-2.26-3.84-4.95-9.34-4.95-.05,0-.1,0-.14,0,0-.67-.08-1.34-.27-1.99l13.99-23.6c1.16-1.96,1.22-4.43.16-6.45h0ZM104.81,16.21c-.25-.38-.84-.57-1.75-.57-2.02,0-3.58.82-4.69,2.47h-3.94c1.06-1.67,2.51-3.05,4.38-4.15,1.86-1.1,3.95-1.65,6.25-1.65,4.69,0,5.75,2.16,3.19,6.49l-5.31,8.96c-.79,1.33-1.07,2.14-.86,2.44l-.1.17h-4.26c-.04-.3.17-.95.64-1.96h-.07c-.92.76-1.88,1.34-2.86,1.75-.98.41-2.14.62-3.46.62-1.76,0-2.89-.47-3.4-1.41-.51-.94-.25-2.27.77-3.98,1.06-1.78,2.42-3.09,4.09-3.93,1.67-.84,3.66-1.41,5.97-1.73,1.7-.23,2.9-.46,3.61-.7.71-.24,1.24-.67,1.61-1.29.38-.64.44-1.15.19-1.53h0ZM103.88,34.69h4.43l-2.48,4.19h-4.42l2.48-4.19ZM89.6,46.09c-.16-.59-.69-.89-1.6-.89-.98,0-2.01.38-3.1,1.13-1.09.76-1.98,1.73-2.69,2.92l-5.92,9.99h-4.42l14.54-24.54h4.42l-5.47,9.23h.1c1.2-.96,2.3-1.66,3.32-2.11,1.01-.45,2.07-.67,3.18-.67,1.71,0,2.74.61,3.08,1.84.34,1.22-.07,2.81-1.22,4.75l-6.81,11.5h-4.43l6.41-10.81c.57-.96.78-1.74.62-2.33h0ZM48.13,57.28c-.92.76-1.88,1.34-2.86,1.75-.98.41-2.14.62-3.46.62-1.76,0-2.89-.47-3.4-1.41-.51-.94-.25-2.27.77-3.98,1.06-1.78,2.42-3.09,4.09-3.93s3.66-1.41,5.97-1.73c1.7-.23,2.9-.46,3.61-.7.71-.24,1.24-.67,1.61-1.29.38-.64.44-1.15.19-1.53-.25-.38-.84-.57-1.75-.57-2.02,0-3.58.82-4.69,2.47h-3.94c1.06-1.67,2.51-3.05,4.38-4.15,1.86-1.1,3.95-1.65,6.25-1.65,4.69,0,5.75,2.16,3.19,6.49l-5.31,8.96c-.79,1.33-1.07,2.14-.86,2.44l-.1.17h-4.26c-.04-.3.17-.95.64-1.96h-.07ZM39.62,44.44c1.13-1.03,2.16-1.79,3.08-2.28.92-.49,1.86-.74,2.81-.74.46,0,.78.05.96.14l-2.42,4.08h-.1c-1.4-.16-2.81.18-4.22,1.03-1.41.85-2.65,2.17-3.73,3.98l-5.08,8.58h-4.42l10.43-17.6h4.26l-1.67,2.82h.1,0ZM64.11,41.63h4.26l-1.3,2.2h.1c2.29-1.78,4.46-2.68,6.5-2.68,2.19,0,3.44.86,3.75,2.57.31,1.72-.36,3.96-2,6.73-1.68,2.84-3.68,5.1-6,6.78-2.32,1.68-4.57,2.52-6.74,2.52s-3.28-.84-3.33-2.5h-.07l-4.6,7.76h-4.43l13.85-23.37ZM84.43,12.76l-1.42,2.4h.1c2.29-1.92,4.51-2.88,6.66-2.88,1.71,0,2.74.61,3.08,1.84.34,1.22-.07,2.81-1.22,4.75l-6.81,11.5h-4.43l6.41-10.81c.57-.96.78-1.74.62-2.33-.16-.59-.69-.89-1.6-.89-.98,0-2.01.38-3.1,1.13-1.09.76-1.98,1.73-2.69,2.92l-5.92,9.99h-4.42l10.43-17.6h4.33ZM77.25,5.83h4.43l-2.48,4.19h-4.43l2.48-4.19ZM73.14,12.76h4.42l-10.43,17.6h-4.42l10.43-17.6ZM61.9,12.29c2.02,0,3.1.78,3.24,2.33h.07l1.1-1.85h4.26l-9.64,16.27c-1.36,2.29-3.08,4.07-5.16,5.35-2.13,1.33-4.53,1.99-7.2,1.99-2.26,0-3.78-.48-4.56-1.44-.79-.96-.78-2.31,0-4.05h4.39c-.34,1.3.39,1.96,2.19,1.96,2.47,0,4.44-1.22,5.89-3.67l1.14-1.92h-.1c-1.96,1.37-3.82,2.06-5.58,2.06-1.97,0-3.24-.77-3.8-2.3-.56-1.53-.08-3.57,1.42-6.11,1.55-2.61,3.45-4.69,5.73-6.26,2.27-1.57,4.47-2.35,6.6-2.35ZM52.32,5.83h4.42l-2.48,4.19h-4.42l2.48-4.19ZM48.21,12.76h4.42l-10.43,17.6h-4.42l10.43-17.6ZM41.34,12.76l-1.67,2.82h.1c1.13-1.03,2.16-1.79,3.08-2.28.92-.49,1.86-.74,2.81-.74.46,0,.78.05.96.14l-2.42,4.08h-.1c-1.4-.16-2.81.18-4.22,1.03-1.41.85-2.66,2.17-3.73,3.98l-5.08,8.58h-4.42l10.43-17.6h4.26,0ZM7.21,27.33c-.63-2.39.16-5.45,2.36-9.18,2.21-3.73,5.05-6.79,8.53-9.2,3.47-2.4,6.9-3.6,10.29-3.6s5.39,1.2,6,3.6c.62,2.4-.18,5.47-2.39,9.2-2.21,3.73-5.04,6.79-8.5,9.18s-6.88,3.59-10.26,3.59-5.39-1.19-6.03-3.59h0ZM7.28,56.18c-.61-2.38.19-5.42,2.38-9.13,2.5-4.21,5.74-7.55,9.75-10.02,3.06-1.88,6.12-2.81,9.15-2.81,2.84,0,4.67.74,5.5,2.23.82,1.49.69,3.48-.4,5.97h-4.62c.45-1.23.45-2.23,0-2.97-.45-.74-1.39-1.11-2.82-1.11-2.1,0-4.21.81-6.31,2.44-2.1,1.62-3.91,3.72-5.43,6.28-1.51,2.54-2.15,4.62-1.93,6.25.22,1.62,1.32,2.44,3.29,2.44,1.74,0,3.5-.57,5.3-1.7,1.8-1.13,3.13-2.42,3.98-3.86l.08-.14h-5.6l2.28-3.84h9.8l-7.73,13.04h-3.55l1.79-3.29h-.07c-2.94,2.54-5.87,3.81-8.8,3.81-3.41,0-5.43-1.19-6.05-3.57h0ZM23.53,85.06c-3.46,2.39-6.88,3.59-10.26,3.59s-5.39-1.19-6.03-3.59c-.63-2.39.16-5.45,2.36-9.18,2.21-3.73,5.05-6.79,8.53-9.2s6.9-3.6,10.29-3.6,5.39,1.2,6,3.6c.62,2.4-.18,5.47-2.39,9.2-2.21,3.73-5.04,6.79-8.5,9.18h0ZM36.22,79.52l-5.09,8.58h-4.43l10.43-17.6h4.26l-1.67,2.82h.1c1.13-1.03,2.16-1.79,3.08-2.28.92-.49,1.86-.74,2.81-.74.46,0,.78.05.96.14l-2.42,4.08h-.1c-1.4-.16-2.81.18-4.22,1.03-1.41.85-2.66,2.17-3.73,3.98h0ZM52.91,88.09h-4.26l1.36-2.3h-.07c-2.2,1.88-4.41,2.82-6.65,2.82-2.1,0-3.31-.84-3.62-2.52-.3-1.68.38-3.94,2.06-6.78,1.63-2.74,3.62-4.98,5.98-6.71,2.36-1.73,4.58-2.59,6.66-2.59s3.14.87,3.17,2.61h.1l5.37-9.06h4.43l-14.54,24.54h0ZM69.07,86.96c-1.97,1.1-3.99,1.65-6.05,1.65-2.69,0-4.29-.88-4.79-2.62-.5-1.75.05-3.99,1.66-6.71,1.56-2.63,3.63-4.83,6.22-6.61,2.59-1.77,5.09-2.66,7.5-2.66,2.63,0,4.08.96,4.38,2.88.29,1.92-.52,4.5-2.43,7.72h-12.11c-.65,1.4-.85,2.48-.59,3.24.26.77,1.01,1.15,2.25,1.15,1.63,0,3.13-.72,4.5-2.16h4.36c-1.3,1.65-2.94,3.02-4.91,4.12h0ZM86.53,88.09h-4.75l2.95-4.98h4.75l-2.95,4.98ZM90.45,74.5h-.1c-1.4-.16-2.81.18-4.22,1.03-1.41.85-2.65,2.17-3.72,3.98l-5.08,8.58h-4.43l10.43-17.6h4.26l-1.67,2.82h.1c1.13-1.03,2.16-1.79,3.08-2.28.92-.49,1.86-.74,2.81-.74.46,0,.78.05.96.14l-2.42,4.08h0ZM93.77,59.23h-4.42l10.43-17.6h4.42l-10.43,17.6ZM118.58,42.9c.63,1.17.52,2.73-.35,4.7h-4.33c.32-.8.36-1.45.12-1.96-.24-.5-.77-.76-1.57-.76-1.3,0-2.59.49-3.87,1.48-1.28.98-2.43,2.35-3.46,4.08-1.02,1.72-1.48,3.07-1.4,4.07.08,1,.78,1.49,2.08,1.49,1.93,0,3.64-1,5.12-2.99h4.26c-1.31,1.94-3.01,3.55-5.1,4.82-2.1,1.27-4.23,1.9-6.4,1.9-2.58,0-4.13-.88-4.65-2.64-.52-1.76.02-3.98,1.6-6.66,1.59-2.68,3.67-4.89,6.24-6.66,2.57-1.76,5.11-2.64,7.6-2.64,2.1,0,3.47.58,4.1,1.75h0ZM108.4,30.37h-4.43l14.54-24.54h4.43l-14.54,24.54Z"/>
      <path class="cls-3" d="M95.51,23.57c-.74.38-1.35.96-1.81,1.73-.88,1.49-.45,2.23,1.28,2.23,1.21,0,2.37-.33,3.47-1,1.1-.66,1.92-1.45,2.46-2.37l1.57-2.64c-.65.3-1.89.64-3.7,1.03-1.44.3-2.52.63-3.27,1.01h0Z"/>
      <path class="cls-3" d="M64.04,55.87c1.13,0,2.3-.47,3.52-1.41,1.22-.94,2.31-2.23,3.29-3.88,1.04-1.76,1.55-3.15,1.52-4.15-.03-1.01-.7-1.51-2-1.51s-2.61.52-3.86,1.56c-1.25,1.04-2.37,2.41-3.37,4.1-.96,1.62-1.38,2.91-1.25,3.86.13.95.85,1.42,2.15,1.42Z"/>
    </g>
  </g>
  <path class="cls-2" d="M193.66,28.84s.02,0,.02,0c.06,0,.12,0,.17-.01.33-.04.68-.01,1.03.06.68.11,1.36.37,2.04.53.31.07.62.11.91.12.01,0,.02,0,.03,0,.1,0,.2,0,.29-.02,0,0,.02,0,.02,0,.05,0,.1-.02.15-.03,0,0,.01,0,.02,0,.09-.02.19-.05.28-.08.02,0,.04-.01.05-.02.03-.01.07-.03.1-.04.05-.02.1-.05.15-.07.02,0,.03-.02.05-.03.06-.04.12-.08.18-.12.02-.01.04-.03.06-.05.05-.04.09-.07.13-.12.01-.01.02-.02.04-.03.06-.06.11-.11.16-.18,0,0,0,0,0,0,.05-.06.09-.12.12-.18.01-.02.03-.04.04-.07.03-.05.05-.1.07-.15,0-.02.02-.04.03-.06.03-.07.05-.14.07-.22,0-.02.01-.04.02-.07.01-.04.02-.08.03-.13,0-.05.02-.1.02-.15,0,0,0-.02,0-.02,0-.53-.14-1-.41-1.41-.31-.46-.76-.84-1.23-1.11-.37-.22-.76-.41-1.15-.56-.91-.33-1.92-.51-2.83-.56-.51-.02-1.02,0-1.53.05-.02,0-.04,0-.06,0-.51.05-1.06.12-1.59.24-.74.18-1.46.47-1.96.96-.04.04-.08.09-.12.13-.02.03-.05.05-.07.08-.03.04-.06.08-.09.12-.03.04-.06.08-.09.13-.16.27-.27.6-.32.95,0,0,0,0,0,0-.01.08-.02.16-.03.24,0,.02,0,.04,0,.06,0,.07,0,.13,0,.2,0,.66.22,1.38.68,1.8.2.17.44.3.73.35h.04c.14.03.29.03.44.03,0,0,.02,0,.02,0,.04,0,.07,0,.11,0,.06,0,.12,0,.17-.01,0,0,.01,0,.02,0,.52-.05,1.07-.18,1.61-.3.46-.1.92-.2,1.36-.24Z"/>
  <path class="cls-2" d="M205.83,27.95s.06.04.09.06c0,0,.02.01.03.02.37.22.78.26,1.09.04.02-.02.05-.03.07-.05,0,0,0,0,0,0,.12-.12.21-.26.29-.42.09-.18.16-.37.24-.56.06-.16.12-.32.19-.47.06-.15.14-.29.23-.43.1-.16.22-.31.36-.44.07-.07.14-.13.21-.2.09-.08.19-.17.29-.25.01,0,.02-.02.03-.02.14-.12.28-.25.38-.39.18-.26.26-.57.23-.84-.04-.22-.16-.42-.32-.57-.12-.09-.26-.17-.45-.22,0,0,0,0,0,0-.07,0-.13,0-.2,0-.02,0-.04,0-.06,0-.04,0-.07,0-.11,0-.05,0-.11,0-.16.02-.01,0-.03,0-.04,0-.07.01-.14.03-.21.05,0,0-.01,0-.02,0-.07.02-.14.04-.21.07,0,0-.02,0-.03.01-.06.03-.13.05-.19.09-.02,0-.04.02-.06.03-.05.03-.1.06-.15.09-.03.02-.06.04-.09.06-.04.02-.07.05-.11.08-.04.03-.08.06-.11.09-.03.02-.05.04-.08.06-.04.04-.09.08-.13.12-.02.02-.03.03-.05.05-.05.04-.09.09-.14.14-.01.01-.03.03-.04.04-.05.05-.09.1-.13.15-.01.01-.03.03-.04.04-.04.05-.08.1-.12.15-.01.02-.03.04-.04.06-.03.04-.07.09-.1.13-.02.03-.04.05-.06.08-.03.04-.05.08-.08.11-.02.03-.05.07-.07.1-.02.03-.04.06-.06.09-.03.04-.05.08-.07.12-.02.03-.03.05-.05.08-.03.05-.05.1-.08.15-.11.2-.22.43-.3.67-.15.42-.22.87-.07,1.25.09.21.26.42.47.57Z"/>
  <path class="cls-2" d="M208.09,28.85s-.04.01-.07.02c-.03,0-.05.02-.07.02-.11.04-.22.08-.32.14-.02,0-.04.02-.05.03-.1.06-.19.12-.28.19l-.02.02s-.03.02-.04.03c-.26.23-.48.55-.61.89-.16.44-.18.93.01,1.3.07.12.16.23.27.33.03.03.06.05.1.07.02.01.04.02.06.03.01,0,.02.01.03.02.03.01.06.03.09.04,0,0,0,0,.01,0,.02,0,.04.01.07.02.08.02.17.04.26.04.19,0,.39,0,.59-.01.19,0,.38-.01.56.02.04,0,.08.01.12.02.06,0,.12.02.18.04.19.05.37.15.55.24.13.06.27.12.41.15,0,0,.02,0,.02,0,.12,0,.23,0,.33-.02.28-.07.47-.21.6-.41,0,0,0-.01.01-.02,0-.01.01-.02.02-.03.21-.38.2-.92.06-1.42-.1-.35-.28-.67-.49-.91-.02-.02-.04-.04-.05-.06l-.02-.02s-.06-.06-.09-.09c-.02-.02-.04-.04-.06-.06-.23-.21-.5-.38-.78-.5-.44-.18-.92-.23-1.38-.11Z"/>
  <path class="cls-2" d="M198.04,37.03s.02-.02.03-.03c.53-.56.83-1.31.88-2.09.07-1.22-.43-2.51-1.33-3.28-.73-.61-1.7-.88-2.74-.58-.03,0-.05.01-.08.02-.05.02-.1.03-.15.05-.21.06-.41.14-.58.24-.02.01-.04.02-.06.03-.01,0-.03.02-.04.03-.55.36-.91.92-1.11,1.57,0,.02-.01.04-.02.07,0,.02-.01.04-.02.06-.13.5-.17,1.04-.12,1.57,0,.01,0,.02,0,.04,0,.03,0,.07.01.1.01.11.03.22.05.33,0,.02,0,.04.01.06,0,.03.01.07.02.1v.03c.08.35.22.69.4,1,0,0,0,0,0,.01.02.04.05.07.07.11.02.03.04.05.05.08.01.02.02.03.03.05.58.8,1.5,1.36,2.53,1.36.21,0,.43-.03.65-.09.58-.15,1.05-.4,1.41-.73.03-.03.06-.05.09-.08Z"/>
  <path class="cls-2" d="M260.16,89.01h-.02c-3.59-1.98-9.12-2.17-13.36-1.14-1.12.28-1.93.58-2.82,1.09-1.73,1-3.02,2.3-2.79,4.33.37,2.86,4.35,4.73,9.11,5.07,4.99.38,11.83-.95,12.57-4.96.32-1.95-.99-3.4-2.68-4.39Z"/>
  <path class="cls-2" d="M237.31,94.34h-.02c-2.09-1.12-5.01-1.17-7.37-.54-1.39.36-3.18,1.51-2.64,3.16,1.3,3.19,10.27,3.2,11.41-.11.3-1.07-.43-1.98-1.37-2.51Z"/>
  <path class="cls-2" d="M175.92,34.8c-1.13.55-2.02,1.51-2.65,2.74-.95,1.88-1.32,4.41-1.08,7.13,0,.01,0,.02,0,.03,0,.07.01.15.02.22.19,1.78.64,3.65,1.36,5.48.03.09.07.17.1.26.04.08.08.16.12.23.1.16.23.29.38.35,0,0,.01,0,.02,0,.01,0,.03,0,.04.01.11.03.22.02.33-.02.02,0,.04-.01.06-.02.37-.15.92-.39,1.54-.67.79-.36,1.67-.78,2.46-1.1.12-.05.23-.1.34-.15.17-.07.35-.17.54-.18,0,0,0,0,0,0,0,0,.01,0,.02,0,.05,0,.1,0,.16.01.09.02.16.05.22.1.01.01.03.02.04.04,0,0,0,0,0,0,.06.06.09.14.11.23,0,0,0,.02,0,.02,0,0,0,.02,0,.03.01.15-.03.32-.12.45-.05.09-.12.17-.21.24-.18.21-.57.57-1.05,1-.89.83-1.92,1.76-2.51,2.47-.29.37-.47.7-.44.93.02.05.04.1.08.17.14.21.29.42.44.64.03.04.05.08.08.11.04.06.08.12.13.17.07.09.13.18.2.27.03.04.07.09.1.13.04.05.08.11.13.16.04.05.08.1.12.15.04.05.07.09.11.14.08.1.16.2.24.29,0,0,0,0,0,0,.09.11.18.22.28.32,0,0,.02.02.02.03.77.87,1.62,1.69,2.54,2.38.03.02.05.04.08.06.07.05.14.1.21.15.06.04.12.08.17.12.03.02.06.04.09.06.78.53,1.62.96,2.49,1.25.11.04.21.07.32.1,1.91.39,3.45.26,4.66-.26,1.51-.71,2.51-1.98,3.08-3.6,0-.02.01-.04.02-.06,0-.01,0-.03.01-.04,1.38-4.29-.11-11.02-3.17-16.13-3.03-4.99-7.57-8.41-12.25-6.46ZM189.67,45.96c.02.06.04.11.06.16.71,1.91,1.52,5.01,1.51,7.78,0,1.94-.38,3.64-1.4,4.66-.14.14-.28.28-.44.4-.18.11-.35.19-.53.26-.09.04-.18.08-.28.11h-.02c-.08.03-.17.04-.25.06-.57.12-1.13.06-1.67-.13-1.36-.45-2.51-1.72-3.46-3.27-1.6-2.57-2.78-6.16-3.17-9.38-.26-1.95-.3-4.02.39-5.56.26-.64.62-1.16,1.09-1.5l.02-.02c.11-.07.22-.13.33-.18.05-.03.11-.07.17-.1.66-.29,1.28-.36,1.87-.27.03,0,.07.01.1.02.02,0,.04,0,.05.01,1.63.33,3.01,1.91,4.07,3.7.1.17.21.35.3.52.4.66.84,1.61,1.25,2.72Z"/>
  <path class="cls-2" d="M263.33,49.54s.1.05.15.08c0,0,.02,0,.03.01.28.13.58.21.9.26,0,0,0,0,0,0,.11.02.21.03.32.03.01,0,.03,0,.04,0,.08,0,.16,0,.24,0,.04,0,.09,0,.13,0,.03,0,.05,0,.08,0,.94-.07,1.88-.34,2.77-.75,1.41-.67,2.79-1.73,3.81-3.04.58-.75,1.04-1.57,1.35-2.42.04-.11.08-.23.11-.34,0-.03.01-.05.02-.08.02-.1.02-.2,0-.29,0,0,0-.01,0-.02,0-.02-.01-.04-.02-.06,0-.02-.02-.03-.03-.04,0,0-.01-.01-.02-.02-.01-.01-.03-.03-.04-.04-.02-.02-.04-.03-.06-.04,0,0,0,0-.01,0-.14-.08-.31-.17-.49-.27-.32-.17-.7-.36-1.07-.55-.3-.15-.59-.3-.85-.44-.03-.02-.06-.04-.09-.05-.22-.1-.46-.21-.61-.36,0,0-.02-.02-.02-.03,0-.01-.02-.02-.03-.03-.01-.01-.02-.03-.03-.04-.02-.04-.03-.08-.04-.12,0,0,0,0,0,0,0,0,0,0,0-.01,0-.02,0-.03,0-.05,0-.12.05-.2.12-.26.05-.05.11-.08.18-.09.02,0,.04,0,.07,0,.13-.02.26-.02.37,0,.03,0,.07,0,.1.01.22.02.57.08.97.15.83.13,1.77.28,2.44.26.24-.01.44-.06.54-.14,0,0,0,0,.01-.01,0,0,.02-.02.03-.03,0,0,.01-.01.02-.02.04-.05.08-.11.1-.18,0,0,0,0,0-.01,0,0,0-.02.01-.03.15-.46.28-.94.39-1.43,0-.01,0-.02,0-.03.01-.07.03-.14.04-.2.15-.77.25-1.57.27-2.36.01-.81-.06-1.62-.26-2.37-.01-.04-.02-.08-.03-.12-.02-.07-.04-.14-.06-.21-.02-.05-.03-.1-.05-.15-.02-.06-.04-.12-.07-.18-.02-.05-.04-.1-.06-.15-.68-1.34-1.5-2.17-2.4-2.61-1.05-.46-2.2-.43-3.34-.02-3.12,1.17-6.34,5.19-7.82,9.32-1.36,3.85-1.21,7.8,1.89,9.62ZM261.94,42.14c.12-.8.36-1.6.66-2.37.15-.38.3-.74.45-1.05,0,0,0-.02.01-.03v-.02s.02,0,.02-.01c0,0,0-.02.01-.03,0-.01.01-.03.02-.04.26-.53.56-1.08.92-1.62.42-.64.89-1.24,1.4-1.73.03-.03.05-.05.08-.08.03-.02.05-.05.08-.07.1-.09.2-.18.31-.27.3-.23.6-.41.88-.55.02-.01.04-.02.06-.03.04-.02.09-.04.13-.06,1.03-.44,1.86-.22,2.4.43.53.63.78,1.68.63,3.01,0,.03,0,.07-.01.1,0,.06-.02.12-.03.19-.01.09-.03.18-.05.27,0,.02,0,.03,0,.05-.05.24-.1.48-.17.73-.05.2-.11.39-.17.58-.02.06-.04.11-.06.17-.04.13-.09.26-.13.39-.03.08-.06.17-.1.25-.04.1-.08.2-.12.3-.04.09-.08.18-.12.27-.04.09-.08.19-.12.28-.04.09-.08.17-.12.25-.05.1-.09.2-.14.29-.04.08-.08.15-.12.22-.06.11-.11.21-.17.31-.04.07-.08.14-.12.2-.06.1-.12.21-.19.31-.05.08-.09.15-.14.23-.03.04-.05.08-.08.13l-.02.03c-.05.08-.1.16-.16.24,0,0,0,0,0,0,0,0,0,.01-.01.02-.03.05-.07.1-.1.15-.4.57-.83,1.05-1.27,1.44-.68.6-1.44,1.03-2.2,1.07-.42.04-.81-.05-1.14-.25,0,0-.01,0-.02,0,0,0,0,0,0,0-.34-.22-.61-.57-.8-1.06-.32-.76-.33-1.7-.17-2.64Z"/>
  <path class="cls-2" d="M274.52,61.83s.05.03.07.04h.03s.07.05.11.07c.1.05.2.1.3.14,0,0,0,0,0,0,.03.01.05.02.08.03,0,0,.02,0,.02,0,.03,0,.05.02.08.02.01,0,.02,0,.03,0,.02,0,.05,0,.07.01.01,0,.02,0,.03,0,.02,0,.04,0,.06,0,0,0,.02,0,.03,0,.04,0,.08-.02.13-.04.07-.03.14-.07.22-.11.11-.06.23-.13.33-.19,0,0,0,0,0,0,.05-.03.1-.07.15-.09,0,0,0,0,.01-.01.03-.02.04-.05.02-.08-.02-.02-.04-.04-.07-.05,0,0,0,0,0,0-.05-.03-.1-.05-.14-.07-.18-.09-.37-.2-.57-.24-.12-.02-.24,0-.39.05-.14.07-.31.17-.46.26,0,0,0,0,0,0h-.02s0,.02,0,.02c0,0,0,0,0,0-.04.02-.08.05-.11.07,0,0,0,0,0,0,0,0-.02.01-.02.02,0,0-.02.01-.02.02,0,0,0,0,0,0-.03.04-.02.08.05.12Z"/>
  <path class="cls-2" d="M269.19,59.36s.05.03.07.04h.03s.07.05.11.07c.1.05.2.1.3.14,0,0,0,0,0,0,.03.01.05.02.08.03,0,0,.02,0,.02,0,.03,0,.05.02.08.02.01,0,.02,0,.03,0,.02,0,.05,0,.07.01.01,0,.02,0,.03,0,.02,0,.04,0,.06,0,0,0,.02,0,.03,0,.04,0,.08-.02.13-.04.07-.03.14-.07.22-.11.11-.06.23-.13.33-.19,0,0,0,0,0,0,.05-.03.1-.07.15-.09,0,0,0,0,.01-.01.03-.02.04-.05.02-.08-.02-.02-.04-.04-.07-.05,0,0,0,0,0,0-.05-.03-.1-.05-.14-.07-.18-.09-.37-.2-.57-.24-.12-.02-.24,0-.39.05-.14.07-.31.17-.46.26,0,0,0,0,0,0h-.02s0,.02,0,.02c0,0,0,0,0,0-.04.02-.08.05-.11.07,0,0,0,0,0,0,0,0-.02.01-.02.02,0,0-.02.01-.02.02,0,0,0,0,0,0-.03.04-.02.08.05.12Z"/>
  <path class="cls-2" d="M264.07,64.54s.04-.05.05-.08c.04-.09,0-.16-.09-.22-.07-.04-.14-.08-.21-.12-.06-.03-.12-.06-.18-.09-.02,0-.03-.02-.05-.02-.07-.02-.14-.03-.21-.03-.05,0-.1.02-.14.04-.12.07-.24.14-.35.2-.23.14-.47.28-.69.41-.17.1-.34.2-.51.31-.03.02-.05.03-.08.05-.31.19-.63.38-.93.56-.39.23-.75.45-1,.6-.1.06-.19.12-.27.17,0,0,0,0,0,0-.02.03-.03.05-.02.08,0,0,0,0,0,0,0,0,0,.01.01.02.05.06.17.13.3.2.09.04.17.08.24.11,0,0,0,0,0,0,0,0,0,0,0,0,.18.1.41.05.67-.08.08-.04.16-.09.23-.14.45-.27.9-.57,1.36-.82.03-.02.06-.03.08-.04,0,0,.01,0,.02-.01.53-.27,1.08-.45,1.63-.34.12.02.24.05.37.09.03,0,.06,0,.09.01.2.01.39-.03.57-.12.12-.06.23-.15.32-.24.03-.03.04-.07.04-.11,0-.03-.02-.05-.04-.08-.07-.05-.15-.09-.23-.12,0,0-.01,0-.02,0-.07-.02-.13-.03-.2-.04-.03,0-.05,0-.08,0-.02,0-.04,0-.06,0-.02,0-.05,0-.07,0-.13,0-.26.01-.4.02-.02,0-.04,0-.05,0-.06,0-.1,0-.13,0,0,0-.02,0-.03,0h-.01c-.06-.04.03-.11.05-.15,0,0,.01-.01.02-.02Z"/>
  <path class="cls-2" d="M264.06,70.23s.08.04.11.05c.03.02.07.04.1.06.06.03.13.05.19.07.01,0,.02,0,.03,0,.01,0,.02,0,.03,0,.1.02.2.01.29-.01.09-.03.18-.08.26-.13.12-.07.26-.16.39-.25.18-.12.36-.24.55-.33.05-.03.1-.05.15-.07.05-.02.08-.03.12-.03,0,0,0,0,0,0,0,0,.01,0,.02,0,0,0,0,0,0,0,0,0,.02,0,.02.01,0,0,0,0,0,0,0,0,.01,0,.02.02.02.02.03.04.05.08,0,0,0,0,0,0,.16.4.47.64.84.77.51.18,1.13.14,1.67.01.07-.02.15-.04.22-.06.44-.11.9-.32,1.3-.58,0,0,0,0,0,0,.05-.03.1-.06.15-.1,0,0,0,0,0,0,.05-.03.09-.07.14-.1,0,0,0,0,0,0,.05-.03.09-.07.13-.1h0c.26-.21.48-.44.62-.66,0,0,0,0,0,0,.02-.03.04-.07.06-.1,0,0,0,0,0-.01.02-.03.03-.06.04-.09,0,0,0-.02,0-.02,0-.03.02-.05.02-.08,0-.01,0-.02,0-.04,0-.02,0-.04,0-.06,0-.02,0-.03,0-.05,0-.02,0-.03,0-.05,0-.02,0-.04,0-.06,0-.01,0-.02,0-.03,0-.02-.01-.05-.02-.07,0,0,0-.01,0-.02-.01-.03-.02-.05-.04-.08,0,0,0,0,0,0-.02-.03-.04-.05-.06-.08,0,0,0,0,0,0-.05-.05-.12-.1-.2-.15,0,0,0,0,0,0-.04-.02-.08-.04-.13-.06,0,0,0,0-.01,0-.04-.02-.08-.03-.13-.05-.01,0-.03,0-.05-.01-.04-.01-.07-.02-.11-.03-.03,0-.07-.02-.1-.02-.02,0-.05,0-.07-.01-.05-.01-.11-.02-.17-.03-.02,0-.03,0-.05,0-.03,0-.05,0-.08,0-.06,0-.13-.01-.19-.02-.02,0-.04,0-.06,0-.03,0-.05,0-.08,0-.06,0-.12-.01-.18-.02,0,0,0,0,0,0-.04,0-.07-.02-.09-.04-.01,0-.02-.02-.03-.03-.01-.02-.01-.05-.01-.07,0-.03,0-.05,0-.08,0,0,0-.02,0-.03,0-.01,0-.02,0-.03,0,0,0-.02,0-.03,0-.01,0-.03-.02-.04,0,0,0-.01,0-.02,0-.01-.02-.02-.03-.03-.01-.01-.02-.02-.04-.03-.02-.01-.03-.03-.05-.04-.03-.02-.07-.04-.1-.06,0,0,0,0-.01,0,0,0-.02,0-.02-.01-.04-.02-.09-.04-.13-.06-.06-.03-.13-.05-.19-.07,0,0-.01,0-.02,0-.1-.01-.21.02-.3.06-.06.03-.11.07-.17.1,0,0-.02.01-.03.02-.49.31-1.17.71-1.86,1.13-.88.53-1.79,1.08-2.38,1.44-.23.14-.41.26-.54.35,0,0,0,.01,0,.02,0,.04.03.07.06.1.05.03.11.07.17.11ZM267.27,69.19s0-.02,0-.03c0,0,0,0,0,0,0,0,0,0,0,0,.05-.17.22-.35.45-.52.4-.29.98-.52,1.49-.57.4-.05.75,0,.91.23,0,0,.02.02.02.03,0,0,0,0,0,.01.06.09.09.21.08.36v.02s-.01.02-.02.03c0,0,0,0,0,0,0,0,0,0,0,0-.07.17-.25.34-.49.5-.37.26-.87.47-1.32.53,0,0,0,0,0,0-.02,0-.05,0-.07,0-.38.05-.71,0-.9-.2-.09-.09-.16-.22-.17-.39v-.02Z"/>
  <path class="cls-2" d="M262.46,68.05l.03.02c.1.06.2.11.31.15.19.06.4.11.65.14,0,0,0,0,0,0,.05,0,.11,0,.16.01.03,0,.05,0,.08,0,.05,0,.1.03.14.06,0,0,0,0,0,0,0,0,.01.02.02.02,0,0,.01.01.02.02,0,0,0,0,0,0,.03.04.05.09.07.14,0,0,0,0,0,0,0,0,0,0,0,0,0,.02.02.04.04.06,0,0,0,0,0,0,.01.02.03.04.05.05,0,0,0,0,0,0,.02.01.03.03.05.04.01,0,.02.02.03.02,0,0,.02.01.02.02.07.04.14.08.22.11.05.02.11.04.16.05.02,0,.03,0,.05,0,.07,0,.14,0,.2-.03,0,0,0,0,0,0,.01,0,.03-.01.04-.02.05-.03.09-.06.13-.09,0,0,0,0,0,0,.37-.31,1.19-.77,1.73-1.09.06-.04.12-.07.17-.1.03-.02.06-.03.09-.05.36-.21.68-.48.83-.77.13-.27.09-.52-.12-.75,0,0,0,0,0,0,0,0-.02-.02-.03-.03-.1-.09-.23-.18-.39-.27-.02,0-.04-.02-.05-.03-.03-.01-.06-.03-.09-.04,0,0-.01,0-.02,0-.19-.08-.39-.14-.61-.19-.01,0-.03,0-.04,0-.01,0-.03,0-.04,0-.32-.06-.69-.08-1.03-.05,0,0-.02,0-.03,0-.03,0-.05,0-.07,0-.21.03-.41.08-.59.16,0,0,0,0,0,0,0,0,0,0,0,0-.01,0-.03.02-.04.02,0,0,0,0-.01.01,0,0-.01.01-.02.02,0,0,0,.01-.01.02,0,0,0,.02-.01.03,0,0,0,0,0,0,0,.04,0,.07.03.11.02.03.05.05.08.08,0,0,0,0,0,0,.1.07.22.12.33.15.02,0,.04,0,.06.01.16.03.32.03.48.02.11,0,.22-.02.32-.01,0,0,0,0,.01,0,.02,0,.03,0,.05,0,.01,0,.02,0,.03,0,.07,0,.14.02.2.04.12.03.24.1.32.19,0,0,0,0,0,0,.04.04.06.08.08.13,0,0,0,0,0,0,0,.02,0,.04.01.06,0,0,0,.01,0,.02,0,.01,0,.02,0,.03,0,.01,0,.02,0,.03,0,0,0,0,0,0-.02.05-.06.1-.12.14,0,0,0,0,0,0-.01,0-.02.01-.03.02-.01,0-.03.02-.04.02-.1.04-.21.06-.31.05,0,0,0,0,0,0,0,0,0,0,0,0-.04,0-.08,0-.12,0-.12-.02-.24-.04-.35-.07-.34-.09-.68-.22-1.03-.31-.01,0-.02,0-.03,0-.03,0-.06-.02-.09-.02-.03,0-.07-.02-.1-.02-.01,0-.03,0-.04,0-.05,0-.09-.02-.14-.03,0,0,0,0,0,0-.11-.02-.21-.03-.32-.03,0,0,0,0,0,0-.05,0-.1,0-.15,0-.02,0-.03,0-.05,0-.04,0-.07,0-.11.01-.05,0-.11.02-.16.03,0,0-.01,0-.02,0h-.03c-.25.07-.45.15-.63.24-.29.16-.54.38-.63.62-.06.22,0,.44.19.62.06.05.13.11.22.16ZM263.23,67.37s0-.02.01-.03c0,0,0-.01.01-.02.01-.02.03-.04.04-.05,0,0,0,0,.01-.01.01-.01.03-.03.05-.04,0,0,.02-.02.03-.02l.02-.02s.03-.01.04-.02c.02-.01.03-.02.05-.03.08-.04.17-.07.26-.08,0,0,0,0,.01,0,.03,0,.06,0,.1-.01.02,0,.03,0,.05,0,.02,0,.04,0,.05,0,.3,0,.63.07.94.15.17.04.34.09.5.12.02,0,.05.01.08.02,0,0,0,0,0,0,.02,0,.04.01.06.02,0,0,.01,0,.02,0,0,0,0,0,0,0,.03.02.05.04.05.07,0,.01,0,.02-.01.03,0,0,0,0,0,0,0,0,0,0,0,0,0,.02-.03.04-.05.06-.08.06-.17.11-.27.16-.26.13-.54.2-.84.22-.16.01-.32.02-.47,0-.09,0-.18-.01-.27-.04-.19-.04-.34-.11-.43-.2-.08-.08-.11-.17-.06-.27Z"/>
  <path class="cls-2" d="M272.07,63.15c-.86.52-1.74,1.04-2.11,1.26,0,0-.01,0-.02.01-.01,0-.03.02-.04.03,0,0,0,0,0,0-.04.04-.02.09.03.13.05.03.11.07.17.11,0,0,0,0,0,0,.08.04.18.09.28.14.1.05.19.08.27.11.04.01.09.02.13.01,0,0,0,0,0,0,.2-.1.42-.23.66-.36.11-.07.23-.13.33-.2.41-.24,1.02-.61,1.6-.96.46-.28.89-.54,1.22-.73.02,0,.03-.02.05-.03.03-.02.05-.03.07-.05,0,0,0,0,.01-.01,0,0,0,0,0-.01.02-.03,0-.07-.02-.11,0,0,0,0,0,0,0,0-.02-.02-.02-.03-.08-.07-.24-.14-.31-.18-.01,0-.03-.01-.04-.02-.09-.04-.18-.08-.22-.1-.13-.05-.24-.06-.36-.01-.11.04-.22.12-.33.18-.22.13-.47.28-.73.44-.18.11-.39.23-.62.37Z"/>
  <path class="cls-2" d="M266.47,60.77c-.81.49-1.64.98-2,1.19,0,0-.01,0-.02.01-.01,0-.02.02-.03.03,0,0,0,0,0,0-.04.04-.02.08.02.12.05.03.1.07.16.1,0,0,0,0,0,0,.08.04.17.09.26.13.09.04.18.08.25.1.04.01.08.02.12.01,0,0,0,0,0,0,.19-.1.4-.21.62-.34.11-.06.21-.13.31-.19.38-.23.97-.58,1.51-.9.43-.26.84-.51,1.15-.69.01,0,.03-.02.04-.03.03-.02.05-.03.07-.05,0,0,0,0,.01-.01,0,0,0,0,0-.01.02-.03,0-.07-.02-.1,0,0,0,0,0,0,0,0-.02-.02-.02-.02-.08-.07-.22-.13-.3-.17-.01,0-.02-.01-.04-.02-.09-.04-.17-.07-.21-.1-.12-.04-.22-.05-.34-.01-.1.04-.2.11-.31.17-.21.12-.44.26-.69.41-.17.1-.37.22-.59.35Z"/>
  <path class="cls-2" d="M269.96,60.58h-.03s-.02,0-.03,0c-.35.03-.69.1-.96.19-.02,0-.05.02-.07.03-.03.01-.06.02-.09.03-.01,0-.02,0-.03.01-.11.05-.22.1-.33.16,0,0,0,0-.01,0-.04.02-.08.05-.12.07-.02.01-.04.02-.06.04-.02.01-.04.02-.06.04-.1.06-.19.13-.28.2,0,0,0,0,0,0-.08.06-.15.13-.22.2-.03.03-.06.06-.08.08,0,0,0,0,0,0-.42.47-.55.98-.16,1.32.1.08.24.15.42.21.19.06.39.1.57.13.13,0,.23.02.3.04.08.02.13.05.13.09,0,0,0,0,0,0,0,.03-.03.06-.07.1-.07.06-.16.1-.25.14-.01,0-.02.01-.03.02-.04.02-.08.03-.12.04,0,0-.01,0-.02,0-.15.05-.32.08-.5.09-.25.01-.51-.02-.71-.11-.08-.03-.16-.08-.22-.13-.03-.03-.06-.06-.08-.09,0,0,0,0,0,0-.02-.02-.03-.05-.04-.07-.01-.02-.02-.05-.04-.07-.03-.06-.06-.13-.1-.19-.05-.08-.12-.15-.2-.21-.1-.08-.2-.13-.31-.16,0,0-.01,0-.02,0,0,0-.02,0-.03,0-.03,0-.05-.01-.08-.02,0,0,0,0,0,0-.13-.02-.26,0-.36.08,0,0-.02.02-.03.02-.01,0-.02.02-.03.03-.01.01-.02.03-.04.04,0,0-.01.01-.02.02-.01.02-.02.04-.03.06,0,0,0,.02-.01.03,0,.02-.02.04-.02.07-.02.07-.03.15-.02.24.01.05.03.1.05.14,0,0,0,0,0,0,.02.04.03.07.05.1,0,.02.02.03.03.05.01.02.03.04.04.06.02.03.04.05.06.08,0,.01.02.02.03.03.03.03.06.06.09.09,0,0,.01,0,.02.01.04.03.08.06.12.09,0,0,0,0,.01,0,.04.03.09.06.14.09,0,0,.01,0,.02,0,.05.03.09.05.14.07.01,0,.03.01.04.02.04.02.09.04.13.06.02,0,.05.02.07.03.04.01.07.03.11.04.04.01.07.02.11.03.02,0,.05.01.07.02.05.01.1.03.15.04.01,0,.02,0,.03,0,.06.01.12.03.18.04,0,0,0,0,0,0,.06.01.12.02.18.03,0,0,0,0,0,0,.05,0,.11.01.16.02,0,0,.01,0,.02,0,.04,0,.08,0,.12.01.02,0,.04,0,.05,0,0,0,0,0,.01,0,.05,0,.1,0,.14,0,.02,0,.04,0,.06,0,1.62-.07,3.62-1.67,5.09-2.47.06-.03.11-.06.14-.09,0,0,0,0,0,0,.01-.01.02-.02.03-.03,0,0,.01-.01.02-.02,0,0,.01-.01.01-.02,0-.01.01-.03.02-.04,0,0,0,0,0,0,0-.05,0-.09-.05-.13,0,0,0,0,0-.01,0,0-.01-.01-.02-.02-.07-.06-.19-.12-.3-.16-.07-.02-.14-.04-.2-.05-.06-.01-.13-.02-.19-.02-.05,0-.09,0-.14-.02,0,0,0,0-.01,0-.01,0-.02,0-.04-.01-.07-.02-.13-.06-.18-.12l-.02-.02s-.02-.03-.03-.04c-.02-.03-.04-.06-.06-.08-.01-.02-.02-.04-.04-.06-.15-.19-.37-.32-.62-.41-.01,0-.02,0-.03,0-.02,0-.05-.01-.07-.02-.4-.11-.88-.13-1.27-.1ZM271.02,61.53c.08.09.14.2.16.35v.02s0,.03-.01.05c0,0,0,0,0,.01-.02.06-.05.11-.09.17,0,0,0,0,0,0-.01.02-.03.04-.05.06,0,0-.01.01-.02.02-.01.02-.03.03-.04.04-.01.01-.02.02-.04.03-.01,0-.02.02-.03.03-.02.02-.04.03-.06.05,0,0-.01.01-.02.02-.03.02-.05.04-.08.06,0,0,0,0,0,0-.58.39-1.57.6-2.03.29,0,0-.01,0-.02,0,0,0-.01,0-.02-.01-.14-.1-.22-.25-.23-.46v-.02c.05-.18.22-.35.44-.5.34-.24.82-.4,1.25-.43.37-.03.71.03.89.24Z"/>
  <path class="cls-2" d="M279.79,66.38h-.02s-.03.02-.04.02c-.2.08-.5.05-.81,0-.58-.1-1.18-.35-1.77-.4-.35-.01-.7.05-1.01.2-.02.01-.04.02-.07.04-.35.2-.72.54-.67.9.02.12.09.23.19.33.01,0,.02.02.03.03,0,0,.02.02.03.02.03.03.07.05.1.08.01.01.03.02.04.03.03.02.06.04.1.06.02.01.04.02.05.03.04.02.08.04.12.06.01,0,.02,0,.03.01.27.11.58.18.85.2,0,0,0,0,0,0,0,0,0,0,0,0,0,0,.02,0,.02,0,0,0,.01,0,.02,0,.01,0,.02,0,.03,0,.01,0,.03,0,.04,0,.02,0,.04,0,.06.02,0,0,0,0,0,0,.02,0,.05.02.07.04,0,0,0,0,0,0,0,0,0,0,0,0,.02.02.03.04.05.06,0,0,0,0,0,0,0,0,0,.01,0,.02.01.02.02.04.03.07.02.04.04.09.07.13,0,0,0,0,0,0,.02.02.03.04.05.06,0,0,0,0,0,0,.03.03.07.05.11.07.03.02.07.04.11.06.03.01.05.03.08.04,0,0,0,0,0,0,0,0,.01,0,.02,0,.08.03.17.04.25.04.01,0,.03,0,.04,0,0,0,.01,0,.02,0,.08-.02.15-.05.22-.11,0,0,0,0,0,0,.25-.21.57-.41.91-.6.41-.25.85-.49,1.2-.72.21-.14.4-.29.56-.45.18-.21.26-.4.25-.58-.03-.33-.35-.6-.77-.79-.38-.16-.86-.26-1.3-.28-.24,0-.55,0-.81.05-.11.03-.2.06-.28.1-.06.04-.11.08-.15.14,0,0,0,0,0,.01,0,.07.05.12.1.17,0,0,.02.01.03.02,0,0,0,0,0,0,.03.02.06.04.09.05,0,0,0,0,0,0,.01,0,.02.01.03.02.05.02.11.04.16.06.03,0,.05.02.08.02.11.03.23.03.35.02.08,0,.15-.01.23-.02.06,0,.13,0,.2,0,.09,0,.17.01.26.04,0,0,0,0,0,0,.01,0,.02,0,.04,0,0,0,0,0,.01,0,.07.02.14.04.2.07,0,0,0,0,0,0,.01,0,.03.01.04.02.1.05.18.13.2.24v.02s0,.02,0,.02c0,.1-.08.18-.17.23ZM279,67.01s-.08.09-.19.15c-.08.05-.17.1-.26.13-.02,0-.03.01-.05.02h-.02c-.25.1-.59.17-.92.18-.03,0-.06,0-.09,0-.04,0-.08,0-.12,0-.02,0-.03,0-.04,0-.11,0-.2-.02-.28-.04,0,0,0,0,0,0-.01,0-.02,0-.03-.01-.02,0-.05-.01-.07-.02-.02,0-.03-.01-.05-.02-.02,0-.03-.01-.04-.02-.02,0-.03-.02-.05-.03-.01,0-.02-.01-.03-.02-.01-.01-.03-.02-.04-.03,0,0-.01-.01-.02-.02-.01-.01-.02-.02-.03-.03,0,0-.01-.01-.02-.02,0-.01-.01-.02-.02-.03,0,0,0-.02-.01-.02,0-.01,0-.02,0-.03,0,0,0-.02,0-.03,0,0,0-.02,0-.03,0-.01,0-.02,0-.03,0,0,0-.02,0-.02,0-.01,0-.03.02-.04,0,0,0-.01.01-.02,0-.01.02-.03.03-.04,0,0,.01-.01.02-.02.01-.01.02-.02.04-.04,0,0,.02-.01.02-.02.01-.01.03-.02.05-.03.01,0,.02-.01.03-.02.02,0,.03-.02.05-.02.02,0,.03-.01.05-.02,0,0,.01,0,.02,0,0,0,.01,0,.02,0,.09-.03.2-.06.32-.07,0,0,0,0,0,0,.02,0,.05,0,.07,0,.03,0,.06,0,.1,0,.03,0,.06,0,.09,0,.03,0,.07,0,.1,0,.02,0,.05,0,.07,0,.06,0,.12,0,.17.01,0,0,.01,0,.02,0,.06,0,.11.01.16.02.01,0,.02,0,.03,0,.05,0,.1.02.14.02.01,0,.03,0,.04,0,.04,0,.08.02.11.02.02,0,.03,0,.05,0h.02s0,0,0,0c.08.02.16.04.22.05.16.04.35.09.33.17,0,0-.01,0-.02.01Z"/>
  <path class="cls-2" d="M266.03,58.4c-.11.07-.25.15-.41.24-.08.05-.17.1-.26.16-.28.17-.64.38-1.01.6-.6.36-1.22.73-1.66,1-.13.08-.24.15-.34.22-.02.02-.04.04-.05.07,0,.04.01.07.05.11.13.09.3.19.48.26,0,0,.01,0,.02,0,.02,0,.03.01.05.02.14.04.27.05.41.01.11-.03.21-.09.31-.15,0,0,0,0,0,0,.51-.31,1.09-.71,1.68-.99,0,0,0,0,.01,0,.05-.02.1-.05.15-.07.03-.01.06-.03.09-.04.03-.01.06-.03.1-.04.05-.02.09-.04.14-.05.02,0,.04-.01.06-.02.06-.02.12-.04.18-.05,0,0,.02,0,.03,0,.07-.02.14-.03.2-.04,0,0,.01,0,.02,0,.07-.01.14-.02.21-.02,0,0,.02,0,.03,0,.06,0,.12,0,.18,0,.03,0,.05,0,.08,0,.04,0,.07,0,.11.01.09.02.19.04.28.07,0,0,.01,0,.02,0,.06.02.12.03.19.04.01,0,.03,0,.04,0,0,0,.01,0,.02,0,.11,0,.21-.02.32-.06.06-.02.13-.05.19-.09.07-.04.14-.09.21-.14,0,0,0,0,.01-.01.04-.04.07-.08.09-.12,0,0,0,0,0,0,.02-.06,0-.13-.08-.19-.02-.01-.05-.03-.07-.04-.01,0-.03-.01-.04-.02-.03-.01-.06-.02-.09-.03-.01,0-.03,0-.04-.01-.03,0-.05-.01-.08-.02-.03,0-.06,0-.08-.01-.01,0-.02,0-.03,0-.16-.01-.33,0-.49,0-.04,0-.08,0-.12,0-.07,0-.12,0-.14,0,0,0,0,0,0,0,0,0,0,0,0,0,0,0-.01,0-.02-.01-.03-.02,0-.06.04-.12.01-.01.03-.03.04-.04,0,0,.01-.01.02-.02,0-.01.02-.02.02-.04,0,0,0-.01,0-.02,0-.02.02-.03.02-.05,0-.04,0-.08-.04-.12,0,0,0,0,0,0,0,0-.02-.02-.02-.02-.01-.01-.03-.02-.04-.03-.05-.03-.11-.07-.18-.1-.05-.02-.1-.05-.13-.07-.08-.04-.16-.07-.24-.08-.01,0-.02,0-.03,0,0,0,0,0,0,0-.08,0-.15,0-.22.04-.02.01-.04.02-.06.03-.02.01-.05.03-.08.05,0,0,0,0,0,0Z"/>
  <path class="cls-2" d="M275.01,70.97c.15-.16.27-.32.33-.5,0-.04.01-.08.01-.11,0-.05,0-.09-.02-.13,0-.01,0-.03,0-.04,0-.01,0-.02-.01-.03-.03-.07-.06-.14-.11-.2,0,0,0,0,0,0-.02-.03-.05-.06-.08-.08,0,0-.01-.01-.02-.02-.02-.02-.04-.03-.06-.05-.04-.03-.08-.06-.12-.08,0,0,0,0-.01,0-.13-.07-.27-.12-.42-.15-.02,0-.04,0-.05-.01-.01,0-.03,0-.04,0-.2-.03-.4-.04-.6-.04-.05,0-.1,0-.15,0-.11,0-.17,0-.19-.02,0,0-.01,0-.02,0-.02,0,0-.02.01-.04.02-.02.05-.04.09-.07.1-.07.26-.16.34-.21.16-.11.34-.21.52-.31.2-.12.39-.24.55-.33.09-.06.18-.13.25-.2,0,0,0,0,0,0,.01-.03.01-.06,0-.09,0,0,0,0,0-.01,0,0,0-.01-.01-.02-.03-.04-.08-.08-.13-.11-.02-.01-.04-.02-.07-.04-.02-.01-.05-.03-.07-.04-.07-.04-.15-.07-.22-.11-.11-.05-.23-.08-.33-.06,0,0-.02,0-.02,0,0,0,0,0-.01,0-.02,0-.05.02-.07.03,0,0-.02.01-.03.02,0,0,0,0-.01,0-.5.3-1.85,1.12-3.08,1.86-.99.6-1.89,1.15-2.19,1.34-.04.03-.04.07-.02.1.02.03.06.05.1.09.03.02.05.03.07.05.05.03.09.05.11.06.12.07.22.12.33.15.15.04.3.03.46-.04.02-.01.04-.02.06-.03.22-.13.44-.26.66-.4.34-.21.68-.42,1.02-.62.08-.05.17-.1.25-.15.09-.07.21-.12.35-.17.21-.08.43-.12.65-.12.22,0,.44.02.59.09.15.05.22.14.24.24,0,0,0,.01,0,.02,0,.01,0,.02,0,.03,0,.16-.13.34-.29.46-.16.14-.36.25-.56.36-.13.08-.27.17-.42.25,0,0,0,0,0,0-.44.27-.89.53-1.18.71-.05.03-.08.06-.1.09,0,0,0,0,0,0,0,.01-.01.02-.01.03,0,0,0,0,0,.01,0,0,0,.02,0,.03,0,0,0,.01,0,.02,0,0,0,.01,0,.02,0,0,.01.02.02.03,0,0,0,0,0,0,.08.1.28.19.44.25.07.02.13.04.18.05.05,0,.1,0,.14,0,0,0,.02,0,.02,0,.01,0,.03,0,.04,0,.02,0,.04-.01.06-.02,0,0,0,0,0,0,.09-.03.18-.08.26-.13.02-.01.04-.02.06-.04.27-.18.63-.36,1-.56.56-.31,1.15-.66,1.52-1.03Z"/>
  <path class="cls-2" d="M275.91,63.51h0s.04-.1.06-.17c0,0,0-.01,0-.02,0,0,0-.02,0-.02,0,0,0-.02,0-.03,0,0,0,0,0-.01,0-.01,0-.03,0-.04h0s-.07-.1-.12-.14c-.09-.06-.19-.12-.3-.16-.09-.03-.17-.05-.24-.06-.05,0-.1,0-.15,0-.06.02-.12.05-.18.08-.74.45-3.01,1.83-3.59,2.19,0,0,0,0,0,0-.1.07-.04.16.08.25,0,0,0,0,.01,0,0,0,0,0,.01,0,.16.1.4.19.55.23.07.01.12.02.15,0,.14-.01.25-.07.37-.14,0,0,0,0,0,0,.24-.14.51-.32.8-.5.47-.31,1.01-.65,1.53-.83.03-.01.07-.02.1-.03,0,0,0,0,0,0,.09-.03.17-.05.26-.06.03,0,.07,0,.1-.01.18-.02.35,0,.51.04.16.03.29.09.37.18,0,0,0,0,.01,0,0,0,0,.01,0,.02.06.1.04.25-.12.43-.01.01-.02.02-.04.03-.36.39-1.16.82-1.73,1.14-.21.12-.4.23-.58.35-.02.01-.04.03-.05.04,0,0-.01.01-.02.02,0,0-.01.02-.02.03,0,0,0,0,0,0-.02.06,0,.13.07.18.09.08.24.15.38.21.09.03.18.06.24.06.08,0,.17-.01.25-.04,0,0,0,0,.01,0,.02,0,.03-.01.05-.02.07-.03.13-.07.2-.11,0,0,0,0,0,0,.22-.15.58-.34.97-.56.62-.35,1.27-.74,1.67-1.15.15-.17.25-.33.26-.5,0,0,0,0,0,0,0-.11-.02-.21-.06-.3-.1-.19-.29-.35-.52-.45-.15-.06-.31-.1-.47-.12-.02,0-.03,0-.05,0-.02,0-.04,0-.06,0-.02,0-.04,0-.06,0,0,0-.02,0-.02,0-.02,0-.05,0-.07,0-.25,0-.57.02-.59-.04Z"/>
  <path class="cls-2" d="M256.48,65s.04.03.06.04c0,0,0,0,0,0,.24.15.5.23.78.28.25.04.51.04.76.04.06,0,.13,0,.19,0,.05,0,.18,0,.22.03,0,0,0,0,0,0,0,0,0,0,0,.01,0,0,0,0,0,.01,0,0,0,.01,0,.02,0,0,0,.02-.01.03,0,0,0,0,0,0,0,0,0,0,0,0-.03.05-.1.12-.13.18-.02.04-.03.07-.02.11.02.04.05.08.09.12.07.06.18.12.28.14.09.02.18.03.26.01.06-.01.11-.04.17-.07.03-.02.05-.03.09-.05.19-.11.45-.27.74-.44.36-.21.76-.45,1.11-.67.2-.12.38-.24.52-.34,0,0,.02-.01.02-.02.04-.04.06-.08.06-.12-.01-.04-.05-.07-.09-.1,0,0-.02-.01-.03-.01-.07-.04-.17-.09-.27-.14-.24-.12-.48-.25-.72-.37-.14-.07-.28-.14-.4-.2-.02-.01-.04-.02-.06-.03-.2-.08-.37-.1-.55-.03-.03.01-.05.02-.08.04-.07.04-.13.07-.19.11-.04.03-.08.06-.13.1-.06.06-.09.13-.04.2.01.02.04.04.06.06,0,0,.01.01.02.02,0,0,0,0,0,0,.06.05.14.09.23.13.12.06.26.13.34.2.05.05.08.09.07.14,0,.02,0,.03-.02.05-.03.04-.07.07-.12.09,0,0,0,0,0,0,0,0,0,0,0,0-.03.01-.07.03-.1.04-.12.04-.27.08-.41.11,0,0-.01,0-.02,0-.05,0-.1.02-.14.02-.04,0-.08,0-.12.01-.02,0-.03,0-.05,0-.32.03-.65,0-.94-.08,0,0-.02,0-.03,0-.04-.01-.08-.03-.12-.05-.03-.01-.05-.02-.08-.04-.02-.01-.04-.02-.06-.03-.04-.02-.08-.05-.12-.08,0,0-.01,0-.02-.01-.09-.07-.17-.15-.23-.25,0,0,0,0,0,0-.02-.04-.04-.08-.06-.12,0-.02-.02-.05-.03-.07,0-.02,0-.03-.01-.05-.01-.04-.02-.07-.03-.12,0-.01,0-.02,0-.04,0,0,0,0,0-.01,0-.02,0-.03,0-.05.03-.26.21-.5.46-.72.39-.35.97-.64,1.53-.84.02,0,.03-.01.05-.02.31-.11.62-.19.94-.22.05,0,.1-.01.15-.01.02,0,.04,0,.06,0,0,0,0,0,0,0,0,0,0,0,.01,0,.04,0,.07,0,.11,0,0,0,.02,0,.03,0,.03,0,.07,0,.1,0,.01,0,.03,0,.04,0,.03,0,.06,0,.09,0,.02,0,.04,0,.05,0,.03,0,.05,0,.08.01.02,0,.04,0,.06.01.02,0,.05,0,.07.01.02,0,.04.01.07.02.02,0,.04.01.06.02.02,0,.05.01.07.02.02,0,.04.01.06.02.02,0,.04.02.07.02.02,0,.04.02.06.02.02,0,.04.02.06.03.02,0,.04.02.05.03.02,0,.04.02.05.03.02.01.04.02.05.03.02.01.03.02.05.03.02.01.03.02.05.04.01.01.03.02.04.03.01.01.03.03.04.04.01.01.02.02.03.04.01.01.02.03.03.04,0,.01.02.03.03.04,0,.01.01.03.02.04,0,.02.02.03.02.05,0,.01,0,.02,0,.03,0,.02.01.04.01.06,0,0,0,0,0,0,0,.02,0,.05,0,.07,0,0,0,0,0,0,0,0,0,0,0,0,0,.05,0,.09-.01.14,0,.05-.01.1-.02.15,0,.03,0,.07,0,.1,0,0,0,.01,0,.02.03.11.1.21.19.29.11.09.26.14.39.16,0,0,0,0,0,0,0,0,.01,0,.02,0,.07,0,.14,0,.21-.02.08-.02.15-.07.22-.12.17-.17.27-.34.33-.51.02-.07.04-.13.04-.2,0-.01,0-.02,0-.03,0,0,0-.01,0-.02,0-.03,0-.05,0-.08,0,0,0-.01,0-.02-.04-.39-.36-.73-.79-.98-.43-.24-.96-.41-1.47-.48-.02,0-.04,0-.06,0,0,0-.01,0-.02,0-.16-.02-.31-.03-.46-.03h-.03c-.14,0-.28,0-.44,0-.71.07-1.53.31-2.27.65-.01,0-.03.01-.04.02-.01,0-.02.01-.03.02-.88.43-1.63,1.01-1.88,1.62,0,.01-.01.03-.01.04,0,0,0,.02,0,.02-.16.49.01,1.01.72,1.47Z"/>
  <path class="cls-2" d="M284.81,65.89s-.02-.01-.03-.02c0,0-.01,0-.02-.01-.01,0-.03-.01-.04-.02-.06-.03-.12-.06-.19-.1-.11-.06-.22-.11-.32-.15-.03,0-.05-.02-.08-.02,0,0,0,0,0,0-.07,0-.13,0-.19.02-.15.09-.4.24-.7.42-.88.52-2.29,1.37-3.44,2.05-.47.28-.9.54-1.22.73,0,0,0,0-.01,0-.02.01-.03.02-.04.03,0,0-.01.01-.02.02,0,0,0,.01-.01.02,0,0,0,.01,0,.02,0,0,0,.01,0,.02,0,0,0,.01,0,.02,0,0,0,.01,0,.02,0,0,0,.01.01.02,0,0,0,0,.01.01.03.03.08.06.13.09,0,0,0,0,0,0,.09.04.18.09.26.13.13.07.27.12.37.14.08,0,.16,0,.24-.05,0,0,0,0,0,0,.32-.2,1-.6,1.78-1.06,1.01-.6,2.18-1.3,2.93-1.75.28-.17.51-.31.66-.41,0,0,.01-.02.01-.03,0-.05-.01-.08-.05-.11-.01-.01-.03-.02-.04-.04Z"/>
  <path class="cls-2" d="M266.55,76.22c.16-.07.21-.15.12-.25,0,0-.01-.01-.02-.02-.08-.06-.19-.11-.3-.16-.09-.03-.17-.06-.24-.08-.01,0-.02,0-.03,0-.01,0-.03,0-.04,0-.11,0-.23-.01-.36-.01-.09,0-.19,0-.28,0-.1,0-.19-.02-.28-.05-.14-.03-.26-.09-.36-.18-.07-.05-.12-.11-.15-.18-.03-.06-.05-.13-.04-.21,0-.04.02-.08.03-.13,0,0,0,0,0,0,0-.01,0-.02.01-.03.04-.09.1-.17.18-.23.02-.01.03-.02.05-.03,0,0,0,0,0,0,.02,0,.03-.02.05-.02,0,0,0,0,0,0,0,0,0,0,.01,0,.01,0,.02,0,.03,0,0,0,.01,0,.02,0,0,0,0,0,.01,0,.02,0,.05,0,.07,0,0,0,0,0,0,0,.02,0,.05,0,.07.02,0,0,0,0,0,0,0,0,.01,0,.02,0,.07.02.14.06.21.09.11.05.24.11.37.18,0,0,.02,0,.03.01.06.03.12.06.18.09.04.02.09.04.13.07,0,0,.01,0,.02.01.24.12.48.25.7.36.16.08.31.15.43.21.03.01.06.03.09.04.01,0,.03,0,.04.01.03,0,.06.01.09.01,0,0,.01,0,.02,0,.18,0,.35-.09.52-.22.06-.05.12-.1.18-.15.18-.15.35-.31.48-.49.13-.19.21-.4.18-.6-.02-.13-.08-.26-.16-.36-.01-.02-.03-.03-.04-.05,0,0-.01-.02-.02-.02-.53-.52-1.43-.7-2.34-.61-.91.11-1.82.5-2.37.98-.23.22-.41.47-.51.74v.03c-.03.17-.02.31.02.45.1.25.34.49.75.7.38.16.84.23,1.27.24.39,0,.77-.03,1.09-.12.02,0,.03-.01.05-.02ZM265.73,74.09s0,0,0-.02h0s.01-.02.02-.02c.02-.02.05-.03.07-.04.08-.03.16-.06.24-.08.03-.01.07-.02.11-.03.01,0,.03,0,.04-.01.06-.01.12-.03.18-.04,0,0,.01,0,.02,0,.33-.05.68-.03.95.12,0,0,0,0,0,0,.14.06.23.15.27.26,0,0,0,0,0,.01.03.06.03.14,0,.21-.02.11-.09.22-.19.3-.04.04-.09.06-.14.08-.02,0-.03.02-.05.02,0,0-.01,0-.02,0,0,0,0,0,0,0,0,0,0,0,0,0-.02,0-.05,0-.07-.01-.02-.01-.05-.03-.08-.04-.14-.06-.3-.14-.47-.24-.22-.11-.45-.23-.65-.33-.09-.04-.16-.08-.21-.12,0,0,0,0,0,0,0,0,0,0,0,0h0s0-.02,0-.03Z"/>
  <path class="cls-2" d="M266.85,71.99c.19-.12.37-.23.53-.32.04-.03.08-.07.09-.11,0,0,0,0,0,0,0,0,0-.01,0-.02,0-.01,0-.02,0-.03,0,0,0-.01-.01-.02,0,0,0,0,0-.01,0,0-.01-.01-.02-.02-.01-.01-.02-.02-.04-.03-.05-.03-.09-.06-.14-.08-.14-.08-.3-.16-.45-.2-.26-.07-.46.12-.69.25-.02,0-.03.02-.05.03-.13.08-.26.16-.39.24-.22.14-.43.28-.65.39-.06.03-.12.06-.17.09-.03.02-.06.02-.09.02,0,0,0,0,0,0,0,0,0,0,0,0,0,0-.02,0-.03,0-.07,0-.12-.06-.15-.12-.03-.04-.05-.08-.06-.13-.08-.19-.19-.34-.34-.45,0,0-.01,0-.02-.01-.02-.01-.04-.03-.06-.04-.03-.02-.06-.04-.09-.05,0,0,0,0-.01,0-.42-.21-1.01-.23-1.64-.12-.8.15-1.64.52-2.2.93-.34.26-.59.54-.69.82,0,.02,0,.03-.01.05,0,.02,0,.03-.01.05-.05.3.07.6.33.81.18.14.42.24.69.3.05.01.1.02.16.03.1.01.2.01.3.02.12,0,.23,0,.33.02,0,0,.01,0,.02.01,0,0,.01,0,.02,0,0,0,0,0,0,.01,0,0,0,.01.01.02,0,0,0,0,0,0,0,0,0,0,0,0,0,.02,0,.04,0,.06,0,0,0,0,0,0,0,.03,0,.06,0,.09,0,.07.04.13.1.18.05.04.12.08.18.11.04.02.08.04.12.06,0,0,0,0,.01,0,.12.05.24.08.31.08.01,0,.03,0,.04,0,.21-.12.46-.26.74-.43.62-.38,1.5-.91,2.36-1.44.65-.4,1.25-.77,1.69-1.03ZM263.77,72.58c-.08.18-.29.4-.68.65h-.02c-.07.05-.14.09-.22.13-.29.16-.61.27-.93.31-.28.04-.56.03-.79-.09-.03-.01-.05-.02-.08-.03-.05-.03-.09-.06-.12-.1,0,0,0,0,0,0,0,0,0-.01-.01-.02,0-.01-.02-.02-.03-.04-.05-.08-.07-.17-.07-.27,0-.01,0-.03,0-.04,0,0,0-.02,0-.03.01-.09.05-.18.11-.25h0s0-.01,0-.01h0s0-.02.01-.02c.02-.02.03-.03.05-.05.02-.01.03-.03.05-.04.24-.2.53-.36.83-.47.46-.18.91-.24,1.26-.21.42.03.79.21.6.58Z"/>
  <path class="cls-2" d="M276.46,71.72c.32-.19.58-.35.77-.46.05-.03.09-.06.13-.08,0,0,0,0,.01-.01,0,0,.01-.01.02-.02,0,0,0,0,0,0,0-.01,0-.02,0-.04,0-.02-.02-.05-.05-.07-.06-.04-.13-.08-.2-.12-.09-.05-.19-.1-.29-.14,0,0,0,0-.01,0-.09-.04-.17-.07-.24-.09,0,0-.01,0-.02,0,0,0-.02,0-.02,0-.06,0-.13.02-.21.05-.06.03-.13.08-.22.13-.07.05-.14.09-.21.13-.27.16-.59.35-.94.56-.8.48-1.88,1.13-2.35,1.41-.01,0-.02.01-.04.02,0,0-.02.01-.02.02,0,0-.01.01-.02.02,0,0,0,0,0,0-.02.02-.03.05-.02.07,0,0,0,.02,0,.02,0,0,0,0,0,0,0,0,.01.02.02.02.04.04.09.08.16.11.04.02.09.04.13.07.02,0,.04.02.05.03,0,0,0,0,.01,0,.08.04.18.09.27.13.01,0,.03.01.04.01,0,0,.02,0,.03,0,.09.02.18.02.28-.02.01,0,.02,0,.03-.01h.02c.2-.13.44-.27.69-.42.63-.38,1.39-.83,2.02-1.21.06-.03.11-.07.17-.1Z"/>
  <path class="cls-2" d="M272.01,75.49s-.04-.02-.05-.03c0,0,0,0-.01,0,0,0,0,0-.01,0-.13-.06-.34-.09-.54-.11-.15,0-.3.01-.45.01,0,0-.02,0-.02,0-.04,0-.08,0-.12,0,0,0,0,0,0,0-.02,0-.03,0-.04-.02,0,0,0,0,0,0-.02-.01-.01-.03,0-.05,0-.02.02-.03.04-.05.02-.03.05-.06.07-.1,0,0,0-.01.01-.02,0,0,0-.02.01-.02,0,0,0-.02,0-.03,0,0,0-.02,0-.02,0,0,0-.02,0-.02,0,0,0,0,0-.01-.01-.05-.06-.09-.1-.12-.12-.07-.25-.15-.39-.21,0,0-.02,0-.02,0-.02,0-.04-.01-.06-.02-.02,0-.04-.01-.06-.01-.01,0-.03,0-.04,0-.02,0-.03,0-.05,0-.02,0-.04,0-.06,0,0,0-.02,0-.02,0-.03,0-.06.02-.09.03-.26.17-.68.42-1.16.69-.7.41-1.54.9-2.13,1.27-.24.16-.44.29-.57.4,0,0,0,0,0,0,0,0,0,.02,0,.03,0,0,0,0,0,0,.04.07.19.15.26.19.12.06.25.13.37.17,0,0,0,0,0,0,.02,0,.04.01.07.02.01,0,.03,0,.04,0,.01,0,.02,0,.03,0,.02,0,.05,0,.07,0,0,0,0,0,0,0,.03,0,.05,0,.08-.01,0,0,0,0,0,0,.03,0,.05-.02.08-.03,0,0,0,0,0,0,.05-.02.1-.05.14-.07.13-.07.25-.15.38-.23.28-.17.57-.34.85-.51.05-.03.1-.06.15-.09.1-.07.21-.13.31-.19.26-.15.54-.26.83-.33.29-.07.6-.09.9-.04.11.02.23.04.34.08.02,0,.04,0,.06.01,0,0,.01,0,.02,0,.05,0,.1,0,.16,0,.02,0,.04,0,.06,0,0,0,.01,0,.02,0,.09-.01.19-.04.27-.09.09-.05.19-.1.27-.16.19-.14.19-.25.09-.32Z"/>
  <path class="cls-2" d="M270.12,77.74s-.07-.07-.14-.1c-.01,0-.03-.01-.04-.02h-.03c-.07-.05-.15-.08-.23-.12-.14-.06-.28-.12-.42-.15,0,0-.02,0-.02,0-.03,0-.05,0-.08,0-.01,0-.03,0-.04,0-.07,0-.15.02-.22.05-.02,0-.04.02-.06.03-.07.04-.15.08-.22.12,0,0,0,0-.01,0-.09.06-.17.11-.26.15-.04.03-.1.06-.17.09-.16.1-.2.15-.09.23,0,0,0,0,.01,0,.09.05.16.08.23.12.08.04.19.08.31.14.04.02.08.03.11.05.27.08.44.04.73-.12.05-.03.1-.06.15-.09.05-.05.15-.09.24-.14.03-.02.07-.04.11-.06h.02s.04-.04.06-.05c.05-.04.07-.07.07-.11,0,0,0,0,0,0,0,0,0-.01,0-.02Z"/>
  <path class="cls-2" d="M280.03,72.44s-.02-.02-.02-.03c-.09-.09-.2-.17-.31-.23-.01,0-.03-.01-.04-.02,0,0,0,0-.01,0-.35-.18-.76-.28-1.18-.32-.05,0-.09,0-.14,0,0,0,0,0,0,0-.7-.03-1.46.11-2.11.4,0,0-.02,0-.03.01-.03.01-.05.03-.08.04-.03.01-.06.03-.09.04,0,0-.01,0-.02.01-.43.22-.79.51-1.04.86,0,0-.01.02-.02.03-.05.08-.1.17-.13.26-.04.15-.05.31-.01.46.05.15.12.28.21.39.01.01.02.03.03.04,0,0,.01.01.02.02.23.22.52.37.84.46.38.1.8.11,1.15.1.07,0,.17-.01.28-.02.32-.04.63-.12.89-.22.12-.06.16-.14.09-.23-.02-.02-.04-.04-.06-.05,0,0,0,0-.01,0,0,0-.02-.01-.03-.02-.07-.05-.18-.09-.33-.14h0s-.06-.02-.08-.02c-.2-.04-.4-.02-.6,0-.11.01-.22.03-.32.03-.11,0-.22-.01-.33-.05-.04-.01-.09-.03-.13-.05-.01,0-.02-.01-.03-.02-.02-.01-.04-.02-.06-.04-.02-.01-.04-.03-.06-.04-.08-.06-.14-.12-.17-.19,0,0,0,0,0,0,0,0,0,0,0,0-.06-.18,0-.36.12-.52,0,0,0,0,0,0,.01-.02.03-.03.05-.05,0-.01.02-.02.03-.03.01-.01.02-.02.03-.03.02-.02.04-.03.06-.05,0,0,.01,0,.02-.01.03-.02.05-.04.08-.06,0,0,0,0,0,0,.24-.18.55-.32.88-.42,0,0,0,0,0,0,.04-.01.08-.03.13-.04,0,0,.02,0,.03,0,.04,0,.07-.02.11-.03.01,0,.03,0,.04,0,.03,0,.06-.01.09-.02.02,0,.04,0,.06,0,.02,0,.05,0,.07-.01.02,0,.05,0,.07,0,.02,0,.04,0,.06,0,.03,0,.05,0,.08,0,.02,0,.03,0,.05,0,.03,0,.06,0,.08,0,.01,0,.03,0,.04,0,.03,0,.05,0,.08,0,.01,0,.02,0,.03,0,.03,0,.05,0,.08.01.01,0,.02,0,.03,0,.02,0,.05.01.07.02.01,0,.02,0,.03,0,.02,0,.04.01.06.02.01,0,.02,0,.03.01.02,0,.03.02.05.03.01,0,.02.01.03.02.01,0,.03.02.04.03,0,0,.02.02.03.03.01.01.02.02.03.03,0,.01.02.02.02.03,0,.01.01.02.02.04,0,.01.01.03.02.04,0,.01,0,.03.01.04,0,0,0,.01,0,.02,0,.01,0,.02,0,.03,0,0,0,.01,0,.02,0,0,0,.02,0,.02,0,.07.02.13.03.2.03.1.09.2.18.27.04.03.07.05.11.08,0,0,0,0,0,0,.01,0,.03.01.04.02.03.01.06.03.09.04.03.01.05.02.08.03.16.04.32.02.45-.07,0,0,0,0,0,0,.02-.01.04-.02.05-.04.02-.01.03-.03.05-.05,0,0,0,0,.01-.01.02-.03.04-.06.06-.09l.02-.02s.02-.03.03-.05c.01-.02.02-.05.03-.07.03-.05.04-.1.05-.16.04-.23-.06-.46-.22-.64,0,0,0-.01-.01-.02Z"/>
  <path class="cls-2" d="M259.07,59.05c.1.08.21.16.34.24.01,0,.03.02.04.02.06.03.12.06.19.09.05.02.09.04.14.06.04.02.08.03.12.05.07.02.13.05.2.07.03,0,.06.02.09.03.08.02.16.04.23.06.03,0,.05.01.08.02.08.02.16.03.24.04.03,0,.06,0,.09.01.08,0,.15.02.23.02.04,0,.07,0,.11,0,.07,0,.13,0,.2,0,.05,0,.1,0,.14,0,.05,0,.11,0,.16,0,.06,0,.12,0,.18-.01.04,0,.09,0,.13-.01.07,0,.14-.02.21-.03.03,0,.06-.01.1-.02.08-.01.16-.03.23-.04.02,0,.05-.01.07-.02.08-.02.17-.04.25-.06.02,0,.05-.01.07-.02.08-.02.16-.04.24-.07.03,0,.07-.02.1-.03.07-.02.14-.04.21-.07.1-.03.2-.07.3-.11,0,0,0,0,0,0,.31-.12.61-.27.88-.42.22-.12.45-.27.67-.45.3-.24.56-.52.7-.83.01-.03.03-.07.04-.1,0,0,0,0,0,0,.06-.19.08-.39.02-.61-.01-.06-.03-.11-.06-.17-.01-.02-.02-.04-.03-.07,0,0,0,0,0-.01-.11-.19-.26-.36-.45-.51,0,0,0,0-.01,0-.05-.04-.11-.08-.17-.12-.03-.02-.05-.03-.08-.05-.03-.02-.07-.04-.1-.06-.63-.32-1.47-.46-2.23-.41-.11,0-.22.02-.32.04h-.03c-.13.02-.27.04-.41.07,0,0,0,0,0,0-.01,0-.03,0-.05,0-.54.11-1.14.33-1.7.61-.91.47-1.71,1.13-1.83,1.81-.05.39.13.75.46,1.04ZM259.98,57.99s0-.01,0-.02c0-.06.03-.11.05-.17.1-.2.28-.39.51-.57,0,0,.02-.02.03-.02,0,0,0,0,0,0,.61-.49,1.54-.87,2.38-.97,0,0,0,0,0,0,.04,0,.09,0,.13-.01.56-.05,1.07.04,1.38.33,0,0,0,.01.01.02,0,0,0,0,0,0,.02.02.05.05.07.07,0,0,0,0,0,.01.05.07.1.14.13.22,0,0,0,0,0,0,.01.03.02.07.03.1.04.16.03.33-.04.48-.04.09-.09.17-.17.24-.23.25-.57.5-.97.72-.68.37-1.52.65-2.23.63-.41,0-.76-.09-1.01-.29,0,0,0,0-.01,0-.02-.02-.04-.03-.05-.05,0,0,0,0,0,0-.15-.16-.28-.42-.26-.65,0,0,0-.01,0-.02v-.02Z"/>
  <path class="cls-2" d="M260.31,68.59c-.02-.17-.06-.32-.12-.46,0,0,0,0,0-.01-.01-.03-.02-.06-.04-.08,0-.02-.02-.03-.02-.05,0-.02-.02-.03-.03-.05-.01-.02-.03-.05-.04-.07,0,0,0-.02-.01-.02-.02-.03-.04-.06-.06-.09,0,0,0,0,0,0-.17-.22-.41-.4-.68-.54,0,0,0,0,0,0-.04-.02-.07-.04-.11-.05,0,0-.01,0-.02,0-.03-.01-.07-.03-.1-.04-.01,0-.02,0-.04-.01-.03-.01-.06-.02-.09-.03-.02,0-.04-.01-.06-.02-.02,0-.05-.02-.07-.02-.02,0-.05-.01-.08-.02-.02,0-.04-.01-.06-.01-.03,0-.06-.01-.1-.02-.01,0-.03,0-.04,0-.04,0-.08-.02-.12-.02,0,0-.02,0-.03,0-.04,0-.09-.01-.14-.02,0,0,0,0-.01,0-.05,0-.1-.01-.15-.02,0,0,0,0,0,0-.2-.02-.41-.03-.63-.02,0,0,0,0,0,0-.05,0-.09,0-.14,0-.01,0-.02,0-.03,0-.04,0-.07,0-.11,0-.02,0-.04,0-.06,0-.02,0-.05,0-.07,0-.03,0-.07,0-.1,0,0,0-.02,0-.03,0-1.4.15-2.86.75-3.63,1.63-.02.02-.03.04-.05.06,0,0,0,0,0,0-.23.28-.39.59-.44.92.08.54.36.93.77,1.21.61.4,1.5.54,2.43.47.03,0,.06,0,.09,0,.02,0,.03,0,.05,0,1.34-.14,2.75-.7,3.55-1.52.31-.32.53-.68.61-1.08ZM258.81,68.95c-.12.23-.34.45-.67.65-.12.08-.25.15-.4.22-.38.21-.81.39-1.24.51-.53.15-1.07.19-1.54.03,0,0-.02,0-.02,0-.24-.07-.48-.21-.63-.4,0,0-.02-.02-.03-.03-.08-.11-.12-.21-.13-.32,0-.01,0-.02,0-.03,0,0,0-.02,0-.02,0-.15.04-.31.16-.47,0,0,0-.01.01-.02.23-.32.66-.61,1.13-.85,0,0,0,0,0,0,.05-.03.1-.05.15-.07.02,0,.03-.01.05-.02.03-.01.06-.03.1-.04.06-.03.12-.05.18-.08,0,0,0,0,0,0,.32-.13.63-.23.9-.28h.03s.03-.01.05-.01c0,0,0,0,0,0,0,0,0,0,0,0,.39-.07.74-.07,1.03-.01,0,0,0,0,.01,0,.03,0,.06.01.09.02.41.09.68.29.79.54,0,0,0,0,0,0,0,.02.02.04.02.06,0,.01.01.03.01.04,0,0,0,0,0,.01.05.18.02.38-.09.59Z"/>
  <path class="cls-2" d="M260.81,71.03s.08,0,.11,0c.21,0,.43.05.65.12.07,0,.15,0,.22,0,.06-.01.12-.03.18-.06.01,0,.02,0,.03-.02.11-.06.25-.14.34-.22,0,0,0,0,0,0,0,0,0,0,0,0,.06-.06.09-.12.09-.17,0,0,0,0,0,0,0,0,0,0,0-.01,0,0,0-.02-.01-.02,0,0,0,0,0,0,0,0-.01-.01-.02-.02,0,0,0,0-.01-.01,0,0-.01-.01-.02-.02,0,0-.02-.01-.02-.02,0,0,0,0-.01,0-.01,0-.03-.01-.04-.02,0,0,0,0,0,0-.03-.02-.07-.03-.1-.04-.03-.01-.06-.02-.09-.03-.01,0-.03,0-.04-.01-.03,0-.07-.01-.1-.02,0,0,0,0,0,0-.03,0-.07,0-.1,0-.02,0-.04,0-.05,0-.01,0-.02,0-.04,0-.13,0-.27.01-.41.02-.05,0-.09,0-.14,0-.02,0-.04,0-.05,0,0,0,0,0-.01,0,0,0-.01,0-.02,0,0,0,0,0,0,0,0,0,0,0,0,0-.01,0-.01-.02-.01-.03,0-.04.07-.1.11-.16,0,0,.01-.02.02-.03,0,0,0,0,0,0,.01-.03.03-.05.03-.08,0,0,0,0,0,0,0-.01,0-.02,0-.03,0,0,0,0,0-.01,0,0,0-.01,0-.02,0,0,0-.01-.01-.02,0,0,0,0,0,0-.02-.02-.04-.05-.08-.07-.22-.13-.48-.3-.72-.25-.01,0-.02,0-.03,0,0,0-.02,0-.02,0-.04.01-.07.03-.1.06,0,0-.01,0-.02.01-.26.16-.72.43-1.23.74-.63.38-1.34.81-1.86,1.12-.27.16-.48.29-.62.38,0,0,0,0,0,0-.02.01-.03.02-.03.03,0,0,0,0,0,.01,0,0,0,.01,0,.02,0,0,0,.02,0,.03,0,0,0,0,0,0,0,.03.02.05.04.08,0,0,0,0,0,0,0,0,.02.02.03.03,0,0,.02.01.03.02,0,0,0,0,.01.01,0,0,.02.01.02.02.01,0,.02.01.03.02,0,0,.02,0,.02.01,0,0,0,0,0,0,.1.05.21.11.31.15,0,0,.02,0,.02,0,.01,0,.02,0,.03.01.11.04.23.06.34.05.01,0,.02,0,.03,0,0,0,.01,0,.02,0,.03,0,.07-.02.1-.03.23-.13.46-.27.7-.42.79-.5,1.65-1.02,2.5-1.05.01,0,.02,0,.03,0Z"/>
  <path class="cls-2" d="M207.68,55.33l-.02-.02c-1.43-1.95-3.92-2.87-6.3-2.79-1.11.04-2.22.3-3.21.77-1.15.45-1.26,1.83-.6,2.72h.41s-.09.05-.13.08c.33.13.7.2,1.14.33.83.2,1.84.83,2.45,1.48.51.51.96,1.23,1.67,1.54,1.41.71,2.46,1.16,3.95.29.84-.47,1.44-1.19,1.72-2-.05-.61-.28-1.19-.69-1.69-.1-.24-.23-.48-.4-.71Z"/>
  <path class="cls-2" d="M316.54,29.35v-.03c-6.44-26.29-41.72-25.44-61.95-23.5-.54-.04-1.07-.14-1.6-.38-10.01-5.78-21.36-1.02-31.86.49-22-.89-33.67,2.06-49.13,18.34-1.56.79-3.45,1.08-5.16,1.42-9.88,1.46-24.21,8.7-21.71,21.03,1.61,6.83,7.67,10.88,12.3,15.78,1.02,1.08,1.99,2.18,2.82,3.42,13.12,19.61,41.1,18.46,61.09,11.72,2.02-.74,3.82-2.06,5.76-2.87,1.12-.46,2.36-.82,3.62-.69,2.55.41,4.6,2.15,6.94,3.12,3.14,1.44,7,1.44,10.18,2.66.27.1.56.21.83.34,2.54,1.23,3.65,3.92,6.37,4.96,2.07.8,4.27,1.14,7.26,1.32,9.64.45,27.31-2.07,29.75-9.71.25-1.02.19-2.14-.26-3.38-.12-.33-.28-.68-.29-1.03-.02-.65.31-1.27.81-1.72,13.91-8.46,28.62-23.45,24.24-41.28ZM271.95,25.92s0,0,0,0c4.23,4.47,5.2,11.27,3.18,16.99h0c2.02-5.71,1.05-12.52-3.18-16.99,0,0,0,0,0,0-.13-.14-.13-.14,0,0ZM270.25,24.4c.13.1.13.1,0,0-.02-.02-.05-.03-.07-.05.02.02.05.03.07.05ZM269.77,24.05c-.09-.06-.19-.12-.28-.18.09.06.19.12.28.18ZM269.27,23.72c-.11-.07-.23-.14-.35-.21.12.07.23.14.35.21ZM268.74,23.42c-.13-.07-.26-.14-.39-.21.13.07.26.14.39.21ZM268.2,23.12c-.14-.07-.29-.14-.43-.21.15.07.29.14.43.21ZM267.64,22.85c-.15-.07-.31-.14-.47-.21.16.07.32.14.47.21ZM267.07,22.6c-.17-.07-.33-.14-.5-.2.17.06.34.13.5.2ZM266.48,22.37c-.18-.07-.35-.13-.53-.19.18.06.36.12.53.19ZM262.08,21.34c-.1-.01-.2-.02-.3-.03.1,0,.2.02.3.03ZM248.02,25.86c2.24-2.31,5.32-3.96,9.21-4.46.06,0,.11-.01.17-.02.06,0,.11-.01.17-.02.75-.09,1.5-.13,2.27-.12h.03s0,0,0,0c.86,0,1.7.04,2.51.14.04,0,.09,0,.14.02,1.04.13,2.04.35,2.99.65.14.04.28.09.43.14.16.05.31.11.46.17,2.04.75,3.86,1.88,5.36,3.41.05.05.1.1.15.15.49.51.94,1.06,1.35,1.64.04.06.09.12.13.19.03.05.07.1.11.15,1.29,1.92,2.15,4.2,2.48,6.75,0,.05.01.1.02.16.02.13.03.25.04.38.01.14.03.28.04.42,0,.06,0,.11.01.17,0,.11.01.23.02.34,0,.08,0,.17,0,.25.03,1.03-.02,2.06-.16,3.08,0,0,0,.02,0,.03-.02.11-.03.23-.05.34-.37,2.33-1.16,4.46-2.32,6.3-1.78,2.88-4.34,4.92-7.33,6.05-2.58,1-5.55,1.34-8.74.86-.05,0-.09-.01-.14-.02.05,0,.09.01.14.02-.04,0-.08-.01-.11-.02-2.88-.31-5.39-1.32-7.45-2.82-3.39-2.4-5.42-5.98-6.11-9.82-.77-3.97-.11-8.29,2.25-12.06.57-.89,1.22-1.7,1.94-2.42ZM263.8,52.9c5.17-1.06,8.88-4.48,10.81-8.68,0,0,0,0,0,0,.08-.17.08-.17,0,0,0,0,0,0,0,0-1.92,4.2-5.63,7.62-10.81,8.68ZM267.47,57.28c-.02-.05-.03-.1-.05-.14.02.04.03.09.05.14ZM212.55,34.41c-.28-.12-.62-.26-.62-.26h0s-.02,0-.03-.01c-1.1-.47-2.49-.92-3.9-1.15-1.98-.31-3.99-.16-5.28.93-.05.04-.12.11-.16.15-.02.02-.05.04-.07.06-.52.53-.88,1.27-1.05,2.01,0,0,0,.02,0,.03-.02.08-.04.15-.05.23,0,.04-.02.08-.03.12-.13.67-.14,1.26-.05,1.79,0,0,0,.02,0,.02.01.06.02.12.04.17,0,.04.02.08.03.12,0,.02.01.04.02.07.32,1.08,1.1,1.91,2.07,2.6.78.54,1.7,1.01,2.66,1.48.06.03.13.06.19.09.15.07.3.14.45.21.28.14.57.27.85.41.09.04.18.08.27.12.3.14.6.27.9.41.29.13.58.25.87.38.09.04.18.08.27.12,1.43.61,2.89,1.2,4.34,1.81.59.25,1.18.49,1.76.75,0,0,.01,0,.02.01,0,0,0,0,0,0,0,0,0,0,0,0,.02.01.03.02.04.04,0,0,0,0,0,0,0,.01.02.02.02.03,0,0,0,.01,0,.02,0,0,0,.01,0,.02,0,.06-.02.12-.07.18,0,0,0,0,0,0-.01.01-.02.03-.04.04-.23.25-.45.5-.68.76-.02.02-.03.04-.05.06-.1.11-.19.22-.29.33,0,0,0,0,0,0-.11.13-.21.25-.32.38-.98,1.35-1.92,2.81-2.7,4.34-.86,1.69-1.52,3.48-1.8,5.32,0,.05-.01.09-.02.14,0,.04-.01.08-.02.13-.1.79-.13,1.58-.08,2.38.07.36.2.72.36,1.07.18.39.4.78.56,1.17.14.3.2.54.22.78,0,.04.01.08.01.12,0,.14-.02.29-.06.45-.04.21-.1.43-.17.7-.02.14-.05.24-.1.31-.04.07-.09.12-.16.13,0,0,0,0,0,0-.05.02-.1.03-.17.03,0,0,0,0,0,0,0,0,0,0,0,0-.05,0-.09,0-.15,0-.04,0-.08,0-.12,0-.15,0-.3-.02-.45-.04-.22-.02-.43-.04-.65-.03-.03,0-.06,0-.09,0-.02,0-.03,0-.05,0-.04,0-.08,0-.12.02-.06.01-.13.03-.19.04-.06.02-.12.04-.17.06-.11.04-.21.09-.32.14-.12.07-.24.14-.35.21,0,0,0,0,0,0-.86.53-2.09.96-3.52,1.29-2.27.55-4.86.77-7.33.72-1.62-.01-3.23-.15-4.77-.44-.17-.03-.33-.06-.5-.09-.07-.02-.15-.04-.22-.05-.1-.02-.21-.04-.31-.07-.68-.18-1.35-.39-2-.63-1.99-.72-3.87-1.71-5.63-2.9-.01,0-.02-.02-.03-.02-.1-.07-.2-.14-.31-.21-.04-.03-.09-.06-.13-.09-.07-.05-.14-.1-.21-.15-.08-.05-.15-.11-.22-.16-.04-.03-.08-.06-.12-.09-.1-.08-.21-.16-.31-.24-.01,0-.03-.02-.04-.03-1.14-.88-2.23-1.85-3.26-2.88-.02-.02-.03-.03-.05-.05-.06-.06-.12-.13-.18-.19-.05-.05-.1-.1-.14-.15-.01-.01-.02-.03-.04-.04,0,0-.02-.02-.03-.03-4.39-4.54-6.7-9.53-7.36-14.44-.03-.21-.06-.41-.08-.62-.83-6.93,1.56-13.34,5.75-18.26,1.48-1.74,7.61-9.45,17.27-9.45,17.83,0,20.81,14.99,21.08,15.65.1.24.19.74.58,1.58.06.13.62,1.32.46,1.74-.01.03-.04.11-.11.14-.15.07-.35-.07-.43-.12-.85-.57-2.79-1.61-3.09-1.74ZM228.28,48.67c.05.07.12.14.2.21.24.23.56.47.89.69.28.19.53.35.66.45,0,0,.01,0,.02.01.03.02.06.04.08.06.08.06.16.12.25.18.04.03.09.06.13.09.13.09.26.19.38.28h0c.32.24.64.48.96.71,0,0,0,0,0,0,.14.1.29.2.43.3,0,0,.01,0,.02.01.14.09.28.18.42.27.02.01.04.03.06.04.12.08.25.15.38.23.05.03.09.05.14.08.11.06.23.13.34.18.07.04.15.08.22.12.08.04.15.08.23.12.8.42,1.59.85,2.38,1.29.07.04.13.07.2.11.14.07.27.15.41.22.02.01.04.02.06.04t0,0c.16.09.43.18.43.33h0c-.13.19-.31.33-.49.47-.03.02-.05.04-.08.06-.11.07-.21.14-.31.21-.41.31-.72.76-1.11,1.13-.02.02-.05.04-.07.06-.05.04-.09.09-.13.14-.01.02-.03.03-.04.05,0,0-.01.01-.02.02-.16.21-.26.47-.33.73-.01.06-.02.11-.04.17,0,.03-.01.07-.02.1-.2.88-.76,1.54-1.32,2.22-.11.12-.19.25-.23.39,0,0,0,.01,0,.02,0,0,0,0,0,0-.03.13-.04.26-.03.39,0,.02,0,.05,0,.07.17.63.18,1.24.07,1.84,0,0,0,0,0,0,0,.05-.02.11-.03.16,0,.04-.02.08-.03.11,0,.01,0,.03-.01.04-.29,1.15-1.01,2.22-1.88,3.11-.27.29-.56.56-.85.81-.09.07-.18.13-.28.2-.02.02-.05.04-.07.05-.04.03-.09.05-.14.08-.55.34-1.17.59-1.8.76-.64.17-1.3.26-1.95.24,0,0-.02,0-.03,0-.03,0-.06,0-.08,0-.07,0-.15,0-.22-.01-.1,0-.2-.02-.29-.03,0,0,0,0,0,0-.35-.05-.68-.13-.98-.24-.02,0-.03-.01-.05-.02-.19-.06-.38-.11-.58-.14-.12-.02-.25-.03-.37-.05-.18-.02-.35-.05-.52-.07-.21-.02-.42-.05-.62-.08-.18-.02-.37-.05-.57-.08-.25-.03-.44-.05-.57-.07-.09,0-.18-.03-.22-.06h0s-.04,0-.04,0h.04s0,0,0,0c0,0,0,0,0,0,0,0,0,0,0,0,0,0,0,0,0,0-.01.01-.02.02-.01,0,0,0,0,0,.01-.01-.02-.03-.01-.08.05-.15.05-.05.09-.1.14-.15.01-.01.02-.03.03-.04.03-.04.06-.08.1-.12,0,0,.01-.02.02-.03.6-.81.88-1.81,1.04-2.8.11-.63.16-1.31.22-1.94.06-.34.08-2.16.56-2.32.03-.03.06-.06.1-.08h0s-.05.05-.08.07c0,0,.02,0,.03,0,.09-.02.18.01.29.13,0,0,0,0,0,0,0,0,.01.02.02.03.01.01.02.03.03.04.02.03.04.06.06.1.03.04.05.09.08.14.01.03.02.05.03.08.02.05.04.1.06.15.05.13.09.25.14.37.22.6.43,1.15.88,1.56,0,0,0,0,.01.01.03.03.06.05.09.08.14.11.3.21.48.31,0,0,.01,0,.02,0,.05.02.09.05.15.07.05.03.1.05.16.08.14.06.29.12.44.19.18.08.35.17.48.29,0,0,0,0,0,0,.01.01.03.03.04.04.02.02.04.04.05.07,0,0,0,0,0,0,.04.06.06.12.07.18,0,0,0,0,0,0,0,.02,0,.05,0,.07,0,.05,0,.1-.02.15-.01.02-.02.04-.04.06,0,0,0,0,0,0,0,0,0,0,0,0-.18.22-.58.32-.96.38-.19.03-.37.06-.52.09-.07.01-.14.03-.21.04-.71.18-1.22.45-1.4.75h0c.07-.12.17-.23.29-.32-.23.15-.39.35-.42.59,0,.01,0,.03,0,.04,0,.14.03.3.13.48.27.41.7.69,1.18.88-.37-.15-.68-.34-.9-.55-.09-.08-.04-.04.02.01.43.38,1.15.69,1.98.82.37.05.73.06,1.06.05.23,0,.45-.03.67-.07.04,0,.09-.02.13-.03.86-.19,1.64-.63,2.29-1.23.41-.39.77-.84,1.06-1.33.16-.28.31-.57.42-.87-.07.18-.15.35-.24.51-.05.09-.06.12-.01.01.31-.65.54-1.31.58-1.99,0-.02,0-.04,0-.07,0-.02,0-.04,0-.06,0-.01,0-.02,0-.03-.02-.85-.31-1.64-.76-2.41-.03-.06-.07-.11-.1-.17,0,0-.01-.02-.02-.03-.33-.53-.73-1.04-1.11-1.52-.26-.31-.5-.61-.75-.92-.3-.35-.66-.76-.93-1.16-.18-.24-.33-.5-.39-.79,0,0,0,0,0,0,0-.05-.02-.1-.02-.15,0-.06.02-.11.03-.15,0-.01,0-.02.01-.03,0,0,0-.02.01-.02,0,0,0-.02.01-.02,0,0,0,0,.01,0,.06-.07.16-.09.26-.08.17,0,.35.12.52.25.11.08.2.16.25.23,0,0,0,0,0,0,.04.04.07.07.1.11.12.14.24.28.37.41.05.06.1.12.15.17.04.04.08.09.12.13.5.57.98,1.14,1.49,1.71.17.19.36.43.58.63.25.23.52.39.79.4,0,0,.01,0,.02,0,.02,0,.04,0,.06,0,.13,0,.26-.05.4-.14,1.04-1.07,1.07-2.23.54-3.41-1.24-2.7-5.43-5.38-7.28-7.01-.63-.54-1-.95-.92-1.21.02-.13.15-.22.36-.27.26-.08.68-.11,1.29-.09.27,0,.54.02.77.03.04,0,.08,0,.12,0,.02,0,.04,0,.06,0,.04,0,.09,0,.13,0,.05,0,.1,0,.15,0,.02,0,.05,0,.07,0,.05,0,.11,0,.16-.01.03,0,.05,0,.08,0,.05,0,.09-.01.14-.02.04,0,.08-.01.11-.02.04,0,.08-.01.11-.02.04,0,.09-.02.13-.03.1-.02.2-.05.3-.08.11-.04.23-.08.35-.13.15-.07.29-.12.42-.17.16-.07.33-.12.49-.16,0,0,0,0,.01,0,.01,0,.02,0,.03,0,.17-.04.32-.04.45-.01.03,0,.06.02.08.03,0,0,.02,0,.02,0,.04.02.08.04.12.07.11.07.2.16.29.29.05.08.09.16.12.24.09.18.18.4.28.67.38.79.94,1.5,1.63,2.03,0,0,0,0,.01,0,.08.06.17.12.25.18,0,0,.01,0,.02.01.09.06.17.11.26.16,0,0,0,0,.01,0,.09.05.18.1.28.15,0,0,0,0,0,0,.29.14.6.26.92.34,0,0,0,0,0,0,.1.03.21.05.31.07.01,0,.02,0,.04,0,.1.02.2.03.31.04.1,0,.21.02.31.02.16,0,.33-.03.49-.03.07,0,.06,0,.02,0,.04,0,.08,0,.12,0,.05,0,.1.01.15.03.03.01.05.02.07.04,0,0,0,0,0,0,0,0,0,0,0,0,0,0,0,0,0,0,.06.04.1.1.11.18.02.3-.22.51-.48.62-.04.02-.07.03-.11.04-.03,0-.05.02-.08.02-.11.03-.22.06-.33.07,0,0,0,0,0,0-.05,0-.11.01-.16.02,0,0-.01,0-.02,0-.05,0-.09,0-.14,0-.02,0-.03,0-.05,0-.03,0-.06,0-.09,0-.7-.03-1.41-.32-2.04-.69-.54-.29-1.07-.59-1.52-1.02-.73-.62-1.1-1.58-1.93-2.05-.11-.05-.23-.08-.36-.1-.14-.02-.29-.01-.43,0-.23.03-.47.08-.7.14-.18.05-.41.09-.62.16-.18.07-.33.15-.4.26-.07.17,0,.35.13.54ZM224.15,66.47h0c-.24-.23-.45-.61-.31-.94.01-.04.05-.11.05-.11-.18.36,0,.78.26,1.05ZM237.16,50.37s0,0,0,0c.03,0,.06,0,.09,0s.05,0,.08.02c-.02,0-.05-.01-.08-.02s-.06,0-.09,0h0ZM239.07,48.2v.02s0,.02,0,.03c-.01.19-.12.39-.25.53,0,0-.02.01-.02.02,0,0-.02.01-.02.02,0,0,0,0,0,0-.35.34-.89.25-1.35-.09-.02-.01-.04-.03-.06-.04-.01,0-.02-.02-.04-.03-.04-.03-.09-.07-.13-.11-.09-.09-.18-.18-.25-.28,0,0,0,0,0,0,0-.01-.02-.02-.03-.03,0,0,0,0,0-.01-.01-.02-.03-.04-.04-.05,0,0,0,0-.01-.01h0s0,0,.01.01c0,.01.02.03.03.04-.02-.03-.04-.05-.05-.08,0,0,0,.01.01.02,0-.01-.01-.02-.02-.04,0-.01-.02-.03-.02-.04-.03-.04-.05-.09-.07-.13,0,0,0-.02-.01-.02-.02-.03-.03-.06-.05-.1-.14-.31-.2-.66-.13-1,0,0,0,0,0-.01h0s0,0,0,0c0-.05.02-.09.04-.14.02-.07.04-.13.07-.2,0,0,0,0,0,0,0,0,0-.02.01-.03,0,0,0-.01,0-.02,0,0,0-.02.01-.03.09-.17.21-.36.37-.47,0,0,.02-.02.02-.02.16-.15.39-.13.52.03.07.08.13.25.16.33,0,0,0,0,0-.01.03.06.05.12.08.18.05.09.1.19.15.29.11.2.24.39.38.56.04.05.09.1.13.15.01.01.02.03.04.04.06.07.12.13.19.19.05.05.1.1.15.14,0,0,.01.01.02.02,0,0,0,0,.01.01.02.02.04.04.07.06.05.04.1.14.09.21,0,.01,0,.02,0,.03,0,.02,0,.04,0,.06ZM228.29,10.65c.11-.03.21-.06.21-.06s.04-.01.09-.02c4.69-1.2,9.43-1.77,12.72-1.68.03,0,.07,0,.1,0,.04,0,.08,0,.11,0,1.75.06,3.06.32,3.7.77,0,0,0,0,0,0,0,0,0,0,0,0h0c.05.03.08.09.09.15,0,0,0,.01,0,.02,0,0,0,0,0,.01.01.06.02.12.02.19,0,.01,0,.03,0,.04,0,0,0,0,0,.01,0,.64.01,1.39.02,2.18.01,1.18.02,2.44.03,3.53,0,.59.01,1.13.02,1.58.01.16.02.34,0,.52-.02.23-.08.47-.23.64-.11.14-.27.23-.49.23-1.66.05-3.62.12-5.66.34-5.46.68-11.21,2.25-13.03,6.42-.65,1.65-.73,3.75-.12,6.03.21.73.49,1.5.84,2.32,0,.02.02.04.03.06.03.06.05.12.08.17.52,1.06,1.29,1.91,2.2,2.51.06.04.11.07.17.11,0,0,0,0,.01,0,1.05.63,2.28.96,3.55.97.26,0,.52-.02.78-.05.32-.03.6-.06.85-.1.06-.01.12-.02.18-.04.02,0,.03,0,.05,0,.39-.09.68-.21.86-.44.35-.44.28-1.14.15-1.89-.01-.06-.02-.12-.04-.18-.03-.13-.05-.27-.07-.41-.03-.2-.07-.39-.09-.59,0-.01,0-.03,0-.04-.04-.22-.11-.43-.21-.62-.04-.07-.09-.12-.14-.17-.23-.21-.55-.24-.95-.2-.29.04-.61.11-.95.15,0,0,0,0,0,0-.04,0-.09.01-.14.02-.22.03-.47.06-.72.06-.01,0-.02,0-.03,0-.03,0-.07,0-.1,0-.02,0-.05,0-.07,0-.02,0-.04,0-.06,0-.03,0-.07,0-.1,0-.01,0-.02,0-.03,0-.04,0-.08,0-.12-.01,0,0-.01,0-.02,0-.04,0-.08-.01-.12-.02,0,0-.01,0-.02,0-.04,0-.08-.02-.11-.03,0,0-.02,0-.02,0-.03-.01-.06-.02-.09-.03-.01,0-.03-.01-.04-.02-.02-.01-.04-.02-.06-.03-.02-.01-.04-.03-.06-.04,0,0-.02-.01-.03-.02-.02-.02-.05-.05-.07-.07,0,0,0,0,0,0-.02-.03-.04-.06-.05-.09,0,0,0,0,0,0,0,0,0,0,0,0-.05-.08-.09-.2-.13-.33-.04-.16-.06-.36-.08-.58-.02-.2-.02-.4-.03-.61-.01-.26-.02-.51-.03-.76-.02-.47-.02-.95-.02-1.42,0-.06,0-.11,0-.17-.09-.74-.05-1.36.07-1.88.25-1.31,1.22-1.95,2.54-2.2,1.48-.3,3.43-.08,5.47.28.72.13,1.44.26,2.12.4.41.03.72.09.95.19.41.14.57.41.58.8,0,.03,0,.06,0,.08,0,.23-.06.51-.15.83-.12.46-.29.92-.47,1.41-.28.79-.6,1.74-.89,2.88,0,.02-.01.04-.02.07-.29,1.2-.5,2.36-.59,3.59-.08,1.11-.06,2.24.04,3.34.16,1.5.46,3.03.81,4.47.25,1.01.53,1.96.76,2.79.21.74.37,1.37.45,1.88.04.27.06.51.05.7,0,.17-.03.33-.09.46-.07.17-.19.31-.36.39-.17.09-.37.13-.59.11-.11-.03-.22-.06-.32-.1-.03-.01-.07-.03-.1-.04t0,0c-.53-.26-1.03-.82-1.48-1.38-.02-.03-.05-.06-.07-.08-.2-.25-.41-.52-.63-.8,0,0,0,0,0,0,0-.01-.02-.02-.02-.03-.08-.11-.16-.21-.24-.32,0,0,0-.01-.01-.02-.09-.12-.18-.24-.27-.36-.09-.11-.17-.23-.26-.34l-.02-.03c-.18-.23-.36-.47-.54-.7-.01-.02-.03-.04-.04-.06-.09-.11-.17-.21-.26-.32,0,0,0-.01-.01-.02-.08-.1-.17-.21-.25-.31-.02-.03-.05-.06-.07-.09-.09-.1-.17-.2-.26-.3-.54-.62-1.11-1.17-1.68-1.58-.52-.35-1.02-.56-1.55-.69-.03,0-.07-.01-.1-.02-.42-.08-.83-.15-1.25-.2-.36-.04-.75-.07-1.18-.1-.11,0-.21-.01-.32-.02-.22-.02-.44-.05-.65-.08-.02,0-.04,0-.07,0-.03,0-.06-.01-.09-.02-.01,0-.02,0-.03,0-.12-.02-.23-.04-.35-.07-.02,0-.05-.01-.07-.02-.09-.02-.19-.04-.28-.07-.34-.08-.67-.18-1-.29-.19-.06-.39-.12-.58-.19,0,0-.02,0-.02-.01-.02,0-.04-.01-.06-.02-.05-.03-.1-.05-.15-.08-.25-.13-.51-.27-.77-.41-.43-.21-.86-.42-1.29-.61-.72-.31-1.46-.61-2.18-.93-.23-.1-.47-.19-.7-.29-.64-.28-1.3-.6-1.96-.93-.25-.13-.5-.25-.75-.39-.16-.08-.31-.16-.46-.24-.2-.1-.39-.16-.54-.29-.01,0-.02-.01-.03-.02h-.01s0-.03-.01-.04c-.02-.02-.04-.05-.06-.07-.16-.31-.38-.75-.64-1.29-3.32-6.93-5.03-10.49-4.25-13.89,0,0,1.66-7.26,14.78-10.69ZM242.45,51.18s0,0,0,0c0-.03,0-.05.02-.06-.02.01-.02.04-.02.06,0,0,0,0,0,0ZM245.47,57.71c-.34.08-.69-.06-.99-.2-1-.48-2.95-1.34-4.13-1.94,0,0,0,0,0,0,0,0-.01,0-.02-.01-.02,0-.03-.02-.05-.02-.09-.05-.13-.09-.13-.13,0,0,0-.01,0-.02,0-.06.15-.14.18-.16.02,0,.04-.02.06-.03,0,0,0,0,.01,0,.05-.02.11-.05.16-.07.03-.01.05-.03.08-.04.06-.03.11-.06.17-.09.06-.03.12-.07.17-.1,0,0,.02-.01.03-.02.07-.05.14-.1.2-.15.02-.01.03-.03.05-.04.04-.03.08-.07.13-.11.71-.65,1.17-1.55,1.18-2.51.01-.35-.12-.67-.11-.83,0-.02,0-.04-.01-.05,0,.01,0,.02.01.04,0-.05.03-.08.08-.09-.03-.01-.05-.02-.05-.02.03,0,.07.01.11.02.1.01.27.08.54.22.02.01.04.02.07.03.52.23,1.03.47,1.55.72.61.28,1.22.57,1.82.86.06.03.12.06.18.08.33.17.71.28.96.57.02.03.03.06.04.1.12.22.15.5.12.8,0,0,0,0,0,0,0,.02,0,.05,0,.07-.04.39-.18.79-.35,1.16-.07.16-.15.3-.23.42,0,0-.01.02-.02.03-.07.11-.15.22-.22.32l-.02.02c-.13.15-.26.3-.4.45-.03.03-.06.06-.09.09,0,0-.02.01-.02.02-.23.22-.49.4-.76.52-.09.04-.19.08-.29.11ZM251.36,62.44s-.05.02-.07.03h-.03s-.07.03-.11.04c-.07.03-.14.06-.2.1-.26.16-.42.42-.52.73,0,0,0,.02,0,.03,0,.02,0,.04-.01.05-.16.63-.1,1.47-.11,2.18,0,.48-.04.9-.21,1.14,0,0,0,0,0,0,0,0,0,0,0,.01,0,0,0,0,0,0,0,0,0,0,0,0-.02.02-.04.04-.06.06,0,0-.01,0-.02.01-.02.01-.03.02-.05.03,0,0,0,0-.01,0-.06.02-.13.02-.2-.01-.03-.01-.05-.04-.07-.06-.01-.01-.02-.03-.03-.04,0,0,0,0,0,0-.02-.04-.04-.08-.05-.14,0,0,0,0,0-.01,0,0,0-.01,0-.02,0-.03,0-.06-.01-.09,0-.01,0-.03,0-.04,0-.03,0-.05,0-.08,0-.03,0-.06,0-.08,0,0,0-.02,0-.03,0-.17,0-.33.02-.5,0-.11.01-.21,0-.31,0-.02,0-.05,0-.07,0-.08,0-.17,0-.25,0-.17,0-.34,0-.5,0-.4,0-.79,0-1.2,0-.22,0-.44.02-.68,0,0,0,0,0,0,0-.19-.02-.37-.08-.54-.06-.14-.15-.27-.24-.39-.1-.11-.2-.22-.29-.33-.04-.05-.08-.09-.12-.14,0,.02.02.03.03.05h0s-.02-.03-.03-.05c-.06-.08-.13-.17-.18-.26-.03-.06-.07-.12-.1-.18-.33-.53-.61-1.09-.98-1.6-.27-.39-.6-.79-1.01-1.03-.01,0-.02-.02-.03-.02-.04-.02-.08-.03-.12-.05.04.01.07.02.11.04,0,0-.01-.01-.02-.02,0,0,0,0,0,0,0,0-.01-.02-.02-.03,0,0,0,0,0,0,0-.01,0-.02,0-.03,0,0,0-.02,0-.02,0,0,0,0,0,0,0,0,0-.01.01-.02,0,0,.01-.01.02-.02,0,0,0,0,.01-.01,0,0,.02-.02.03-.02,0,0,0,0,.01-.01,0,0,0,0,0,0,.01,0,.02-.02.03-.02.22-.16.44-.36.65-.57.02-.02.05-.05.07-.07.02-.02.04-.05.06-.07.27-.3.51-.64.73-.99.05-.09.1-.18.15-.27.02-.05.05-.09.08-.12.06-.07.13-.1.2-.1-.03-.01-.06-.02-.1-.03h0s.07.02.1.03c0,0,0,0,0,0,.05,0,.1,0,.15.02.01,0,.02,0,.03.01.49.16.96.32,1.4.5.77.29,1.45.59,2.08.95.15.08.29.16.42.25.28.17.51.34.72.51.02.01.03.03.05.04.03.02.05.04.07.06.76.65.96,1.27.81,1.84-.01.05-.03.1-.05.15-.02.06-.05.12-.08.19.02-.04.03-.07.05-.11-.19.45-.6.88-1.2,1.29-.03.02-.06.04-.09.06,0,0-.02.01-.02.02-.37.25-.79.47-1.19.66-.11.05-.23.11-.35.16-.01,0-.02,0-.03.01ZM254.15,60.46s0,0,0,0h0s0,0,0,0ZM285.79,68.19c.1-.08.19-.17.26-.26-.08.1-.16.19-.26.26ZM286.34,67.22c-.02.21-.1.43-.24.63.01-.02.03-.04.04-.07-.08.12-.18.24-.31.35l-.02.02s-.05.03-.07.05c-.03.03-.06.05-.09.08.05-.03.1-.07.14-.1h-.01s-.09.08-.14.11c-.19.15-.39.27-.59.38-.01,0-.03.02-.04.02-.69.43-1.49.86-2.25,1.3-.06.04-.12.07-.18.11-.5.29-1.05.63-1.49.94-.01,0-.03.02-.04.03-.04.03-.08.06-.12.08-.08.06-.17.12-.25.19-.08.07-.19.15-.26.25,0,0-.01.02-.02.02,0,0,0,0,0,0-.06.11-.05.21.03.32.75.51,1.13,1.08,1.23,1.64.25,1.16-.73,2.31-2.11,3.03-1.09.58-2.44.89-3.62.7-.03,0-.06,0-.09-.01h0c-.74-.13-1.4-.44-1.89-1-.12-.11-.2-.18-.27-.2,0,0-.02,0-.03,0,0,0,0,0,0,0,0,0-.01,0-.02,0,0,0-.01,0-.02,0,0,0,0,0,0,0-.04.03-.07.12-.07.28,0,.05,0,.1,0,.15,0,.08,0,.15,0,.23,0,.01,0,.03,0,.04,0,.02,0,.03,0,.05,0,.03-.01.06-.02.09,0,0,0,.02,0,.03-.01.04-.02.07-.04.11,0,0,0,.01,0,.02-.02.04-.03.08-.05.12,0,0,0,0,0,0-.04.08-.09.16-.15.24,0,0,0,0-.01.01-.02.03-.05.06-.07.09,0,.01-.02.02-.03.03-.02.02-.04.05-.07.07-.01.01-.02.02-.03.03-.02.02-.05.05-.07.07-.01,0-.02.02-.03.03-.03.03-.06.05-.09.08,0,0-.01,0-.02.01-.12.09-.24.18-.37.26-.02.01-.03.02-.05.03-.01,0-.03.02-.04.03-.01,0-.02.01-.03.02,0,0-.02,0-.02.01-.17.1-.36.2-.5.34-.05.06-.1.12-.14.19-.04.09-.07.18-.11.28,0,.02,0,.03,0,.04v.02c-.05.22-.2.45-.35.61.02-.02.03-.04.05-.06-.03.04-.06.08-.1.11,0,0,0,0,0,0-.05.05-.1.09-.16.14-.04.03-.07.07-.11.1.1-.07.19-.15.27-.23h0c-.12.13-.29.26-.47.38,0,0-.01,0-.02.01-.24.18-.51.34-.78.47-.15.08-.33.15-.48.18.1-.02.2-.06.3-.1-.01,0-.02,0-.03.01-.01,0-.02,0-.03.01-.07.03-.13.05-.2.06-.06.01-.11.03-.17.04-.04,0-.08,0-.11,0,.08,0,.16,0,.24-.02-.48.1-1-.08-1.42-.3h0c.06.03.13.06.2.09-.07-.03-.14-.07-.2-.1,0,0,.01,0,.02.01h0s-.04-.02-.05-.03c-.02,0-.04-.02-.05-.03-.12-.06-.23-.13-.35-.2-.19-.11-.38-.23-.56-.33-.03-.01-.05-.03-.08-.04-.04-.02-.07-.03-.11-.05,0,0-.02,0-.03-.01-.18-.08-.36-.15-.54-.23,0,0-.01,0-.02,0-.06-.03-.12-.05-.18-.08-.03-.01-.06-.03-.09-.04-.04-.02-.08-.04-.12-.06-.02-.01-.05-.03-.07-.04-.05-.03-.1-.06-.15-.1,0,0-.01,0-.02-.01-.01,0-.02-.02-.03-.02-.01,0-.03-.02-.04-.03,0,0-.02-.01-.02-.02-.09-.07-.18-.13-.28-.2-.13-.08-.27-.15-.41-.21-.1-.03-.2-.06-.29-.09,0,0,0,0,0,0-.64-.15-1.31-.48-1.77-.89-.11-.1-.22-.21-.35-.3-.03-.02-.06-.04-.1-.06,0,0-.01,0-.02-.01-.02-.01-.05-.02-.07-.04-.15-.05-.31-.1-.46-.16,0,0,0,0,0,0-.01,0-.02,0-.04-.01-.03,0-.05-.01-.08-.02.02,0,.03,0,.05.01-.03,0-.07-.02-.1-.03.02,0,.04.01.06.02-.02,0-.04-.01-.06-.02,0,0,0,0,0,0-.02,0-.04-.01-.06-.02-.02,0-.04-.02-.07-.03-.12-.05-.25-.1-.37-.16-.18-.08-.35-.16-.53-.26-.19-.08-.38-.16-.58-.25-.03-.01-.06-.03-.09-.04-.04-.02-.08-.04-.12-.06-.03-.01-.05-.02-.08-.04-.05-.02-.09-.04-.14-.07-.02-.01-.04-.02-.07-.03-.05-.02-.09-.05-.14-.07-.02-.01-.04-.02-.07-.04-.05-.03-.09-.06-.14-.08-.02-.01-.04-.02-.06-.04,0,0,0,0-.01,0-.12-.06-.22-.15-.32-.25-.01,0-.02-.02-.03-.03-.12-.1-.22-.24-.32-.37-.08-.1-.16-.2-.24-.28-.19-.16-.46-.12-.69-.14-.62-.04-1.34-.4-1.79-.84-.09-.1-.19-.2-.3-.28-.14-.1-.3-.18-.47-.24-.32-.06-.65-.13-.97-.23-.52-.15-1.01-.36-1.41-.65-.03-.02-.05-.04-.07-.06-.53-.4-.91-.95-.98-1.71,0,0,0,0,0-.01-.08-.88.35-1.8,1.12-2.56.01,0,.02-.02.03-.03.07-.07.14-.14.22-.2,0,0,.01-.01.02-.02.08-.07.16-.13.25-.2.02-.01.04-.03.06-.04.07-.05.14-.1.22-.15.02-.01.04-.03.06-.04.09-.06.19-.12.29-.18,0,0,.01,0,.02,0,.09-.05.19-.1.29-.15.02,0,.04-.02.06-.03.11-.05.21-.1.32-.15,0,0,0,0,0,0,0,0,0,0,0,0,.18-.07.32-.13.42-.19,0,0,0,0,0,0,.02-.01.04-.03.05-.04,0,0,0,0,.01-.01.01-.01.02-.02.04-.04,0,0,.01-.01.01-.02,0-.01.02-.02.02-.04,0,0,0-.01,0-.02,0-.01.01-.03.01-.04,0,0,0-.01,0-.02,0-.01,0-.03,0-.04,0,0,0-.01,0-.02,0-.01,0-.03,0-.04,0,0,0-.02,0-.02,0-.01,0-.02,0-.04,0-.01,0-.03-.01-.04,0,0,0,0,0-.01-.05-.12-.14-.27-.27-.45-.01-.02-.02-.04-.04-.06-.52-.88-.41-1.72.05-2.45.61-.97,1.81-1.75,2.95-2.22.08-.04.15-.09.21-.14.08-.09.1-.19.07-.3,0,0,0,0,0-.01-.13-.24-.26-.47-.36-.71-.06-.14-.11-.27-.15-.4-.1-.32-.16-.64-.14-.96,0,.01,0,.02,0,.03,0-.01,0-.02,0-.03.01-.19.05-.38.11-.58,0,0,0,0,0-.01.01-.03.02-.06.03-.09.3-.84,1.05-1.51,2.01-2.01,1.19-.65,2.67-1,4.06-.99.72,0,1.38.08,1.92.26.28.09.55.2.8.34.01,0,.03.02.05.02.18.1.35.22.51.36,0,0,.02.02.03.03.04.04.08.08.12.12.02.02.04.04.05.06.02.02.04.05.06.07.02.03.05.06.07.09.12.16.22.33.3.51.01.02.02.05.03.07,0,.01.01.03.02.04.06.16.11.32.14.49h0s0,.03,0,.05c0,.02,0,.05,0,.07,0,.03,0,.05,0,.08.01.16.06.31.14.44.1.15.24.28.41.36.01,0,.03.01.04.02.12.05.25.08.38.08.02,0,.03,0,.05,0,0,0,0,0,0,0,.22-.02.43-.12.64-.23.18-.1.36-.19.54-.24,0,0,0,0,0,0,.06-.02.12-.03.19-.04,0,0,0,0,.01,0,.06,0,.13-.01.19-.01,0,0,0,0,.01,0,.06,0,.13,0,.2,0,0,0,.01,0,.02,0,.07,0,.13.02.2.03,0,0,.01,0,.02,0,.07.01.13.03.2.05,0,0,.01,0,.02,0,.07.02.13.04.2.07,0,0,.01,0,.02,0,.07.03.13.05.19.09,0,0,.01,0,.02,0,.06.03.13.07.19.1,0,0,.01,0,.02.01.06.04.12.08.18.12,0,0,.01,0,.02.01.06.04.11.08.17.13,0,0,.01,0,.02.01.05.04.1.09.15.14,0,0,.01.01.02.02.05.05.09.1.13.15,0,0,0,.01.01.02.04.05.08.1.11.16,0,0,0,.01.01.02.03.05.06.11.09.16,0,0,0,.01.01.02.03.06.05.11.06.17,0,0,0,.02,0,.02.02.06.03.11.04.17,0,0,0,.01,0,.02,0,0,0,.01,0,.02,0,0,0,0,0,.01,0,0,0,.02,0,.03,0,.02,0,.04,0,.06,0,.01,0,.03,0,.04,0,.02,0,.04,0,.06,0,.02,0,.03,0,.05,0,.03,0,.05,0,.08,0,.02,0,.04,0,.06,0,.01,0,.03,0,.04,0,.02,0,.04,0,.05,0,.02,0,.03,0,.05,0,.02,0,.03,0,.05,0,.02,0,.03,0,.05,0,.01,0,.03,0,.04,0,.02,0,.03.02.05,0,.01,0,.02.01.03.05.11.16.23.29.33.12.08.26.16.4.24.02.01.04.02.05.03.14.06.28.1.4.12.39,0,.73-.28,1.11-.43,0,0,.02,0,.03-.01,0,0,0,0,0,0,.15-.06.31-.1.49-.1.16,0,.32.01.49.05.02,0,.05,0,.07.02.02,0,.04.01.07.02.53.14,1.05.46,1.38.87,0,.01.02.02.03.03.03.04.05.07.08.11.02.03.04.06.05.09,0,0,0,0,0,0,.04.06.07.13.1.19,0,0,0,0,0,0,.02.06.04.11.06.17,0,.02.01.04.02.07,0,.02,0,.04.01.06.02.11.02.22.01.34,0,0,0,0,0,.01,0,.12,0,.24.03.35.06.15.18.27.32.37.16.12.34.22.49.35.01.01.03.03.04.04,0,0-.02-.02-.02-.02h0c.06.05.12.12.18.18.1.11.19.22.3.31.03.02.06.05.08.07,0,0,.01,0,.02.01.02.01.03.02.05.03.03.02.06.04.1.05.19.09.4.11.61.14.08.01.17.03.25.05.03,0,.06.01.09.02.04,0,.07.02.11.03.06.02.12.03.17.05.01,0,.03,0,.04.01.03,0,.06.02.09.03.03.01.06.02.09.03.01,0,.02,0,.04.01.02,0,.05.02.07.03-.02,0-.05-.02-.07-.03,0,0,.01,0,.02,0,.06.02.12.05.18.08.05.02.11.05.16.08.02.01.05.02.07.04.05.03.1.06.15.08.03.02.06.03.08.05.03.02.06.04.1.06.06.04.11.07.17.11.11.08.22.17.34.23.12.06.24.09.37.07.08-.01.16-.04.24-.08.06-.03.12-.06.18-.1.08-.05.17-.09.26-.14,0,0,.02,0,.03-.01.04-.02.08-.04.12-.06.04-.02.07-.03.11-.05.02,0,.03-.01.05-.02.16-.07.33-.12.49-.13.04,0,.09,0,.13,0,.02,0,.03,0,.05,0,.02,0,.03,0,.05,0,.01,0,.03,0,.04,0,.33.03.68.14,1,.32.26.14.5.33.7.55.12.13.22.27.3.42,0,.02.02.03.03.05h0s0,.02,0,.02c.11.23.14.44.12.64ZM271.23,53.84c0,.2.04.39.1.58-.06-.19-.1-.38-.1-.58ZM272.09,55.5s.03.02.04.03t0,0s-.03-.02-.04-.04ZM286.25,66.62s-.02-.04,0,0h0ZM286.25,66.62c.07.15.1.31.1.47,0-.16-.03-.32-.1-.47ZM287.05,60.97c.04-.07.04-.07,0,0h0ZM290.8,53.64c0-.2-.03-.41-.08-.6.05.2.07.41.06.66v.03c0,.05-.01.11-.02.16,0,.01,0,.03,0,.04,0,.03-.01.06-.02.08,0,.02,0,.05-.01.07,0-.02,0-.05.01-.07-.03.13-.07.26-.13.39,0,.01,0,.02-.01.04,0,0,0,0,0-.01h0s0,.01,0,.02c-.08.2-.18.41-.31.6,0,.01-.02.03-.02.04-.07.14-.15.28-.23.42,0,0,0,0,0,.01-.52.95-1.18,2.17-1.76,3.23-.05.1-.11.2-.16.3-.12.23-.25.45-.37.67-.12.22-.23.43-.35.64-.04.08-.08.16-.13.24-.09.2-.21.39-.34.56-.05.07-.11.15-.17.22-.14.16-.31.3-.5.41-.06.04-.12.07-.19.1.03-.01.06-.03.09-.05-.03.02-.06.03-.09.05-.01,0-.02.01-.04.02,0,0,0,0,0,0-.17.08-.36.13-.56.16-.2.03-.41.02-.61-.02-.04,0-.08-.02-.12-.03.01,0,.03.01.04.02-.17-.03-.37-.1-.51-.17-.39-.16-.76-.38-1.14-.59-.15-.08-.29-.15-.43-.23-.03-.02-.04-.02-.03-.02-.05-.03-.11-.05-.16-.08-.04-.02-.08-.04-.12-.05-2.9-1.44-6.4-3.34-9.25-4.82-.41-.24-.66-.33-.91-.5-.02-.01-.05-.03-.07-.04.01,0,.03.02.05.02-.08-.05-.16-.11-.24-.18,0,0,0,0-.01-.01,0,0,0,0,0,0-.02-.02-.04-.04-.06-.06-.06-.06-.12-.12-.17-.19.02.03.04.06.07.09-.02-.03-.05-.06-.07-.09-.01-.02-.02-.03-.04-.05-.02-.03-.05-.07-.07-.1-.03-.04-.05-.08-.07-.12,0,0-.01-.02-.02-.03,0-.02-.02-.03-.03-.05-.01-.02-.02-.05-.03-.07,0-.02-.02-.04-.03-.06,0-.02-.02-.03-.02-.05,0,0,0,0,0-.01,0,0,0-.02,0-.03-.01-.04-.03-.07-.04-.11,0-.01,0-.03-.01-.04-.07-.23-.1-.47-.09-.71,0,0,0,0,0,0,.01-.19.05-.38.12-.57.01-.03.02-.06.03-.09,0,0,0,0,0-.01.06-.16.15-.31.25-.46.13-.17.26-.34.4-.52.56-.78,1.27-1.69,1.95-2.55.65-.85,1.31-1.69,1.89-2.42.08-.11.16-.21.22-.31.17-.24.38-.45.63-.61.36-.25.71-.36,1.06-.37.11,0,.21,0,.32,0,.03,0,.07.01.1.02.07.01.13.02.2.04-.04-.02-.1-.03-.09-.03.19.04.45.13.62.22h.02s.02.02.03.02c.27.12.54.26.82.42,1.27.64,2.87,1.5,4.53,2.4.09.05.18.1.28.15.89.47,1.79.94,2.65,1.4.43.23.84.45,1.24.66.45.23.9.44,1.27.7.03.02.07.04.1.05l.02.02c.25.18.44.39.59.62,0,0,0,0,0,0,.02.03.04.07.06.1,0,.02.02.03.02.05,0,0,0,0,0,.01.06.13.12.26.15.41.05.2.08.4.08.6,0,.08,0,.08,0,0ZM290.22,52.11s.03.04.04.05c-.01-.02-.03-.04-.04-.05ZM290.36,52.28s.02.03.03.05c-.01-.02-.02-.04-.03-.05ZM306.96,20.54v.02s-.02.02-.02.03c0,0,0,.02,0,.02,0-.01.02-.03.03-.04,0,.01-.02.03-.03.04-.02.05-.04.09-.07.13-.05.09-.11.18-.16.27-.8,1.42-1.67,3.09-2.59,4.89-.38.75-.78,1.55-1.19,2.37-1.19,2.38-2.46,4.96-3.76,7.52-1.37,2.74-2.72,5.37-3.96,7.58-.05.09-.1.18-.15.26-.18.33-.36.65-.55.97-.06.1-.12.21-.18.31-.03.06-.06.11-.1.17-.09.16-.19.32-.28.48-.01.02-.03.05-.04.07-.21.36-.43.72-.66,1.08-.02.03-.04.07-.06.1-.01.02-.02.04-.04.05-.06.1-.12.19-.19.29-.08.12-.16.24-.25.36-.09.13-.18.27-.27.4,0-.01.02-.02.02-.03,0,0,0,0,0,0,.03-.05.02-.03,0,0-.01.02-.03.04-.04.06-.2.3-.42.59-.65.86-.03.03-.06.06-.08.1,0,0-.01.02-.02.02-.06.07-.12.13-.18.19-.15.16-.3.3-.46.4-.17.13-.32.21-.43.2.03,0,.06-.02.1-.03-.05,0-.11,0-.17,0,.01,0,.03.01.04.02-.02,0-.04-.02-.06-.02-.08-.02-.15-.05-.22-.08-.59-.31-1.32-.71-1.97-1.05-2.11-1.1-5.1-2.64-7.36-3.8-.66-.34-1.35-.7-1.98-1.03-.15-.07-.3-.13-.41-.23.04.06.09.11.15.13.01,0,.02.01.03.02.02.01.02.02.01.01-.02,0-.07-.03-.1-.05-.49-.26-.22-1.55.16-2.75.18-.61.42-1.3.66-1.96,1.21-3.43,2.93-7.32,4.75-11.25,1.65-3.6,3.36-7.19,4.72-10.05.91-1.96,1.75-3.83,2.48-5.57,0-.03.01-.06.02-.08,0,0-.02.02-.02.03,0,0,.01-.02.02-.03,0,0,0,0,0,0h0s0,0,0,0c0,0,.01-.02.02-.03.01-.01.02-.03.04-.04,0,0,.01-.01.02-.02.03-.04.07-.07.1-.1,0,0,0,0,.01-.01.01,0,.02-.02.03-.03.03-.02.06-.05.09-.07.01,0,.03-.02.04-.02.02-.01.04-.02.06-.04.02,0,.03-.02.05-.03h0s-.02.02-.04.02c.02,0,.04-.02.05-.03,0,0-.01,0-.02,0,0,0,.02,0,.02-.01.01,0,.02-.01.03-.02.18-.08.4-.13.6-.12h0c-.07,0-.15,0-.23.02.08-.01.16-.02.23-.02,0,0,0,0,0,0,0,0,0,0,0,0,.26,0,.52.07.74.21,1.78.99,3.85,2.13,5.9,3.28,1.46.81,2.91,1.62,4.27,2.37.92.51,1.8,1,2.6,1.44.13.06.25.13.36.22.19.13.34.32.44.54.17.32.22.69.08,1.05Z"/>
</svg>