<svg width="421" height="117" viewBox="0 0 421 117" fill="none" xmlns="http://www.w3.org/2000/svg">
<path d="M4.99999 0C2.23857 0 0 2.23858 0 5V111.517C0 114.278 2.23858 116.517 5 116.517H416C418.761 116.517 421 114.278 421 111.517V5C421 2.23858 418.761 0 416 0H4.99999ZM116.965 93.2104C116.964 93.2112 116.963 93.2116 116.962 93.2116H28.3938C25.6324 93.2116 23.3938 90.973 23.3938 88.2116V28.3029C23.3938 25.5415 25.6324 23.3029 28.3938 23.3029H111.966C114.728 23.3029 116.966 25.5415 116.966 28.3029V93.2074C116.966 93.2086 116.966 93.2096 116.965 93.2104ZM397.62 88.2137C397.619 90.9743 395.381 93.2116 392.62 93.2116H309.09C306.329 93.2116 304.091 90.9746 304.09 88.2142L304.07 51.5785C304.069 48.8182 301.831 46.5813 299.071 46.5811L192.168 46.5744C189.409 46.5742 187.171 48.8084 187.167 51.5671L187.148 64.9355C187.144 67.6998 189.384 69.9429 192.148 69.9429H275.71C278.471 69.9429 280.709 72.1805 280.71 74.9413L280.714 88.2123C280.715 90.9744 278.476 93.214 275.714 93.2139L145.341 93.2094C142.58 93.2093 140.342 90.972 140.341 88.2114L140.316 28.31C140.315 25.5477 142.554 23.3078 145.316 23.3079L392.646 23.315C395.408 23.315 397.647 25.5549 397.646 28.3171L397.62 88.2137Z" fill="#9E9E9E"/>
</svg>
