<svg width="309" height="102" viewBox="0 0 309 102" fill="none" xmlns="http://www.w3.org/2000/svg">
<path d="M299.433 13.6649C299.749 13.9947 299.978 14.3383 300.349 14.6171C300.759 14.9234 300.882 15.6962 301.378 15.9446C301.424 15.9681 301.449 16.0426 301.485 16.0812L301.599 16.2054C301.764 16.5449 301.987 16.8637 302.302 17.061C302.435 17.435 302.746 17.722 303.002 18.0091L303.093 18.1098C303.123 18.528 303.442 18.8164 303.69 19.1117C304.09 19.5919 304.224 20.2902 304.718 20.678C304.784 20.9264 304.887 21.2396 305.139 21.3197C305.129 21.4259 305.16 21.5391 305.169 21.644C305.175 21.7019 305.221 21.8275 305.293 21.7792L305.394 22.011C305.425 22.0621 305.464 22.1063 305.509 22.1435C305.538 22.2263 305.576 22.2995 305.624 22.3712C305.653 22.4154 305.638 22.4885 305.668 22.5396C305.698 22.5906 305.731 22.748 305.826 22.6569C305.839 23.0902 306.087 23.4766 306.315 23.8285C306.347 23.8768 306.382 23.9237 306.423 23.9651C306.443 24.1652 306.491 24.3584 306.558 24.5475C306.608 24.6868 306.679 24.8179 306.77 24.9325C306.787 25.0608 306.822 25.1905 306.906 25.2885C306.922 25.3354 306.948 25.3782 306.984 25.4113L307.018 25.6418C307.032 25.7342 307.047 25.8308 307.118 25.8929C307.122 25.955 307.102 26.0668 307.124 26.122L307.7 27.4689C307.699 27.5006 307.702 27.5379 307.71 27.5696C307.754 27.7476 307.744 27.9891 307.922 28.0775C307.914 28.1934 307.926 28.3121 307.933 28.428C307.935 28.4901 307.962 28.6129 308.042 28.5618L308.057 28.7812C308.064 28.8696 308.046 29.0421 308.16 29.0559L308.173 29.2615C308.18 29.3636 308.235 29.4492 308.271 29.5375C308.328 29.67 308.292 29.8894 308.391 30.0039C308.426 30.2026 308.313 30.4911 308.506 30.6097C308.5 30.6429 308.509 30.6829 308.51 30.7174C308.522 31.0182 308.479 31.3936 308.726 31.5923L308.744 31.9331C308.756 32.1388 308.672 32.4244 308.848 32.5583C308.843 32.6286 308.882 32.7183 308.858 32.7832C308.777 33.0081 308.937 33.2069 308.953 33.4056C308.975 33.6747 308.991 33.9631 308.993 34.2322C309.013 36.2622 308.97 38.2811 308.856 40.3041L308.843 40.5277C308.735 40.5263 308.747 40.7112 308.747 40.7926C308.745 40.9679 308.665 41.2149 308.744 41.3833C308.492 41.6689 308.517 42.0967 308.52 42.4679C308.52 42.5328 308.505 42.6432 308.479 42.7025C308.186 43.3525 308.068 44.0867 307.934 44.7932C307.929 44.8222 307.926 44.8595 307.93 44.8884C307.648 45.2541 307.561 45.7703 307.467 46.2339C307.446 46.3374 307.353 46.4768 307.351 46.5858C307.161 46.8066 307.015 47.1516 307.005 47.4442L307.001 47.5656C306.927 47.6222 306.901 47.716 306.892 47.8085C306.848 47.9189 306.81 48.0321 306.784 48.1494C306.701 48.1107 306.679 48.2349 306.661 48.2943C306.65 48.3274 306.649 48.3812 306.655 48.4157C306.507 48.7372 306.318 49.0491 306.209 49.3886C306.187 49.4576 306.2 49.5459 306.187 49.6163C306.147 49.6494 306.117 49.6922 306.095 49.7391C306.044 49.8081 306.007 49.8881 305.981 49.9709C305.918 50.0455 305.874 50.1352 305.846 50.2304L305.835 50.3518C305.792 50.3808 305.758 50.4208 305.731 50.4677L305.722 50.5767C305.677 50.6126 305.659 50.6706 305.625 50.7147C305.569 50.7851 305.558 50.8831 305.515 50.959L303.555 54.3689C303.536 54.4007 303.49 54.449 303.462 54.4697C303.263 54.6104 303.127 54.8216 303.081 55.0686C302.956 55.0769 302.915 55.2411 302.867 55.3198C302.648 55.4274 302.489 55.6882 302.403 55.9311C302.368 55.9932 302.295 56.0939 302.247 56.1519C301.559 56.9951 300.805 57.8134 300.209 58.72C300.184 58.7573 300.146 58.8015 300.111 58.8304C299.479 59.3783 298.95 60.0766 298.352 60.6589L298.132 60.8728C298.02 60.9818 297.882 61.0646 297.91 61.2661C297.871 61.262 297.829 61.2606 297.788 61.2606C297.567 61.2606 297.432 61.4372 297.34 61.6277C297.25 61.6843 297.173 61.7809 297.108 61.8706C296.638 62.1162 296.144 62.5178 295.844 62.9594C295.691 62.9842 295.592 63.2119 295.481 63.2823C294.603 63.8439 293.731 64.4622 292.941 65.1549C292.911 65.1811 292.873 65.2239 292.836 65.2391C292.307 65.4668 291.756 65.7897 291.35 66.2092L291.232 66.2285C290.759 66.3058 290.266 66.6481 289.947 67.0565C289.917 67.069 289.875 67.0565 289.843 67.0593C289.696 67.0745 289.54 67.1311 289.495 67.2925C289.458 67.287 289.416 67.298 289.38 67.2994C289.279 67.3036 289.218 67.3877 289.143 67.4402C289.088 67.4788 288.985 67.5271 288.924 67.5519C288.726 67.5354 288.588 67.7107 288.431 67.7921L287.97 68.0294C287.753 68.1412 287.436 68.1798 287.292 68.3993C287.225 68.4324 287.106 68.4862 287.047 68.5373C286.584 68.627 286.061 68.8381 285.688 69.1486C285.629 69.1983 285.515 69.179 285.458 69.2424C285.276 69.2355 285.057 69.2645 284.998 69.4674C284.97 69.4605 284.922 69.4591 284.894 69.4674L282.116 70.4527L283.703 71.8313L283.798 71.8423C283.818 71.9858 283.988 72.019 284.083 72.059C284.051 72.2908 284.189 72.4495 284.297 72.6262C284.491 72.9477 284.583 73.37 284.866 73.6087L284.873 73.7274C284.877 73.7867 284.924 73.8364 284.978 73.853C284.992 73.8888 284.97 73.9371 284.982 73.9744C285.002 74.0337 285.004 74.1524 285.099 74.1014C285.109 74.1331 285.09 74.1731 285.099 74.2062C285.577 76.1989 284.823 77.9943 283.646 79.5758C283.566 79.682 283.382 79.7386 283.359 79.8987C283.337 79.9249 283.292 80.0077 283.256 80.0118C283.132 80.027 283.114 80.205 283.034 80.2561C282.885 80.3513 282.778 80.4852 282.685 80.637C282.641 80.7087 282.5 80.7888 282.46 80.8702L279.686 82.8284C279.635 82.8629 279.524 82.9126 279.466 82.9278C279.302 82.9595 279.128 83.0561 278.981 83.1637L278.779 83.31C278.316 83.4632 277.818 83.6798 277.371 83.891C277.305 83.9227 277.231 83.9834 277.165 84.0041C276.306 84.265 275.465 84.6307 274.631 84.9743C274.556 84.9688 274.479 84.9839 274.404 84.9895C274.343 84.9936 274.229 85.0143 274.261 85.1026C274.187 85.1178 274.111 85.133 274.036 85.1399C273.711 85.1688 273.348 85.2033 273.127 85.4766L272.926 85.4807C272.25 85.4945 271.568 85.7084 270.926 85.9458C270.865 85.9679 270.781 85.9499 270.715 85.9596C270.521 85.9913 270.249 85.8823 270.119 86.0686C270.048 86.0645 269.975 86.0824 269.904 86.0824C269.782 86.0824 269.624 86.0534 269.551 86.1804C269.371 86.1666 269.17 86.19 268.989 86.2066C268.868 86.2176 268.667 86.1666 268.611 86.3073L268.411 86.317L265.274 86.5695H264.722C264.605 86.5682 264.482 86.5613 264.364 86.5599C261.687 86.535 258.913 86.5695 256.305 85.9375C256.097 85.7733 255.814 85.8078 255.574 85.7236C255.517 85.7043 255.446 85.7319 255.387 85.7167C254.735 85.4821 254.071 85.2917 253.402 85.1192C253.371 85.1109 253.333 85.0998 253.303 85.1068C253.166 84.9246 252.881 85.0074 252.721 84.857C252.691 84.8515 252.637 84.8487 252.606 84.8528C252.449 84.6803 252.221 84.6113 252.019 84.5078C251.965 84.4802 251.86 84.5023 251.8 84.5037L249.603 83.1913C249.497 83.1278 249.345 83.0326 249.252 82.9554C248.314 82.1867 247.537 81.3187 246.871 80.2892C246.841 80.2257 246.85 80.1181 246.845 80.0463C246.831 79.8849 246.79 79.711 246.622 79.6655C246.626 79.6337 246.627 79.5882 246.618 79.5564C246.428 78.8389 246.445 78.0895 246.489 77.354L246.517 76.8931C246.643 76.8889 246.581 76.7013 246.609 76.6157C246.659 76.4653 246.609 76.2721 246.676 76.1272C247.068 75.3475 247.537 74.5706 248.128 73.8309C248.058 73.5176 247.625 73.4859 247.407 73.479L246.961 73.4652C246.455 73.2361 245.891 73.2582 245.345 73.2265C245.309 73.2251 245.271 73.2375 245.237 73.2278C245.258 73.1036 245.069 73.1161 244.99 73.1161C244.263 73.1092 243.531 72.9063 242.806 72.9643C242.774 72.8442 242.64 72.9132 242.558 72.8925C242.47 72.8704 242.327 72.9118 242.249 72.8677C241.968 72.6772 241.627 72.7835 241.307 72.7476C241.174 72.6841 240.984 72.68 240.839 72.6607C238.528 72.3515 236.398 71.4973 234.256 70.581C234.197 70.5562 234.112 70.5921 234.055 70.5617C234.013 70.5341 233.984 70.4982 233.93 70.5258C233.678 70.6555 233.593 70.4334 233.45 70.3064C232.879 69.7999 232.094 69.5046 231.384 69.2521C231.359 69.2438 231.309 69.2245 231.285 69.2342C230.994 68.954 230.322 68.696 230.013 68.4931C229.926 68.4365 229.734 68.3109 229.634 68.3358C229.345 68.0446 229.01 67.8997 228.565 67.6044C227.885 68.2958 226.941 68.6325 226.446 69.3942C226.408 69.3984 226.369 69.3984 226.331 69.3956C226.003 69.3749 225.732 69.6509 225.59 69.9462C225.538 69.96 225.468 69.9407 225.419 69.9642C224.93 70.1919 224.397 70.4554 224.097 70.9288C224.007 70.944 223.873 70.8888 223.789 70.9384C223.619 71.0406 223.451 71.1565 223.315 71.3041C223.242 71.3317 223.178 71.3828 223.107 71.4173C222.197 71.8423 221.236 72.2439 220.443 72.8663C220.405 72.8801 220.354 72.8663 220.317 72.8828C217.513 74.2187 214.608 75.2191 211.661 76.1272C211.6 76.1313 211.527 76.1272 211.469 76.1451C210.781 76.3687 210.007 76.3852 209.377 76.7371C209.269 76.7095 209.154 76.7316 209.047 76.7482C208.455 76.8351 207.836 76.8558 207.291 77.1001C207.069 77.0959 206.822 77.0849 206.604 77.1263C204.462 77.5417 202.28 77.8605 200.131 77.8508L198.904 77.8453C198.707 77.8453 198.494 77.8453 198.294 77.8453H197.748L197.49 77.8439C197.309 77.8439 197.127 77.8439 196.945 77.8439L194.372 77.8466C193.737 77.8466 193.084 77.9018 192.451 77.8411C192.059 77.8025 191.697 77.6673 191.269 77.7542C190.954 77.8177 190.577 77.6783 190.254 77.7004C190.074 77.7128 189.863 77.4906 189.65 77.6038C189.566 77.6479 189.425 77.5817 189.331 77.5983C189.257 77.6107 189.162 77.6079 189.089 77.5914C188.986 77.5679 188.852 77.6121 188.755 77.5748C188.417 77.4451 188.052 77.4382 187.702 77.354C187.564 77.3209 187.385 77.3002 187.246 77.3264C187.175 77.1911 187.009 77.256 186.888 77.2394C186.829 77.2326 186.737 77.2436 186.684 77.2188C186.507 77.0946 186.293 77.1263 186.087 77.1125L185.877 77.0987C185.781 76.929 185.549 77.0256 185.394 76.9938C185.133 76.9386 184.874 76.8406 184.605 76.8572C184.551 76.6405 184.255 76.8337 184.134 76.7427C183.963 76.6129 183.747 76.6723 183.568 76.6033C183.337 76.515 183.12 76.3632 182.856 76.3839C182.822 76.3866 182.786 76.3839 182.753 76.3783C182.742 76.3093 182.682 76.2914 182.624 76.2804C182.562 76.2693 182.484 76.2983 182.426 76.2776L179.407 75.1916C179.376 75.1805 179.312 75.1598 179.283 75.1709C175.488 73.3658 172.218 71.0309 169.26 67.9135C169.121 67.7672 168.939 67.574 168.814 67.4167L165.826 63.659C165.83 63.6314 165.826 63.5859 165.816 63.561C164.762 61.8512 163.906 60.0724 163.067 58.2481C163.073 58.1832 163.068 58.0439 163.046 57.9818C162.467 56.4017 162.955 57.2393 160.953 56.3948C160.674 56.2761 160.323 56.1726 160.062 56.0263L157.724 54.725C157.614 54.6643 157.476 54.6339 157.375 54.5594C156.813 54.1454 156.289 53.5989 155.647 53.356C155.625 53.3215 155.57 53.3036 155.551 53.2663C155.358 52.8772 155.004 52.6122 154.649 52.3914C154.6 52.3611 154.546 52.299 154.508 52.2534C153.293 50.8431 152.227 49.3651 151.415 47.6884C151.399 47.6567 151.428 47.6001 151.41 47.5711C151.261 47.3407 151.281 47.0205 151.087 46.8273C151.092 46.7211 151.081 46.59 151.056 46.4865C150.958 46.0697 150.865 45.6474 150.732 45.2514C150.723 45.1355 150.735 45.0154 150.719 44.8995C150.685 44.6538 150.782 44.3516 150.617 44.1598C150.642 43.9238 150.588 43.6851 150.594 43.4505C150.631 42.0636 150.785 40.6422 151.171 39.3161C151.189 39.254 151.186 39.167 151.184 39.1022C151.483 38.0258 152.07 37.0832 152.458 36.0358C152.468 36.0096 152.461 35.9599 152.457 35.931C152.674 35.8702 152.662 35.5873 152.788 35.4438C152.921 35.2906 152.99 35.1609 153.047 34.9594C158.732 26.7195 166.672 24.9007 176.028 23.8271C178.364 20.4806 181.126 17.5233 184.176 14.7675C194.684 5.56989 208.153 3.22253 221.144 7.04095C225.584 5.19453 230.053 3.85457 234.717 3.24047C237.968 2.96861 241.035 2.85132 244.195 3.49439C246.18 3.96082 247.956 4.67152 249.634 5.94662C255.538 2.92997 262.119 1.35403 268.582 1.04629C280.374 0.48326 291.198 5.07723 299.433 13.6663V13.6649ZM265.284 26.7458C265.208 26.6726 265.119 26.554 265.048 26.4698C259.681 20.1053 250.455 19.0592 243.452 23.638L243.298 19.6996L243.271 17.0555C243.26 16.0799 243.145 15.0587 243.15 14.1272L243.152 13.6635C243.152 13.6055 243.149 13.5227 243.062 13.5338L243.057 13.4123C243.054 13.3475 243.032 13.2288 242.936 13.2854C242.924 13.2578 242.935 13.215 242.932 13.1833C242.902 12.8493 242.651 12.5885 242.358 12.4753C242.318 12.4602 242.27 12.4615 242.228 12.4477C241.504 11.2982 239.792 11.8005 238.533 11.9302L238.316 11.9537C237.932 11.9951 237.47 11.8116 237.162 12.0917C236.934 12.0793 236.704 12.0586 236.476 12.0765C234.202 12.2559 231.903 12.4201 229.657 12.7858C229.59 12.7969 229.517 12.8038 229.449 12.8038C228.788 12.8024 228.115 12.888 227.469 13.0232C227.34 13.0508 227.164 13.0577 227.033 13.0467C226.844 13.0315 226.714 13.0701 226.547 13.1419C226.381 13.2136 226.162 13.1115 225.993 13.1667C225.879 13.2053 225.669 13.106 225.622 13.2647L225.077 13.2895C224.958 13.295 224.752 13.2426 224.7 13.3847C224.631 13.3944 224.557 13.3944 224.489 13.4082C224.375 13.4317 224.171 13.3613 224.125 13.5076C224.018 13.5186 223.906 13.5103 223.799 13.5296C223.718 13.5448 223.55 13.5158 223.545 13.6331C223.452 13.6221 223.318 13.6469 223.22 13.6442C223.121 13.6414 223.004 13.669 222.987 13.7849C222.957 13.7974 222.916 13.7849 222.882 13.7891C222.767 13.807 222.561 13.7201 222.511 13.8691C222.372 13.8995 222.21 13.8484 222.074 13.894C221.835 13.974 221.558 13.9588 221.353 14.1161C221.289 14.1327 221.215 14.1161 221.152 14.1368C220.937 14.21 220.576 14.1838 220.525 14.4542L220.332 14.4722C220.174 14.2762 220.022 14.526 219.879 14.6047C219.699 14.6681 219.476 14.6461 219.298 14.733C219.245 14.7592 219.12 14.7468 219.168 14.8462C218.978 14.8751 218.79 14.9207 218.604 14.9731C218.554 14.9869 218.523 15.0545 218.49 15.0904L218.374 15.0945C218.324 15.0973 218.289 15.1663 218.259 15.2118C218.226 15.227 218.179 15.2049 218.143 15.216C218.087 15.2325 217.97 15.2215 218.015 15.325C217.696 15.2864 217.531 15.5334 217.328 15.6976C216.518 15.8522 215.646 16.3503 215.129 17.0279L214.918 17.148C214.406 17.4378 213.946 17.86 213.524 18.2685L212.929 18.844C212.694 19.0717 212.346 19.2345 212.263 19.6043C212.242 19.6402 212.183 19.6761 212.152 19.7078C212.111 19.7492 212.061 19.781 212.027 19.8293C212.027 19.8693 212.018 19.9093 212.021 19.9493C211.7 20.1605 211.447 20.54 211.453 20.9443C211.377 20.9139 211.285 21.0023 211.229 21.0381C211.136 21.0975 211.127 21.183 211.095 21.2824C211.07 21.3611 211.001 21.4273 210.985 21.5129C210.905 21.4646 210.884 21.5874 210.881 21.6453L210.872 21.8841C210.637 22.0442 210.565 22.3519 210.517 22.6293C210.511 22.6638 210.525 22.7066 210.515 22.7383C210.388 22.828 210.234 22.8446 210.084 22.8321C209.991 22.4402 209.622 22.2622 209.264 22.3712C209.205 22.2263 209.034 22.2415 208.905 22.247C208.841 22.2498 208.769 22.236 208.706 22.2512C207.85 22.4526 207.188 21.7557 206.373 21.5129C206.202 21.4618 205.982 21.3348 205.815 21.2617C205.58 21.1582 205.392 20.9264 205.1 20.9153L205.003 20.9112C204.957 20.7166 204.69 20.7152 204.526 20.6752C204.437 20.6531 204.291 20.6242 204.203 20.6393C203.755 20.3785 203.184 20.275 202.676 20.1839C202.646 20.1784 202.609 20.1964 202.582 20.1839C202.634 20.0832 202.52 20.0708 202.46 20.0611C202.392 20.0515 202.309 20.0294 202.241 20.0404C202.231 19.9217 202.062 19.9769 201.985 19.9618C201.841 19.9342 201.694 19.9328 201.549 19.9204C201.589 19.8389 201.469 19.8238 201.417 19.8224L200.857 19.8044C199.518 19.7617 198.128 19.3518 196.801 19.5629C196.694 19.5795 196.58 19.5823 196.472 19.585C195.54 19.614 194.579 19.5243 193.691 19.8279C193.597 19.8596 193.46 19.8196 193.36 19.8279C192.647 19.8872 191.896 19.9618 191.261 20.3137C191.213 20.3399 191.12 20.3288 191.066 20.3316C190.855 20.3426 190.574 20.3137 190.464 20.5372C190.337 20.551 190.133 20.4834 190.016 20.5469C189.444 20.856 188.727 20.8008 188.273 21.2589C188.184 21.2162 188.038 21.2907 187.942 21.2755C187.887 21.2672 187.761 21.31 187.812 21.39L187.257 21.5267C187.119 21.5612 186.994 21.6509 186.895 21.7516C186.771 21.7475 186.67 21.8123 186.565 21.8661C184.581 22.8722 182.25 23.9679 181.053 25.7812C181.069 25.8184 181.072 25.8653 181.036 25.8943L180.894 25.8667L180.784 25.8584C178.177 28.0609 176.007 31.1631 174.906 34.4958C174.871 34.6048 174.807 34.7552 174.759 34.8615C174.388 35.7019 174.148 36.5975 173.972 37.5055C173.949 37.6242 173.968 37.7512 173.955 37.8698C173.839 37.8698 173.89 38.0534 173.868 38.132C173.848 38.2038 173.901 38.3045 173.875 38.3722C173.619 39.0097 173.566 39.737 173.554 40.4256C173.552 40.5912 173.56 40.8616 173.508 41.0148C173.297 41.6455 173.466 42.3244 173.413 42.9841C173.407 43.0531 173.41 43.1248 173.413 43.1938C173.434 43.6575 173.487 44.1157 173.501 44.5517L173.527 45.377C173.529 45.4639 173.49 45.6447 173.617 45.653L173.632 45.8544C173.648 46.0725 173.606 46.3153 173.763 46.4823L173.756 46.8273C173.753 47.0136 173.696 47.3766 173.951 47.3614C173.944 47.5063 173.948 47.6664 173.986 47.8057C174.07 48.1259 174.016 48.5012 174.2 48.78L174.205 48.9014C174.221 49.2602 174.406 49.579 174.552 49.8978C174.601 50.0041 174.606 50.1324 174.665 50.2345C174.695 50.2869 174.744 50.3284 174.783 50.3725L174.811 50.5726C174.84 50.7768 174.887 51.0418 175.101 51.1094C175.089 51.2088 175.105 51.333 175.126 51.4296C175.231 51.9043 175.535 52.3183 175.702 52.7544C175.828 53.0842 176.021 53.3436 176.168 53.6486C176.799 54.9554 177.637 56.2085 178.612 57.2545C178.716 57.3663 178.733 57.5967 178.92 57.6257C178.914 57.8148 179.046 57.9031 179.176 57.9942C179.257 58.0521 179.29 58.1956 179.4 58.2329C179.441 58.2467 179.505 58.3157 179.521 58.3571C179.564 58.4703 179.693 58.5006 179.762 58.582C181.607 60.7597 184.016 62.5454 186.568 63.6977C186.618 63.7197 186.696 63.7101 186.75 63.7211C186.688 63.8812 186.913 63.9157 187.021 63.9323C187.055 63.9378 187.094 63.9281 187.127 63.9405C187.156 63.9833 187.194 64.0495 187.248 64.0537L187.467 64.0702C187.489 64.1241 187.557 64.131 187.588 64.171C187.666 64.2759 187.812 64.2662 187.918 64.28C188.228 64.5877 188.722 64.6098 189.109 64.774C189.166 64.7975 189.242 64.7685 189.299 64.7878C189.499 64.9645 189.769 65.0224 190.021 65.0183L190.239 65.0155C190.527 65.3329 190.997 65.3178 191.395 65.3605C191.505 65.373 191.619 65.4019 191.729 65.4061C191.724 65.5358 191.9 65.4972 191.977 65.5013L192.741 65.5413C193.327 65.9194 194.159 65.8518 194.86 65.8642L196.226 65.8891C196.495 65.8946 196.789 66.1223 197.053 65.8891C197.141 65.8628 197.284 65.878 197.379 65.8656C197.809 65.8132 198.259 65.9733 198.666 65.7759C198.728 65.7456 198.818 65.7649 198.884 65.7456C198.995 65.7124 199.202 65.798 199.244 65.6476C199.312 65.6586 199.393 65.6062 199.46 65.6241C199.719 65.6959 199.939 65.5758 200.17 65.5206C200.462 65.4502 200.779 65.4668 201.071 65.3812C201.151 65.3578 201.322 65.4033 201.324 65.2777C201.391 65.2667 201.462 65.275 201.528 65.2584C201.607 65.2391 201.782 65.2833 201.782 65.1604L201.992 65.1384C202.2 65.1163 202.426 65.0749 202.581 64.9134C202.616 64.9176 202.653 64.9051 202.688 64.9051C202.938 64.8969 203.229 64.8982 203.387 64.6692L203.493 64.6623C203.631 64.6526 203.755 64.6291 203.867 64.5477C203.922 64.5077 204.015 64.4829 204.065 64.4359C204.513 64.3766 205.016 64.24 205.365 63.9295C205.555 63.8632 205.769 63.8633 205.92 63.6977C205.954 63.6604 206.087 63.6921 206.051 63.5859C206.079 63.579 206.112 63.5914 206.139 63.5831C206.553 63.452 206.953 63.245 207.3 62.9732C207.388 62.9442 207.468 62.8973 207.543 62.8407C207.581 62.8117 207.625 62.791 207.656 62.7496C207.691 62.7468 207.728 62.7468 207.763 62.7386C207.87 62.7123 208.094 62.6668 208.03 62.5122C208.158 62.5219 208.248 62.3715 208.355 62.3466C208.615 62.2845 208.859 62.1507 209.005 61.9092C209.052 61.8995 209.096 61.8678 209.142 61.8609C209.444 61.8223 209.677 61.6415 209.836 61.3848C210 61.3048 210.158 61.1833 210.286 61.0412C210.742 60.8701 211.104 60.4837 211.463 60.1483C211.623 59.9993 211.829 59.8986 211.931 59.6874C212.275 59.4721 212.626 59.2072 212.817 58.8332C212.939 58.8139 212.981 58.6717 213.066 58.6096C213.205 58.5048 213.356 58.4109 213.416 58.2301C213.87 57.8037 214.406 57.2724 214.693 56.6915C214.994 56.5797 215.15 56.2361 215.256 55.9366C215.376 55.8593 215.463 55.7393 215.499 55.5958C215.639 55.5751 215.704 55.4605 215.72 55.3253L215.831 55.1072C215.876 55.0203 215.96 54.9541 215.969 54.845C216.074 54.7567 216.229 54.6091 216.291 54.4849L216.989 54.6049C217.042 54.7057 217.274 54.765 217.214 54.961C217.445 56.4941 218.152 58.0839 219.25 58.887C220.665 59.9234 222.303 60.0821 223.998 59.4984C224.716 61.6166 226.425 62.9124 228.489 63.2216C228.565 63.2326 228.664 63.234 228.738 63.2298C228.783 63.3223 228.896 63.3361 228.985 63.3251C229.085 63.3126 229.204 63.3692 229.302 63.3416C229.766 63.5196 230.353 63.5127 230.828 63.3458C230.92 63.3126 231.054 63.3306 231.153 63.3264C232.637 63.2616 234.104 62.5329 234.969 61.2592C234.983 61.2385 234.978 61.204 234.986 61.1792C235.482 60.9294 235.704 60.227 235.781 59.6598C235.789 59.6032 235.791 59.5122 235.793 59.4625L235.93 57.3677C235.953 57.0006 236.394 56.5521 236.618 56.3685C236.948 56.0981 237.361 56.7039 237.744 56.657C237.774 56.6528 237.811 56.6611 237.84 56.6694C237.787 56.7715 237.915 56.7784 237.97 56.777L238.32 56.7729C238.486 56.9164 238.693 56.8998 238.893 56.9054C239.231 56.915 239.569 56.9412 239.907 56.9054C239.994 56.8957 240.09 56.8198 240.165 56.7977C240.368 56.8391 240.532 56.7204 240.715 56.6708C241.606 56.4306 242.394 55.6772 242.828 54.8271C242.832 54.7926 242.814 54.754 242.824 54.7222C242.864 54.6863 242.9 54.6477 242.933 54.6049C242.99 54.4945 243.025 54.3745 243.049 54.2503C243.133 54.3027 243.146 54.1799 243.154 54.1178C243.159 54.0833 243.166 54.0391 243.156 54.006C243.553 53.5216 243.331 52.782 243.39 52.161C243.393 52.132 243.38 52.1016 243.38 52.0713C244.824 52.7378 246.195 53.6086 247.777 53.8804C247.937 53.908 248.123 53.9356 248.285 53.926C248.337 54.2144 248.725 54.1054 248.94 54.104H249.143C251.217 54.7029 253.578 54.5704 255.714 54.144C255.788 54.1288 255.88 54.1619 255.949 54.133C256.329 53.9812 256.767 54.0019 257.103 53.748C257.174 53.7424 257.247 53.7728 257.317 53.759C257.4 53.7424 257.581 53.7631 257.57 53.6389C257.602 53.6279 257.641 53.6514 257.673 53.6431C258.355 53.4595 259.077 53.2484 259.626 52.7778L259.733 52.7695C259.953 52.753 260.193 52.6633 260.31 52.4494C260.361 52.4894 260.473 52.5349 260.533 52.5681L260.185 53.1477C260.147 53.2111 260.101 53.3064 260.099 53.3836C259.761 53.8639 259.559 54.4697 259.276 54.9734L259.156 55.1845C258.541 56.2747 259.614 57.7872 260.789 58.0163C260.931 58.0439 261.058 58.2439 261.241 58.146C263.314 59.2403 265.631 59.9137 267.828 60.7666C267.933 60.8066 268.057 60.8356 268.15 60.9032C268.608 61.2316 269.155 61.3572 269.677 61.5173L270.106 61.6484C271.287 62.0099 272.403 62.6489 273.589 62.9883C273.656 63.0077 273.745 63.0408 273.804 63.0808C274.2 63.354 274.773 63.2519 275.202 63.0767C275.308 63.0325 275.458 63.0642 275.541 62.9759L275.668 62.8393C275.702 62.802 275.745 62.7386 275.791 62.7234C276.221 62.5799 276.448 62.1327 276.632 61.6442L279.962 52.7847C280.435 51.5262 279.546 50.309 278.498 49.8978L266.993 45.3839L266.773 45.2666C266.661 43.979 268.272 45.1989 269.674 45.5232C269.775 45.5467 269.897 45.5895 269.989 45.6419C270.364 45.8531 270.773 45.9993 271.178 46.1318C271.312 46.176 271.48 46.1967 271.604 46.2629C271.828 46.3843 272.053 46.5058 272.313 46.5168C272.364 46.601 272.474 46.5817 272.544 46.6231C273.48 47.1723 274.547 47.4331 275.554 47.8278C275.581 47.8389 275.627 47.8347 275.656 47.832C275.722 47.9727 275.877 47.9424 276.001 47.9548C276.07 47.9617 276.183 47.9603 276.242 47.9879C276.731 48.3149 277.306 48.5247 277.866 48.6848C277.972 48.7151 278.066 48.7855 278.179 48.7966C278.135 48.878 278.258 48.9001 278.311 48.9166L279.102 49.1678C279.054 49.2575 279.173 49.2768 279.232 49.2809L279.445 49.2947C279.547 49.47 279.759 49.4824 279.937 49.4976C280.041 49.5059 280.152 49.4741 280.255 49.4948C280.519 49.5473 280.788 49.4921 280.975 49.2892C281.083 49.2782 281.201 49.2092 281.301 49.1609C282.325 48.6627 282.69 47.2482 283.031 46.1249C283.04 46.0946 283.036 46.0352 283.027 46.0035C283.26 45.7013 283.38 45.2942 283.386 44.9078C283.386 44.8719 283.38 44.8291 283.392 44.7946C283.43 44.756 283.476 44.7187 283.508 44.6718C283.575 44.571 283.554 44.4123 283.596 44.3102C283.831 43.997 283.962 43.6106 283.975 43.2118C284 43.151 284.038 43.0572 284.07 42.9951C284.113 42.9082 284.189 42.8336 284.194 42.7274C284.2 42.6432 284.223 42.559 284.221 42.4748C284.463 42.341 284.495 42.0167 284.542 41.7531C284.549 41.72 284.542 41.6841 284.545 41.6496C284.71 41.5516 284.66 41.3046 284.761 41.1528C284.824 41.0562 284.781 40.903 284.794 40.7954C284.881 40.7416 284.973 40.645 284.989 40.5332C285.013 40.3538 285.145 40.1344 285.105 39.9481C285.462 39.53 285.565 38.9048 285.695 38.3639C285.703 38.3308 285.683 38.2907 285.695 38.2604C285.777 38.3183 285.808 38.1941 285.81 38.1307C285.813 38.0561 285.834 37.972 285.822 37.8988C286.217 37.1522 286.499 36.3008 286.707 35.47C286.723 35.4093 286.742 35.2879 286.727 35.2299C287.299 34.2405 287.761 33.0965 287.961 31.9635L287.982 31.8462C288.064 31.9042 288.094 31.7689 288.11 31.7082C288.13 31.6351 288.123 31.5564 288.129 31.4805C288.26 31.4046 288.277 31.2252 288.333 31.0886C288.36 31.0251 288.318 30.9395 288.34 30.8747C288.416 30.9188 288.454 30.796 288.457 30.7381L288.465 30.5104C288.545 30.5614 288.574 30.4303 288.574 30.371C288.574 30.3006 288.601 30.2109 288.584 30.1433C288.964 29.6051 289.183 28.8654 289.272 28.1989C289.294 28.1313 289.342 28.025 289.373 27.956C290.182 26.1234 291.267 22.6417 291.791 21.0437C291.819 20.9609 291.852 20.776 291.819 20.6932C292.525 19.7078 292.822 18.1471 291.903 17.297C291.779 17.1659 291.772 16.9148 291.572 16.8182C287 14.5991 282.223 12.9128 277.491 10.847C276.383 10.3626 274.594 10.3543 274.169 11.7453L268.172 31.3991C267.302 29.6465 266.522 27.9671 265.271 26.7568L265.284 26.7458Z" fill="#11FF00"/>
<path d="M287.501 16.5483C287.532 16.5607 287.598 16.5784 287.629 16.5689C287.842 16.7933 288.16 16.8754 288.454 16.9288C288.493 16.9356 288.534 16.9301 288.571 16.9411C288.611 16.9726 288.643 17.0164 288.687 17.0424C288.845 17.1354 289.009 17.1956 289.197 17.2901C289.348 17.3667 289.256 17.5692 289.236 17.7471C289.088 17.9278 289.011 18.1536 288.934 18.3739C288.882 18.5203 288.829 18.6667 288.788 18.8173C288.709 18.7776 288.693 18.9062 288.684 18.9582C288.647 19.1539 288.594 19.3455 288.542 19.5371C288.446 19.4878 288.476 19.6247 288.446 19.6726C288.364 19.8067 288.397 20.0024 288.327 20.1365C287.97 20.8235 287.771 21.5898 287.504 22.3206C287.493 22.3493 287.515 22.3904 287.509 22.4205C287.265 22.7695 287.2 23.2128 287.05 23.6111C286.96 23.8492 286.867 24.09 286.814 24.3405C286.675 24.3186 286.742 24.5211 286.693 24.5923C286.476 24.8988 286.504 25.3614 286.324 25.6734C286.109 26.0442 285.956 26.4356 285.866 26.8749C285.836 27.0172 285.802 27.2074 285.762 27.3415C285.555 27.566 285.519 27.8328 285.518 28.0887C285.463 28.5089 285.066 28.8291 285.058 29.2656C285.057 29.345 284.931 29.423 284.94 29.5161C284.944 29.5544 284.94 29.5982 284.931 29.6365C284.895 29.6748 284.847 29.7131 284.835 29.7638L284.688 30.3659C284.545 30.9516 284.209 31.5373 284.035 32.1408C284.014 32.2174 284.035 32.305 284.016 32.383C283.635 32.8497 283.52 33.4805 283.33 34.0526C283.276 34.2182 283.179 34.3687 283.179 34.5507C283.1 34.5069 283.091 34.6314 283.08 34.6834C283.074 34.7204 283.072 34.7655 283.076 34.8039C282.981 34.8408 282.966 34.9489 282.96 35.042C282.957 35.0817 282.964 35.1241 282.953 35.1624C282.924 35.2035 282.867 35.2377 282.851 35.2869C282.802 35.4429 282.799 35.6167 282.734 35.7618L282.622 36.0136C282.593 36.0793 282.617 36.1628 282.601 36.2339C282.421 36.4392 282.373 36.7197 282.282 36.977C282.261 37.0386 282.251 37.1303 282.256 37.1946C282.085 37.2877 282.087 37.5135 282.028 37.6845C281.678 38.6876 281.222 39.6483 280.977 40.6856C280.932 40.8758 280.66 41.0523 280.753 41.3055C280.766 41.3411 280.739 41.389 280.745 41.4273C280.542 41.5409 280.51 41.7708 280.514 41.9884C280.473 42.0992 280.368 42.2224 280.379 42.3592C280.29 42.3127 280.307 42.4441 280.284 42.492C280.201 42.6781 280.154 42.8779 280.158 43.0832C279.939 43.2447 279.791 43.5553 279.905 43.8194C279.917 43.8454 279.918 43.8796 279.921 43.9084C279.699 44.0219 279.617 44.2765 279.595 44.5187C279.591 44.5584 279.595 44.6035 279.581 44.6419C279.499 44.5871 279.472 44.7103 279.464 44.7719C279.455 44.8471 279.457 44.9238 279.453 45.0004C279.322 44.9717 279.362 45.166 279.342 45.2481C279.2 45.2563 279.055 45.2481 278.914 45.2358C278.856 45.1468 278.748 45.1386 278.653 45.1277C278.58 45.1195 278.505 45.1222 278.434 45.1099C278.486 45.0168 278.366 45.0059 278.305 45.0004L278.083 44.9785C278.126 44.8964 278.008 44.8786 277.956 44.8772L277.839 44.8731C277.801 44.8403 277.765 44.7842 277.714 44.7678C277.53 44.7103 277.344 44.6419 277.15 44.6241C277.066 44.4544 276.831 44.4626 276.671 44.401C276.523 44.3449 276.367 44.3189 276.217 44.2751C276.241 44.1369 276.049 44.1944 275.974 44.1574C275.865 44.1054 275.751 44.0671 275.634 44.0425C275.68 43.9576 275.56 43.9289 275.502 43.9234L275.285 43.907C275.325 43.8276 275.209 43.7989 275.157 43.7961L275.04 43.7907C275.023 43.7346 274.971 43.6949 274.914 43.6867C274.844 43.6757 274.771 43.6935 274.701 43.6785C274.746 43.5922 274.625 43.569 274.568 43.5649L274.351 43.5526C274.326 43.4965 274.277 43.4622 274.225 43.4349C274.05 43.3446 273.854 43.3158 273.658 43.3103C273.277 43.0312 272.802 42.9354 272.355 42.8108C272.122 42.6247 271.837 42.5344 271.553 42.4632C271.472 42.4427 271.4 42.351 271.307 42.3551C271.27 42.3565 271.228 42.3469 271.19 42.351C271.145 42.2566 271.032 42.273 270.959 42.2333C270.784 42.1376 270.6 42.0582 270.398 42.0883C270.367 42.0349 270.308 42.0253 270.261 41.9952C269.948 41.7927 269.588 41.6531 269.22 41.6093C269.265 41.5245 269.147 41.5135 269.094 41.508L268.977 41.4971C268.943 41.4588 268.906 41.3999 268.858 41.3972L268.741 41.3931C268.707 41.3575 268.672 41.2959 268.622 41.2809L268.172 41.1591C268.218 41.0715 268.091 41.0469 268.033 41.0455L267.821 41.0387C267.868 40.9524 267.743 40.9264 267.686 40.9251L267.471 40.9155C267.518 40.8293 267.399 40.8129 267.34 40.7992C267.275 40.7841 267.208 40.7841 267.141 40.7732C267.088 40.1861 267.105 39.5949 267.121 39.0051C267.178 38.8313 267.172 38.5686 267.254 38.4057C267.372 38.1744 267.44 37.9445 267.475 37.6722L267.5 37.4656C267.635 37.3356 267.714 37.1535 267.716 36.9633L267.72 36.7334C267.894 36.55 267.933 36.2503 267.943 36.0054L267.948 35.885C267.988 35.8494 268.023 35.8056 268.053 35.7604C268.169 35.5948 268.13 35.3485 268.19 35.172L268.521 34.2004L268.63 33.7337C268.713 33.7816 268.742 33.6434 268.744 33.5859L268.756 33.2493C268.841 33.2985 268.858 33.1795 268.87 33.1179L268.992 32.5295C269.106 32.5295 269.096 32.3488 269.094 32.2681L269.092 32.0341L275.266 11.6875L287.489 16.5456L287.501 16.5483ZM276.201 13.357L288.29 17.8005L275.653 12.4497L268.165 37.6517C267.922 38.4687 267.727 39.2966 268.118 40.078L276.201 13.357Z" fill="#11FF00"/>
<path d="M240.122 12.8046C240.158 12.8389 240.201 12.8635 240.247 12.8772C240.351 12.9225 240.329 13.0458 240.378 13.1225C240.358 13.365 240.357 13.6102 240.361 13.8541L240.373 14.6856L240.369 14.9268C240.292 15.0418 240.433 15.2775 240.369 15.4076C240.358 15.5679 240.357 15.7282 240.366 15.8885L240.329 22.4755C239.365 22.4385 238.478 22.4727 237.589 22.496L237.449 22.5001L236.202 22.5084C236.008 22.5084 235.729 22.4234 235.605 22.5988L233.893 22.618C233.774 22.618 233.6 22.5769 233.533 22.7029L232.387 22.7508C232.334 22.7536 232.256 22.744 232.262 22.8207C231.684 22.8522 231.09 22.9481 230.526 23.0865L230.403 23.1098L230.191 23.1125C230.142 23.1125 230.016 23.1125 230.055 23.1961C229.767 23.1687 229.521 23.3619 229.263 23.4249C228.891 23.5153 228.479 23.5235 228.188 23.8181C228.128 23.8359 228.041 23.7907 227.984 23.8181C227.63 23.9838 227.209 24.1181 226.942 24.4113C226.826 24.4223 226.703 24.4812 226.603 24.5469C226.465 24.6373 226.294 24.7031 226.265 24.8922L226.144 24.9209C225.57 25.0538 225.101 25.5895 224.764 26.0923C224.704 26.1827 224.55 26.2115 224.503 26.3266C224.481 26.3841 224.422 26.4225 224.395 26.4786L223.928 27.1705C223.893 27.2225 223.835 27.2609 223.802 27.3157C223.761 27.3842 223.74 27.4637 223.708 27.5363C223.544 27.6527 223.486 27.8678 223.438 28.05C223.415 28.1048 223.373 28.2199 223.336 28.2665C223.195 28.4459 223.026 28.8542 223.02 29.1214C223.02 29.157 223.017 29.194 223.013 29.2296C222.955 29.2542 222.903 29.3008 222.889 29.3666C222.882 29.4022 222.888 29.4419 222.882 29.4776C222.727 29.5803 222.777 29.7954 222.762 29.9612L222.75 30.0817C222.663 30.1338 222.684 30.242 222.652 30.3228C222.5 30.6996 222.597 31.1311 222.516 31.5161C222.439 31.8764 222.431 32.234 222.44 32.619L222.448 32.9519C222.451 33.0738 222.384 33.2903 222.526 33.341L222.548 33.9205C222.56 34.2137 222.61 34.5397 222.759 34.7863L222.789 35.2453C222.793 35.3028 222.813 35.4371 222.895 35.3987C222.921 35.5535 222.951 35.707 223 35.8563C223.025 35.9357 222.996 36.107 223.108 36.107C223.116 36.1796 223.108 36.2577 223.126 36.3289C223.141 36.3865 223.165 36.5139 223.245 36.47L223.35 36.6879C223.438 36.8673 223.503 37.0701 223.682 37.1687C223.716 37.329 223.802 37.4743 223.943 37.551C224.001 37.7989 224.161 37.999 224.373 38.1236C224.474 38.3497 224.652 38.5251 224.879 38.61C225.138 38.995 225.554 39.2923 226.003 39.3676C226.032 39.4087 226.082 39.4361 226.108 39.4786C226.194 39.6142 226.325 39.7128 226.481 39.7252L226.577 39.7334C226.763 39.9279 227.039 39.9416 227.29 39.9636C227.327 39.9663 227.367 39.9704 227.404 39.969C227.467 40.106 227.631 40.0608 227.754 40.0759L227.974 40.1019C228.028 40.2293 228.225 40.18 228.34 40.18L229.014 40.1828L229.725 40.1855C229.796 40.1855 229.867 40.1869 229.938 40.1828C230.02 40.1786 230.159 40.2184 230.179 40.106C230.496 40.106 230.779 39.9183 231.1 39.9567C231.154 39.9636 231.277 39.9156 231.228 39.8403C231.291 39.8142 231.386 39.8635 231.443 39.8279C231.532 39.7594 231.798 39.7704 231.719 39.5854L231.684 39.1114C231.669 38.9182 231.611 38.7812 231.591 38.6127C231.543 38.2099 231.451 37.8113 231.427 37.4044C231.411 37.1235 231.376 36.8578 231.241 36.6084L231.218 36.0851L231.2 35.7234L231.198 35.5193C231.193 35.1809 230.723 35.4288 230.515 35.4699C230.216 35.5302 229.91 35.5878 229.607 35.6111C229.556 35.6152 229.432 35.622 229.475 35.7056C229.243 35.7261 229.006 35.7549 228.791 35.8426L228.56 35.9357C228.369 35.944 228.174 35.9316 227.984 35.97C227.936 35.9796 227.897 36.0344 227.866 36.0686C227.718 36.0659 227.563 36.0358 227.416 36.0686C227.46 35.8809 227.347 35.6672 227.313 35.5056C227.425 34.8137 227.186 34.1369 227.163 33.4437C227.155 33.2231 227.176 33.0478 227.069 32.8491L227.065 32.2573C227.065 32.1765 227.096 31.9792 226.961 32.0025L226.953 31.064C226.949 30.5955 226.801 30.1297 226.827 29.6488C226.984 29.6378 227.132 29.6803 227.288 29.6214C227.398 29.5803 227.555 29.6584 227.634 29.5296C227.93 29.5652 228.279 29.5091 228.558 29.3817L228.915 29.3625C229.744 29.2104 230.598 29.072 231.439 29.0049C231.489 29.0008 231.615 29.0063 231.574 28.92C231.759 28.9104 231.944 28.9104 232.127 28.8885C232.206 28.8789 232.376 28.9145 232.384 28.8008C232.872 28.7857 233.385 28.7446 233.868 28.6501C233.982 28.6268 234.188 28.7008 234.232 28.5542C234.908 28.5802 235.615 28.4775 236.291 28.409C236.444 28.3788 236.664 28.4829 236.767 28.335C236.958 28.3994 237.384 28.3788 237.566 28.2911C237.875 28.2418 238.221 28.387 238.502 28.2062L239.057 28.2898L239.053 28.4035C238.868 28.6103 238.704 28.8432 238.61 29.1104C238.528 29.0666 238.52 29.1912 238.512 29.2474C238.506 29.2912 238.504 29.3351 238.5 29.3789C238.408 29.494 238.292 29.5872 238.15 29.62C238.048 29.42 238.067 29.1953 238.001 28.883C234.464 29.2405 231.02 29.5913 227.466 30.305C227.701 31.8655 227.584 33.4862 228.251 34.9151C228.686 33.5067 227.963 32.26 228.237 30.8873C229.867 30.4818 231.622 30.2954 233.346 30.1228C234.997 29.9571 236.577 29.4789 238.154 29.7132C238.138 29.8707 238.14 30.0502 238.059 30.19L237.915 30.4393C237.869 30.5188 237.795 30.5886 237.787 30.6914C237.784 30.7311 237.782 30.7722 237.775 30.8119C237.7 30.7886 237.683 30.8722 237.672 30.9325C237.664 30.9722 237.667 31.0133 237.662 31.0531C237.576 31.1599 237.488 31.2791 237.445 31.4134C237.264 31.9669 237.034 32.5039 236.967 33.0861C236.882 33.0409 236.886 33.1683 236.875 33.2218C236.811 33.4999 236.702 33.7698 236.728 34.0588C236.692 34.0945 236.659 34.141 236.651 34.1945C236.526 34.985 236.432 35.7823 236.437 36.5851C236.437 36.7454 236.414 36.9057 236.437 37.066V37.5469C236.437 37.6236 236.39 37.7798 236.497 37.788C236.505 37.8647 236.505 37.9551 236.519 38.0291L236.532 38.1606C236.535 38.2702 236.527 38.3853 236.536 38.4935C236.555 38.6963 236.462 38.9621 236.618 39.1114C236.607 39.1868 236.634 39.2772 236.639 39.3525C236.642 39.4032 236.696 39.4416 236.728 39.4731C236.663 39.88 236.797 40.2745 236.877 40.6718C236.906 40.813 236.89 40.9486 236.997 41.0609C237.043 41.1102 237.022 41.2335 237.093 41.276C237.154 41.5226 237.148 41.8103 237.333 41.9953C237.331 42.0336 237.33 42.0775 237.338 42.1158C237.35 42.1761 237.364 42.3008 237.449 42.2501C237.442 42.3816 237.555 42.483 237.574 42.5994C237.604 42.7871 237.675 42.9762 237.809 43.1022C237.853 43.1433 237.895 43.2625 237.934 43.3105C238.053 43.7667 238.361 44.2585 238.61 44.6599C238.728 44.8517 238.812 45.0641 238.948 45.2477C239.332 45.7696 239.669 46.3272 240.12 46.7903C240.313 46.9889 240.407 47.2972 240.677 47.4123C240.686 47.5725 240.767 47.7191 240.918 47.7726C240.925 47.8082 240.918 47.8465 240.924 47.8822C240.993 48.0041 241.151 48.2425 240.985 48.3534C240.877 48.4261 240.673 48.3247 240.577 48.463C240.511 48.4836 240.423 48.4535 240.359 48.4809C240.028 48.6233 239.95 48.4466 239.718 48.1575C237.173 44.9695 233.439 42.6323 229.401 42.2597C225.243 41.8761 221.179 43.742 218.861 47.1848C218.789 47.2931 218.758 47.4451 218.71 47.5561C218.433 47.8411 218.212 48.2164 218.147 48.6192C218.142 48.6507 218.129 48.7028 218.143 48.7302C218.046 48.8384 217.942 49.0275 217.814 48.9001C217.687 48.7727 217.612 48.5973 217.461 48.5055C217.446 48.4151 217.38 48.3384 217.344 48.2562C217.322 48.2041 217.301 48.1493 217.248 48.1247C217.239 48.0904 217.251 48.0493 217.247 48.0137C217.227 47.8342 217.234 47.5712 217.032 47.5205C217.018 47.4438 217.005 47.3629 216.985 47.2876C216.857 46.8067 216.693 46.3423 216.906 45.8724C217.045 45.5641 217.153 45.2381 217.139 44.8956C217.228 44.949 217.238 44.812 217.238 44.7517C217.238 44.6024 217.278 44.4435 217.267 44.2941C217.409 44.1366 217.351 43.8804 217.356 43.6735L217.375 43.0926C217.489 43.0899 217.452 42.9049 217.454 42.8227L217.464 42.3706L217.469 42.2268V40.9321V40.7814C217.497 40.6773 217.444 40.5554 217.464 40.4472C217.475 40.3924 217.459 40.3143 217.393 40.317C217.454 39.8772 217.329 39.4443 217.342 39.0046C217.343 38.9498 217.33 38.8826 217.269 38.8744C217.269 38.7538 217.259 38.6347 217.247 38.5155C217.238 38.4264 217.227 38.3305 217.153 38.273C217.146 38.1538 217.151 38.0346 217.128 37.9168C217.119 37.8633 217.119 37.7373 217.038 37.7825C217.027 37.7099 217.017 37.6359 217.011 37.5619C216.995 37.3304 216.923 37.1085 216.786 36.9249C216.79 36.8564 216.789 36.7893 216.786 36.7208C216.782 36.6605 216.751 36.607 216.694 36.5892L216.681 36.4687C216.654 36.2221 216.644 35.8988 216.444 35.7357C216.446 35.696 216.437 35.6522 216.433 35.6124C216.404 35.2727 216.291 34.9493 216.109 34.6699C216.065 34.5205 216.084 34.3219 215.97 34.1863C215.882 34.0821 215.886 33.8944 215.749 33.8218C215.751 33.7876 215.754 33.7437 215.743 33.7122C215.714 33.6246 215.739 33.4465 215.62 33.4382C215.564 33.1546 215.393 32.8902 215.284 32.6231C215.259 32.5628 215.212 32.5107 215.151 32.4902C215.138 32.4642 215.156 32.4203 215.15 32.3902C214.843 31.9216 214.509 31.4545 214.268 30.9626L214.02 30.4585C213.932 30.2776 213.863 30.0461 213.645 29.9694C213.604 29.9557 213.574 29.879 213.541 29.8488C213.561 29.7831 213.528 29.7365 213.461 29.7365C213.363 29.3803 213.034 29.2008 212.86 28.8939C212.83 28.8405 212.758 28.8186 212.719 28.772C211.995 27.5815 210.375 26.9965 210.882 25.1922C210.995 25.1826 210.97 25.0031 210.979 24.9155L211.016 24.5798C211.133 24.5771 211.113 24.399 211.119 24.3168L211.125 24.2058C211.175 24.1798 211.217 24.1345 211.233 24.077C211.244 24.0386 211.227 23.9934 211.238 23.9564C211.336 23.9249 211.346 23.814 211.356 23.7235L211.378 23.492C211.458 23.5386 211.461 23.4167 211.474 23.3619C211.483 23.3262 211.473 23.2865 211.478 23.2509C211.521 23.2221 211.536 23.1618 211.573 23.1276C211.672 23.0358 211.7 22.9043 211.716 22.7714C211.795 22.8152 211.803 22.6947 211.823 22.6412C211.836 22.6056 211.818 22.5549 211.833 22.5207L211.932 22.4001C212.032 22.2275 212.211 22.0275 212.186 21.8083C212.324 21.7179 212.426 21.5809 212.511 21.437C212.529 21.4069 212.51 21.3534 212.515 21.3165C212.617 21.2644 212.739 21.1822 212.75 21.0753L212.76 20.9644C212.85 21.0068 212.841 20.8986 212.851 20.8465C213.149 20.5616 213.415 20.2259 213.648 19.8807C213.811 19.8081 213.935 19.6711 214.002 19.5012C214.203 19.3245 214.39 19.1162 214.568 18.9148C214.681 18.8724 214.775 18.7888 214.815 18.6696C215.085 18.5449 215.337 18.349 215.505 18.0969C215.659 18.0805 215.815 18.0038 215.861 17.8394C215.933 17.8257 216.028 17.7764 216.078 17.7202C216.156 17.6873 216.329 17.7079 216.319 17.5832C216.86 17.2955 217.413 16.9626 217.93 16.6365C218.105 16.6132 218.29 16.5612 218.388 16.3995C218.425 16.405 218.467 16.3968 218.504 16.394C218.562 16.3886 218.613 16.3447 218.624 16.2844L218.74 16.2803C218.785 16.2557 218.825 16.2228 218.856 16.1803C219.368 16.057 219.848 15.8255 220.354 15.672C220.41 15.6542 220.525 15.6556 220.484 15.5611C220.564 15.5446 220.646 15.5337 220.726 15.5241C220.858 15.5076 220.973 15.4076 221.063 15.3227C221.327 15.3474 221.601 15.2693 221.857 15.1925C221.903 15.1788 221.94 15.1336 221.977 15.1049C222.13 15.1035 222.282 15.1021 222.433 15.0692C222.49 15.0569 222.612 15.0487 222.564 14.9569L222.781 14.9487C222.937 14.9432 223.175 14.9994 223.259 14.8295C223.328 14.8295 223.398 14.8254 223.466 14.8213C223.516 14.8172 223.646 14.8185 223.606 14.7336C223.752 14.7172 223.904 14.7363 224.049 14.7076L224.184 14.6966C224.259 14.7185 224.338 14.6062 224.406 14.6007C224.527 14.5897 224.667 14.6117 224.752 14.5021C225.079 14.5391 225.45 14.4418 225.783 14.4514C225.837 14.4527 225.966 14.4377 225.919 14.3527L226.349 14.3404C226.404 14.339 226.461 14.3103 226.487 14.2568L227.275 14.2198C227.356 14.2157 227.534 14.2363 227.541 14.1212C227.913 14.1308 228.307 14.0116 228.679 13.9911L228.812 13.9842L230.989 13.7486C231.145 13.7321 231.362 13.7938 231.466 13.6527L232.368 13.6239C232.525 13.6184 232.755 13.676 232.854 13.528C232.997 13.539 233.158 13.5211 233.302 13.5102C233.498 13.4951 233.752 13.5636 233.894 13.4061C234.504 13.4074 235.142 13.3362 235.749 13.2622C235.937 13.2389 236.135 13.2608 236.307 13.154L237.559 13.1101C237.776 13.1019 238.015 13.0841 238.161 12.9005C238.618 12.9786 239.074 12.9553 239.531 12.8772C239.65 12.8567 239.767 12.869 239.876 12.8046C239.943 12.7759 240.051 12.8375 240.125 12.8224L240.122 12.8046ZM228.5 15.2199L238.961 14.1938C239.217 14.1692 239.459 14.2089 239.517 14.0143C239.552 13.8965 239.592 13.4376 239.422 13.454C234.567 13.9308 229.793 14.2322 224.989 15.0514C219.182 16.0419 213.012 18.6545 211.495 25.1785C211.367 25.7306 211.18 26.3074 211.812 26.7129C213.263 18.4381 221.411 15.9159 228.502 15.2199H228.5ZM227.63 40.9787C229.349 41.9898 231.39 41.2185 233.192 40.8225L232.169 34.7123C231.381 36.5344 232.595 38.3264 232.28 40.2115C230.91 40.9979 229.272 40.9171 227.63 40.9787ZM219.605 39.221C219.277 39.4388 219.405 39.7622 219.513 39.9293C219.68 40.1869 219.931 40.2828 220.118 40.1033C220.305 39.9238 220.364 39.5717 220.258 39.3539C220.168 39.1703 219.821 39.0772 219.603 39.221H219.605ZM223.165 41.8583C222.306 40.8349 220.842 40.7965 219.832 41.313C220.079 42.1432 220.779 42.4652 221.407 42.646C221.995 42.8145 222.808 42.4789 223.163 41.8583H223.165ZM217.737 46.8506C218.421 45.5436 218.532 43.805 218.259 42.3487C218.18 43.8886 217.174 45.3244 217.737 46.8506Z" fill="#11FF00"/>
<path d="M197.327 20.5469C197.366 20.5469 197.409 20.5469 197.449 20.551L198.246 20.6522L198.378 20.666C198.529 20.6827 198.68 20.6951 198.831 20.6882C198.899 20.8226 199.074 20.7769 199.198 20.7797C199.299 20.7824 199.404 20.8004 199.503 20.7949C199.52 20.9071 199.685 20.885 199.769 20.8891L200.203 20.9127C200.192 21.0318 200.366 21.0166 200.443 21.0374L201.933 21.4142L202.059 21.417C202.137 21.5085 202.271 21.55 202.386 21.5306C202.39 21.6512 202.557 21.6359 202.637 21.6415L202.743 21.6484C202.792 21.7482 202.899 21.7302 202.982 21.7593C203.129 21.8105 203.272 21.8687 203.426 21.8923C203.376 21.9823 203.493 22.0017 203.553 22.0087L203.772 22.0336C203.789 22.0946 203.846 22.114 203.896 22.1348C204.26 22.2941 204.643 22.5005 205.023 22.6058C205.068 22.7098 205.183 22.725 205.28 22.7347C205.432 22.9134 205.73 23.0451 205.958 23.1019C205.911 23.1836 206.032 23.2169 206.088 23.2224C206.657 23.2765 207.233 23.2723 207.796 23.2155L208.04 23.1906C208.388 23.1822 208.752 23.0617 209.072 23.2307C209.081 23.2834 209.072 23.3873 209.157 23.3416C209.173 23.3735 209.157 23.4206 209.168 23.4538C209.172 23.4982 209.193 23.5425 209.195 23.5868C209.201 23.7448 209.195 23.9028 209.194 24.0607L209.189 24.5664C209.188 24.7549 209.223 24.9558 209.189 25.1415C209.161 25.2953 209.267 25.4047 209.277 25.5336C209.303 25.8841 209.527 26.1252 209.764 26.3649C209.802 26.412 209.844 26.455 209.892 26.4938C210.107 26.7113 210.297 26.9649 210.563 27.1118C210.583 27.17 210.626 27.2143 210.682 27.2323C210.844 27.4969 211.028 27.7505 211.262 27.95C211.297 27.9985 211.338 28.0429 211.382 28.083C211.503 28.3435 211.76 28.6068 211.953 28.798C212.022 28.9657 212.139 29.1056 212.298 29.1804C212.308 29.2982 212.4 29.4063 212.509 29.4326C212.587 29.5989 212.669 29.7748 212.826 29.8691C212.851 29.9744 212.928 30.0589 212.989 30.142C213.003 30.1974 212.999 30.3235 213.083 30.2764C213.196 30.548 213.315 30.8542 213.567 31.0094C213.577 31.1674 213.635 31.3364 213.796 31.3696C213.799 31.4071 213.786 31.4459 213.794 31.4819C213.804 31.5359 213.813 31.6592 213.891 31.6149C213.931 31.7063 213.977 31.795 214.043 31.8698C214.057 32.0583 214.14 32.2329 214.288 32.3409C214.308 32.4255 214.34 32.5044 214.377 32.582C214.384 32.6333 214.361 32.7483 214.453 32.7081C214.477 32.9686 214.6 33.1958 214.706 33.4286C214.729 33.4785 214.725 33.5644 214.799 33.5603L214.833 33.9039C214.839 33.9621 214.888 34.0078 214.936 34.0313C214.947 34.0688 214.927 34.1159 214.941 34.1533C214.962 34.2087 214.983 34.3403 215.063 34.2904L215.291 35.1204C215.442 35.6663 215.552 36.2455 215.855 36.7249C215.867 36.7582 215.863 36.8164 215.856 36.851C215.827 37.0256 215.861 37.1835 215.948 37.3304C215.985 37.426 215.954 37.5715 215.981 37.674C216.013 37.7987 215.943 38.008 216.084 38.0675C216.078 38.1853 216.114 38.3169 216.122 38.4361C216.145 38.7603 216.183 39.0956 216.32 39.388C216.274 39.5681 216.343 39.7926 216.34 39.9783C216.337 40.1875 216.264 40.4632 216.42 40.6142L216.333 43.5129L216.324 43.6542C216.288 43.7914 216.362 43.9909 216.308 44.1184C216.18 44.3484 216.21 44.6006 216.21 44.861C216.21 44.958 216.214 45.1271 216.188 45.2144C215.844 46.0235 215.72 46.9269 215.479 47.7805C215.468 47.8165 215.485 47.8608 215.479 47.8982C215.33 48.0132 215.353 48.2155 215.292 48.3721C215.214 48.5772 215.075 48.7573 215.052 48.9859C214.966 48.936 214.962 49.0691 214.944 49.1272C214.932 49.1633 214.955 49.2145 214.941 49.2492C214.888 49.2575 214.826 49.3032 214.82 49.3614L214.801 49.6053C214.752 49.6247 214.718 49.6732 214.71 49.7272C214.705 49.7632 214.714 49.802 214.71 49.8394C214.519 49.9738 214.495 50.2371 214.39 50.4422C214.356 50.5101 214.378 50.6223 214.334 50.6819C213.938 51.2167 213.627 51.8638 213.374 52.4831L213.327 52.5981C212.033 54.2082 210.733 55.785 209.273 57.2564C209.177 57.3008 209.049 57.4158 208.958 57.4837C206.485 59.3237 203.872 60.7564 200.925 61.5476C200.768 61.5892 200.611 61.6224 200.451 61.6432C200.401 61.6501 200.359 61.6945 200.324 61.7263C200.211 61.7333 200.097 61.7416 199.986 61.7651C199.709 61.8219 199.401 61.8247 199.164 61.9771C199.055 61.9771 198.946 62.0007 198.838 62.009C198.716 62.0187 198.558 61.9674 198.483 62.0977C198.268 61.9924 198.007 62.1697 197.797 62.1295C197.588 62.0894 197.395 62.2057 197.218 62.2251L193.073 62.2168C192.831 62.0672 192.536 62.0436 192.258 62.027L191.589 61.9868C191.589 61.8635 191.416 61.9051 191.337 61.8871C191.194 61.8552 191.029 61.8413 190.886 61.8524C190.834 61.7651 190.73 61.7873 190.655 61.7499C190.511 61.6764 190.364 61.7319 190.217 61.7208C190.073 61.427 189.68 61.4769 189.401 61.4104C189.363 61.4021 189.319 61.4132 189.284 61.3979C189.335 61.3079 189.218 61.2774 189.155 61.2705C188.967 61.2497 188.786 61.1929 188.599 61.1555C188.56 61.0017 188.35 61.0599 188.234 61.0335C187.991 60.8215 187.599 60.8409 187.338 60.6705C187.059 60.4876 186.756 60.2756 186.407 60.2895C186.342 60.2465 186.263 60.1509 186.174 60.1523C186.188 59.9403 185.871 60.0304 185.818 59.9278C185.718 59.7311 185.488 59.7837 185.349 59.6881L182.72 57.8841C182.621 57.8162 182.539 57.7095 182.403 57.7317C182.146 57.201 181.574 56.8726 181.117 56.5359C181.034 56.475 181.014 56.2976 180.881 56.2879C180.856 56.2325 180.811 56.1896 180.757 56.166C180.69 55.9859 180.413 55.7974 180.285 55.681C179.854 55.0797 179.21 54.2968 178.688 53.7412C178.694 53.7107 178.687 53.6775 178.69 53.647C178.5 53.3505 178.342 52.975 178.004 52.8614C177.997 52.8337 178 52.8046 177.989 52.7783C177.959 52.6979 177.997 52.5122 177.881 52.5178C177.844 52.4069 177.837 52.2587 177.765 52.1631C177.451 51.7391 177.293 51.2112 176.956 50.8038C176.952 50.7802 176.962 50.7373 176.95 50.7165C176.836 50.5087 176.808 50.2426 176.632 50.0847C176.643 49.96 176.573 49.8325 176.51 49.7314C176.48 49.6842 176.43 49.651 176.394 49.6094C176.386 49.5706 176.391 49.5277 176.39 49.4875C176.385 49.3919 176.366 49.2852 176.276 49.2423C176.276 49.209 176.282 49.1605 176.269 49.1314C176.167 48.8917 176.02 48.6506 175.953 48.3929C175.797 47.7846 175.665 47.1653 175.468 46.5681C175.437 46.4503 175.501 46.2466 175.37 46.1926C175.414 46.1025 175.325 45.946 175.342 45.8476C175.351 45.7977 175.332 45.6605 175.257 45.7062C175.205 45.267 175.132 44.8306 175.111 44.3886C175.109 44.3359 175.104 44.2029 175.024 44.2472L174.988 43.5378C174.982 43.4145 175.041 43.2247 174.91 43.1623C174.875 41.4969 174.827 39.8286 175.101 38.1867C175.109 38.141 175.109 38.0925 175.113 38.0468L175.136 37.7004C175.219 37.7433 175.211 37.6103 175.216 37.5577C175.243 37.3179 175.266 37.0796 175.264 36.8385C175.286 36.7984 175.338 36.7637 175.35 36.7166C175.448 36.3148 175.611 35.9185 175.607 35.5001C175.649 35.4724 175.688 35.4252 175.69 35.3726L175.698 35.1454C175.781 35.1966 175.797 35.0705 175.808 35.0096C175.821 34.9347 175.819 34.8572 175.829 34.7823C176.012 34.5454 176.12 34.2517 176.129 33.9454C176.177 33.8623 176.221 33.7764 176.257 33.6877C176.382 33.6545 176.39 33.5561 176.257 33.5547L176.617 32.8356C177.361 31.3433 178.288 29.9979 179.131 28.5791C179.267 28.4461 179.554 28.3214 179.597 28.0858C179.622 28.0484 179.68 27.9805 179.716 27.9542C179.804 27.8891 179.874 27.8142 179.933 27.72C179.964 27.6701 180.031 27.6355 180.074 27.5967C180.221 27.4679 180.301 27.2323 180.432 27.0993C180.651 26.9538 180.867 26.7903 180.972 26.5243C181.198 26.4896 181.292 26.2333 181.451 26.1072L184.301 23.8224C184.905 23.422 185.727 23.2363 186.285 22.7236C186.361 22.653 186.525 22.6834 186.616 22.6128L186.756 22.5033C186.875 22.5102 186.972 22.4091 187.081 22.3855C187.219 22.3551 187.347 22.3426 187.455 22.2345C187.499 22.1902 187.648 22.2193 187.657 22.1334C187.733 22.107 187.905 22.1486 187.901 22.0239C188.176 22.0253 188.416 21.8036 188.685 21.7634C188.741 21.7551 188.864 21.7371 188.818 21.6484L189.384 21.5279C189.441 21.5154 189.558 21.5015 189.509 21.4115L189.839 21.4004C189.895 21.399 189.942 21.3477 189.96 21.2923C189.993 21.2771 190.04 21.2965 190.076 21.2868L190.2 21.2646H190.412C190.471 21.2632 190.543 21.248 190.535 21.1704L190.65 21.1662C190.701 21.1648 190.819 21.151 190.776 21.0665C190.962 21.0595 191.15 21.054 191.336 21.0374C191.394 21.0318 191.516 21.0152 191.467 20.9251C191.615 20.9265 191.759 20.8919 191.906 20.8822C192.2 20.8642 192.707 20.781 192.963 20.6979C193.042 20.673 193.213 20.6397 193.291 20.6674C193.474 20.7339 193.818 20.5704 193.999 20.569L197.321 20.551L197.327 20.5469ZM205.034 24.191L203.804 25.0985L204.924 27.1921C206.025 26.5381 207.099 26.2749 208.304 26.8097C208.514 26.0573 208.451 25.3881 208.347 24.6981C208.098 23.0423 208.916 24.1272 205.617 23.7406C196.527 18.5807 184.865 21.1399 178.827 30.0755C175.62 34.8225 174.346 41.3708 176.538 46.963C175.313 40.6544 176.324 34.6507 180.196 29.6418C185.863 22.3107 195.901 19.7031 204.159 23.5023C204.563 23.724 204.968 23.7379 205.035 24.191H205.034ZM199.775 31.8892C200.765 29.513 200.683 28.2424 203.346 27.6133L202.303 25.1373C198.92 26.0892 198.532 27.8281 197.298 30.8764C198.142 31.2034 198.861 31.6717 199.775 31.8892ZM211.89 41.3818C210.841 42.5 209.275 42.4349 207.82 42.4127C207.449 43.1595 207.427 43.9895 207.356 44.8153C210.337 45.9626 214.009 44.6019 214.799 41.3403C215.181 39.7635 214.948 38.1853 213.996 37.0796C213.044 35.9739 211.702 35.64 210.179 35.9351C210.832 35.1855 210.985 34.2198 210.503 33.4633C210.033 32.7261 209.186 32.3437 208.375 32.8079C207.691 33.1986 207.472 34.0507 207.674 34.81C207.876 35.5693 208.381 36.0363 209.249 36.2621C207.663 37.0672 206.268 38.0648 205.116 39.4739C205.847 40.3634 206.59 41.1699 207.404 41.8363C208.318 41.0493 210.707 37.6103 211.982 39.1912C212.439 39.7593 212.459 40.775 211.891 41.3791L211.89 41.3818ZM204.183 38.8019C205.449 38.6938 205.933 37.426 205.668 36.3771C205.377 35.2285 204.465 34.5163 203.282 35.004C202.459 35.3435 202.251 36.4145 202.44 37.3318C202.592 38.0689 203.24 38.8823 204.183 38.8019ZM203.685 41.8225C203.685 41.5703 203.492 41.3666 203.253 41.3666C203.015 41.3666 202.822 41.5703 202.822 41.8225C202.822 42.0746 203.015 42.2783 203.253 42.2783C203.492 42.2783 203.685 42.0746 203.685 41.8225ZM203.327 43.8357C203.101 43.9563 203.237 44.4703 203.35 44.6504C203.505 44.8957 203.85 44.8735 204.025 44.6962C204.243 44.4772 204.271 44.1336 204.094 43.9549C203.934 43.7928 203.573 43.7055 203.325 43.8371L203.327 43.8357ZM200.595 44.9248C200.595 44.6684 200.399 44.4606 200.155 44.4606C199.911 44.4606 199.714 44.6684 199.714 44.9248C199.714 45.1811 199.911 45.389 200.155 45.389C200.399 45.389 200.595 45.1811 200.595 44.9248ZM196.907 49.712C196.907 47.3274 195.077 45.3945 192.819 45.3945C190.561 45.3945 188.731 47.3274 188.731 49.712C188.731 52.0965 190.561 54.0294 192.819 54.0294C195.077 54.0294 196.907 52.0965 196.907 49.712ZM202.398 46.8036C202.398 46.5362 202.192 46.3187 201.939 46.3187C201.686 46.3187 201.48 46.5362 201.48 46.8036C201.48 47.071 201.686 47.2886 201.939 47.2886C202.192 47.2886 202.398 47.071 202.398 46.8036ZM190.49 54.2705C192.481 56.0524 195.386 55.361 196.881 53.4669C198.403 51.5395 198.618 48.6617 196.823 46.7621C197.843 48.9831 197.633 51.2181 196.21 52.9902C194.812 54.7305 192.576 54.9162 190.489 54.2705H190.49ZM176.567 47.0877C176.589 47.0572 176.492 48.0479 176.826 47.7209C176.842 47.7056 176.74 46.8452 176.567 47.0877ZM205.704 51.3262C205.714 49.0109 207.09 49.2506 206.561 47.9592C206.427 47.6336 206.072 47.2872 205.592 47.3883C203.639 47.8026 201.935 49.7452 202.022 51.8721C202.074 53.1551 203.113 53.7094 204.147 53.5112C205.061 53.3366 205.697 52.4762 205.704 51.3262ZM177.082 48.2668C177.082 48.192 177.024 48.131 176.954 48.131C176.883 48.131 176.825 48.192 176.825 48.2668C176.825 48.3416 176.883 48.4026 176.954 48.4026C177.024 48.4026 177.082 48.3416 177.082 48.2668ZM190.425 54.1652C190.425 54.132 190.398 54.1043 190.367 54.1043C190.335 54.1043 190.309 54.132 190.309 54.1652C190.309 54.1985 190.335 54.2262 190.367 54.2262C190.398 54.2262 190.425 54.1985 190.425 54.1652Z" fill="#11FF00"/>
<path d="M262.566 26.4091C262.64 26.4914 262.707 26.7075 262.845 26.7047C262.952 26.9905 263.108 27.2764 263.38 27.3991C263.38 27.4395 263.38 27.4883 263.393 27.5274C263.414 27.5859 263.441 27.7086 263.521 27.6626C263.552 27.71 263.624 27.7463 263.645 27.7993C263.818 28.2329 264.093 28.6177 264.334 29.0082C264.45 29.1964 264.557 29.4097 264.645 29.6161C264.667 29.6691 264.665 29.7792 264.747 29.743C264.747 30.0065 264.904 30.2296 264.994 30.4666C265.015 30.5224 265.054 30.5684 265.101 30.5991L265.118 30.8236C265.122 30.8822 265.17 30.9324 265.221 30.9519L265.226 31.0746C265.229 31.1359 265.25 31.2614 265.334 31.2112C265.357 31.2754 265.317 31.366 265.346 31.426C265.547 31.8582 265.517 32.3839 265.796 32.7701C265.793 32.8984 265.781 33.0295 265.799 33.1563C265.818 33.2832 265.767 33.491 265.9 33.5412C265.952 33.9009 266.026 34.2621 266.033 34.6246L266.051 35.6271C266.053 35.7373 266.046 35.853 266.044 35.9646L266.042 36.3522L266.035 36.8137L266.031 36.9615L265.901 38.3126C265.874 38.5943 265.691 38.8704 265.69 39.166C265.69 39.3375 265.633 39.509 265.682 39.6819C265.3 39.9315 265.442 40.5324 265.221 40.8685C265 41.2045 264.964 41.6256 264.775 41.9561L263.662 43.904L262.95 44.8953C262.833 45.0599 262.566 45.2286 262.569 45.4754C262.253 45.5674 262.104 45.8867 261.895 46.1182C261.736 46.2925 261.364 46.2995 261.347 46.6466C261.343 46.7275 261.207 46.8 261.216 46.8962C261.137 46.8809 261.054 46.8962 260.994 46.9576L260.879 46.9687C260.833 47.0134 260.792 47.0608 260.751 47.111C260.657 47.1444 260.56 47.2309 260.532 47.3341C260.454 47.3647 260.286 47.355 260.303 47.4805C260.084 47.6575 259.882 47.896 259.607 47.9671C259.443 48.0103 259.287 48.1149 259.196 48.2655C259.023 48.3059 258.804 48.3826 258.719 48.5681C258.534 48.582 258.32 48.6224 258.247 48.8274C258.216 48.8176 258.173 48.8176 258.141 48.8218C258.09 48.8288 257.975 48.8358 258.017 48.918C257.614 49.0128 257.272 49.2778 256.882 49.42C256.808 49.4576 256.633 49.4284 256.644 49.5539C256.529 49.5511 256.413 49.6138 256.31 49.6626C256.265 49.6849 256.235 49.7379 256.196 49.7686C256.084 49.7714 255.973 49.7853 255.861 49.7993C255.811 49.816 255.768 49.8453 255.737 49.8913C255.707 49.9038 255.643 49.8829 255.622 49.9038L255.495 49.9248C255.342 49.9275 255.186 49.9596 255.053 50.0391C255.007 50.067 254.972 50.1116 254.933 50.1465C254.902 50.1534 254.855 50.166 254.825 50.1548C254.65 50.0893 254.512 50.2468 254.372 50.2873C254.195 50.3277 253.982 50.2329 253.8 50.2873C253.65 50.3333 253.417 50.2148 253.324 50.3905L251.971 50.4253L250.807 50.4211L250.024 50.4086C249.756 50.3361 249.484 50.2678 249.206 50.2915C249.142 50.297 249.068 50.2692 249.007 50.2817C248.987 50.1716 248.827 50.1785 248.741 50.1716C248.599 50.159 248.452 50.1548 248.31 50.1548C248.283 49.9973 248.069 50.0377 247.958 50.0321L247.844 50.0279C247.798 49.9275 247.695 49.9401 247.609 49.9178L247.166 49.8021C247.182 49.6626 246.99 49.7268 246.924 49.6724C246.77 49.5469 246.52 49.611 246.365 49.5162C246.149 49.3837 245.942 49.2276 245.686 49.183C245.647 49.176 245.594 49.183 245.559 49.1634C245.613 49.0589 245.517 49.0533 245.45 49.0686C245.381 48.9989 245.268 48.9961 245.198 48.9362C245.091 48.8469 244.989 48.7521 244.855 48.7131C244.826 48.7047 244.787 48.7089 244.761 48.6935C244.817 48.6057 244.707 48.582 244.647 48.5583C244.617 48.5471 244.57 48.5667 244.544 48.5485C244.589 48.4537 244.471 48.4593 244.413 48.4467C244.318 48.3394 244.205 48.2641 244.077 48.2125C244.042 48.1609 243.995 48.1191 243.956 48.0717C243.816 47.9016 243.542 47.8653 243.397 47.7217C242.965 47.288 242.498 46.8781 242.009 46.5184C241.927 46.4584 241.912 46.2827 241.787 46.2562C241.755 46.206 241.713 46.1628 241.666 46.1279C241.627 46.0959 241.588 46.0513 241.558 46.0094C241.531 45.955 241.491 45.909 241.442 45.8784C241.428 45.6608 241.161 45.6385 241.068 45.5103L239.851 43.798C239.516 43.3281 239.321 42.7271 239.046 42.2196C239.032 42.1192 238.991 42.03 238.918 41.9658C238.883 41.9338 238.864 41.8808 238.825 41.8515C238.8 41.7316 238.859 41.521 238.722 41.4736C238.735 41.3997 238.701 41.3175 238.701 41.2422C238.701 41.1473 238.685 41.0372 238.593 40.9967L238.588 40.874C238.585 40.8211 238.537 40.7778 238.495 40.7486L238.476 40.5032C238.472 40.4474 238.46 40.3247 238.38 40.3707L238.237 39.5355C238.227 39.4741 238.232 39.3375 238.139 39.3905L238.119 39.053C238.115 38.9973 238.077 38.9471 238.038 38.9108C238.074 38.6989 238.038 38.4953 237.988 38.2903C237.958 38.1676 237.988 38.0212 237.891 37.9236L237.893 35.9855V35.5951L237.898 35.1224L237.901 34.9913C237.908 34.679 238.01 34.3332 238.012 34.0222L238.12 33.7503C238.069 33.2051 238.354 32.7255 238.382 32.1901C238.464 32.2361 238.46 32.1092 238.473 32.0548C238.491 31.9739 238.448 31.8735 238.473 31.7955C238.498 31.7174 238.572 31.6546 238.601 31.5765C238.607 31.5417 238.585 31.4957 238.598 31.4636C238.675 31.4789 238.697 31.3869 238.706 31.3214C238.711 31.2809 238.701 31.2377 238.71 31.1987C238.762 31.1778 238.801 31.1262 238.808 31.0662C238.821 30.9463 238.822 30.825 238.823 30.7037C238.933 30.6298 238.994 30.5043 239.025 30.3718C239.094 30.2533 239.133 30.1208 239.162 29.9856C239.27 29.9396 239.344 29.8392 239.387 29.7248C239.721 28.8408 240.279 28.0935 240.761 27.2987C240.847 27.3517 240.856 27.2248 240.871 27.1634C241.256 26.8511 241.562 26.4398 241.887 26.0591C241.933 26.0187 241.976 25.9741 242.015 25.928C242.177 25.8653 242.23 25.6743 242.345 25.5655C242.64 25.288 243.057 25.1054 243.211 24.7052C243.233 24.7066 243.259 24.6913 243.28 24.6996C243.348 24.7261 243.438 24.6913 243.393 24.5992C243.584 24.6146 243.636 24.3803 243.758 24.2967C249.796 20.1875 257.557 20.8624 262.562 26.4063L262.566 26.4091ZM258.03 41.0065C258.03 39.463 256.86 38.2108 255.417 38.2108C253.973 38.2108 252.803 39.463 252.803 41.0065C252.803 42.5501 253.973 43.8022 255.417 43.8022C256.86 43.8022 258.03 42.5501 258.03 41.0065ZM253.9 44.3125C255.334 45.5744 257.201 45.1129 258.375 43.8593C259.495 42.6616 259.703 40.5966 258.461 39.1729C258.922 40.9159 258.69 42.1276 257.685 43.2849C256.731 44.3822 255.381 44.6039 253.901 44.3125H253.9Z" fill="#11FF00"/>
<path d="M239.976 50.0715C240.036 50.2845 239.98 50.5749 239.984 50.7975C239.992 51.2524 240.006 51.7156 239.86 52.1443C239.822 52.2549 239.811 52.3725 239.829 52.4886L239.066 53.2409L238.959 53.3377C238.905 53.3487 238.764 53.3335 238.818 53.4331L238.72 53.4192L238.615 53.44L237.02 53.227C236.441 53.1496 236.032 52.4527 235.441 52.3531L235.422 52.2881C235.409 52.2466 235.405 52.1733 235.369 52.1526C235.318 52.1249 235.26 52.1402 235.218 52.1457C235.19 52.1498 235.157 52.125 235.13 52.1332C234.539 51.2856 233.647 50.4255 232.541 49.9955C232.586 50.9883 233.303 51.5926 233.506 52.4126V52.6145L233.513 53.729C233.513 53.8769 233.559 54.0318 233.495 54.1729C233.47 54.2295 233.4 54.2752 233.386 54.336C233.368 54.4135 233.386 54.502 233.376 54.5822C232.126 56.5181 228.197 57.7155 226.573 55.492C226.564 55.4699 226.579 55.4243 226.565 55.4091L226.57 55.2846L226.582 55.0606C226.658 53.5769 228.722 52.9021 230.029 52.0503C227.91 50.6979 231.302 50.0245 227.109 46.4652C226.804 46.6961 226.547 46.8621 226.392 47.1165C227.357 47.9393 228.345 48.892 228.347 50.2457C228.35 51.6908 227.162 52.3075 226.132 52.974C226.106 52.9906 226.057 52.9698 226.027 52.9795C225.978 52.9961 225.857 52.9878 225.897 53.0749C225.562 53.0735 225.216 53.3211 224.885 53.2104C222.941 52.5578 223.134 49.0068 222.769 48.9169C220.883 48.4523 223.016 53.6903 224.063 54.0816C224.065 54.1189 224.081 54.1576 224.082 54.195C224.085 54.2793 224.076 54.3637 224.068 54.448C223.936 54.6112 223.84 54.8062 223.83 55.0233C223.727 55.0302 223.691 55.1643 223.617 55.2086C223.335 55.3773 223.059 55.5598 222.809 55.781C222.752 55.8322 222.663 55.8419 222.61 55.9041C222.557 55.9124 222.446 55.9041 222.492 55.9926C222.465 56.012 222.416 55.9871 222.388 56.0023C222.344 56.0272 222.306 56.0659 222.274 56.106L222.047 56.1309C221.964 56.1406 221.876 56.1585 221.819 56.2291C221.451 56.1585 221.027 56.294 220.684 56.1129C220.646 56.0922 220.611 56.0286 220.566 56.023C220.421 56.005 220.275 55.8917 220.127 55.8917C219.953 55.5999 219.55 55.6469 219.445 55.2749C219.42 55.1864 219.277 55.1187 219.219 55.0551C219.202 54.961 219.197 54.8228 219.087 54.8062C219.048 54.6651 218.955 54.549 218.867 54.4411C218.86 54.39 218.883 54.2752 218.791 54.3153L218.764 54.0844C218.757 54.0249 218.732 53.9018 218.651 53.9502L218.531 53.3639V51.7668L218.624 51.0644C218.774 50.8514 218.788 50.579 218.77 50.3204C218.997 49.8793 219.242 49.452 219.428 48.9888C219.468 48.9528 219.53 48.9169 219.548 48.8602L219.662 48.5034C219.778 48.52 219.756 48.3306 219.795 48.2545C220.033 48.0886 220.074 47.7125 220.236 47.5189C225.062 41.732 232.695 42.3832 237.99 47.4733C238.799 48.2504 239.672 48.9694 239.975 50.0674L239.976 50.0715ZM224.947 45.6024C228.578 43.99 232.086 44.7907 235.649 46.6063C230.964 42.3238 222.854 43.188 219.868 49.3442C219.171 50.7809 218.551 52.7223 219.64 54.2323C219.445 50.4864 221.629 47.0764 224.947 45.6037V45.6024ZM235.891 46.7418C235.891 46.7086 235.865 46.6809 235.834 46.6809C235.803 46.6809 235.777 46.7086 235.777 46.7418C235.777 46.775 235.803 46.8026 235.834 46.8026C235.865 46.8026 235.891 46.775 235.891 46.7418ZM224.64 52.1111C224.295 50.7436 224.404 49.3801 223.703 48.3804C223.268 49.5862 223.853 51.2773 224.64 52.1111ZM230.26 51.1418C230.692 50.3688 230.494 49.2847 229.901 48.6749C230.062 49.5433 229.761 50.308 230.26 51.1418ZM231.254 52.8468C231.211 52.4568 231.121 52.2798 231.042 52.0683C230.963 51.8567 230.819 51.6797 230.618 51.9023C230.522 52.0074 230.455 52.4209 230.323 52.5052C229.218 53.2118 228.034 53.7843 227.267 54.9527C227.188 55.1353 227.635 55.3551 227.799 55.3731C227.641 55.3565 231.046 52.992 231.255 52.8468H231.254Z" fill="#11FF00"/>
<path d="M265.742 46.109C265.81 46.1271 265.887 46.1104 265.956 46.1229C266.047 46.2453 266.185 46.3065 266.321 46.3565C266.467 46.4108 266.617 46.4539 266.767 46.4984C266.72 46.5985 266.86 46.5651 266.902 46.5999C267.091 46.7571 267.386 46.682 267.582 46.7376L276.853 50.4715C277.096 50.5702 276.863 51.1196 276.815 51.2447C276.808 51.2809 276.824 51.3226 276.815 51.3574C276.782 51.3963 276.733 51.4297 276.711 51.4783C276.661 51.5868 276.634 51.705 276.6 51.8191C276.484 51.8191 276.501 52.0012 276.478 52.0888C276.459 52.1598 276.46 52.2376 276.453 52.31C276.385 52.3253 276.379 52.3976 276.362 52.4532C276.231 52.8718 275.948 53.225 275.888 53.6645C275.801 53.62 275.815 53.7535 275.794 53.8035C275.731 53.9551 275.686 54.1137 275.651 54.275C275.573 54.2305 275.565 54.3556 275.555 54.4113C275.548 54.4488 275.547 54.4947 275.551 54.5336C275.465 54.5851 275.457 54.6852 275.434 54.7742C275.402 54.891 275.336 55.0092 275.324 55.1302C275.201 55.1121 275.235 55.3054 275.201 55.3861C275.07 55.5335 275.001 55.7936 275.008 55.9952C274.731 56.3318 274.548 56.7712 274.5 57.2162C274.434 57.2774 274.411 57.3622 274.398 57.4512C274.313 57.4067 274.3 57.5291 274.288 57.5889C274.2 58.0687 273.853 58.4372 273.8 58.9267C273.755 58.9518 273.713 58.9963 273.702 59.0505C273.695 59.088 273.699 59.1339 273.697 59.1729C273.6 59.2438 273.484 59.2702 273.368 59.2702C273.26 59.1534 273.063 59.1409 272.917 59.1325C272.961 59.0463 272.843 59.0394 272.79 59.0366L272.569 59.0255C272.612 58.9212 272.498 58.9239 272.441 58.917L272.223 58.892C272.266 58.8099 272.149 58.8002 272.098 58.7891C272.062 58.7821 272.017 58.7793 271.982 58.7835C271.931 58.6931 271.828 58.7001 271.75 58.6611C271.641 58.6055 271.536 58.5624 271.414 58.5471C271.434 58.4122 271.247 58.4636 271.171 58.4275C271.029 58.3607 270.871 58.2606 270.711 58.2842C270.66 58.1966 270.559 58.1925 270.471 58.1855C270.436 58.1827 270.398 58.1925 270.365 58.1813C270.326 58.148 270.293 58.0826 270.243 58.0645C269.354 57.753 268.506 57.3136 267.599 57.0632C267.641 56.9784 267.523 56.9729 267.472 56.9617L266.907 56.8352C266.958 56.7281 266.831 56.7392 266.775 56.7225L265.98 56.4792C265.664 56.3832 265.393 56.1426 265.045 56.0981C264.944 55.8575 264.515 55.9827 264.369 55.8728C264.158 55.7129 263.82 55.5377 263.538 55.4904C263.389 55.4654 263.254 55.3458 263.09 55.3694C263.139 55.279 263.017 55.2651 262.957 55.2582L262.516 55.2025L262.427 55.2151C262.318 54.962 262.062 54.9049 261.819 54.8924C261.725 54.8229 261.6 54.7798 261.483 54.7589C261.397 54.745 261.326 54.6421 261.23 54.6407C261.193 54.6101 261.161 54.5392 261.11 54.5267C260.993 54.4989 260.872 54.4794 260.77 54.4085V54.2652C260.801 53.9551 261.046 53.7451 261.117 53.4503C261.157 53.4044 261.217 53.3683 261.245 53.3112C261.321 53.1555 261.424 53.0025 261.463 52.8301C261.583 52.8509 261.555 52.6562 261.584 52.577L262.158 51.4964C262.198 51.4491 262.257 51.4144 262.29 51.3601C262.477 51.0542 262.703 50.758 262.748 50.3922C262.831 50.4451 262.848 50.3227 262.865 50.2601C262.876 50.2212 262.864 50.1781 262.869 50.1377C263.018 50.0849 263.089 49.9305 263.09 49.7706C263.129 49.7414 263.154 49.6913 263.187 49.6552C263.222 49.6093 263.293 49.5759 263.316 49.5189C263.624 48.7318 264.237 48.0573 264.357 47.2104C264.44 47.2243 264.523 47.1909 264.558 47.1186C264.599 47.0352 264.6 46.9462 264.591 46.8655C264.932 46.6708 264.894 46.1521 265.269 45.9922C265.431 46.0117 265.585 46.0687 265.742 46.1104V46.109ZM265.993 47.5775L276.12 51.0931L265.502 46.6917L261.753 53.5157C261.552 53.8814 262.14 53.9565 262.345 53.9468C262.636 53.9343 262.649 53.6492 262.801 53.3766L265.995 47.5789L265.993 47.5775Z" fill="#11FF00"/>
<path d="M248.499 85.4621C248.616 85.4649 248.734 85.4927 248.85 85.5081C250.706 85.7478 255.786 86.5589 255.842 89.3658C255.91 92.7511 250.396 93.9623 248.019 94.2954C247.917 94.3093 247.808 94.3051 247.705 94.3051C244.984 94.3218 242.22 94.3525 239.844 92.8306C239.008 92.2954 238.376 91.5247 238.265 90.6592C237.942 88.1631 241.139 86.8767 242.814 86.1283C242.885 86.1283 242.969 86.1241 243.039 86.1087C244.846 85.706 246.65 85.4091 248.502 85.4635L248.499 85.4621Z" fill="#11FF00"/>
<path d="M235.371 95.4346C236.898 95.3882 240.371 95.81 240.356 97.6477C240.341 99.4867 236.949 99.9604 236.046 100.195C235.736 100.276 235.419 100.138 235.195 100.146C234.854 100.158 234.623 100.086 234.388 100.134C234.19 100.175 234.068 100.122 233.956 100.122C232.975 100.038 230.695 99.2341 230.86 98.0436C231.122 96.1705 234.134 95.6858 235.161 95.4373C235.268 95.4114 235.332 95.4373 235.371 95.4373V95.4346Z" fill="#11FF00"/>
<g clip-path="url(#clip0_2486_1157)">
<path d="M70.3808 74.6556C70.1432 73.9574 69.5252 73.6094 68.5267 73.6094C66.3784 73.6094 64.3414 74.8684 62.418 77.3844H69.8384C70.4375 76.2627 70.6183 75.3539 70.3808 74.6556Z" fill="#11FF00"/>
<path d="M18.8224 24.4234C20.8636 22.8097 22.642 20.7238 24.1618 18.1613C25.6795 15.5988 26.3774 13.5063 26.2555 11.8814C26.1336 10.2566 25.0426 9.44531 22.9804 9.44531C20.9182 9.44531 18.8476 10.2566 16.7687 11.8814C14.6876 13.5063 12.8902 15.5988 11.3704 18.1613C9.8653 20.7016 9.19052 22.7831 9.34608 24.4079C9.50163 26.0327 10.6094 26.844 12.6695 26.844C14.7296 26.844 16.7813 26.0372 18.8224 24.4234Z" fill="#11FF00"/>
<path d="M26.2789 69.6041C26.157 67.9793 25.0639 67.168 23.0038 67.168C20.9438 67.168 18.8711 67.9793 16.7921 69.6041C14.711 71.2289 12.9137 73.3215 11.3939 75.884C9.88874 78.4243 9.21396 80.5057 9.36951 82.1306C9.52297 83.7554 10.6329 84.5667 12.693 84.5667C14.753 84.5667 16.8047 83.7598 18.8459 82.1483C20.887 80.5345 22.6654 78.4487 24.1852 75.8862C25.703 73.3237 26.4009 71.2311 26.2789 69.6063V69.6041Z" fill="#11FF00"/>
<path d="M50.1661 73.7891C48.9721 73.7891 47.7634 74.2922 46.5379 75.2986C45.3123 76.305 44.2045 77.6439 43.2144 79.313C42.197 81.0287 41.7198 82.3565 41.7829 83.2942C41.8459 84.2318 42.4408 84.7018 43.5697 84.7018C44.8709 84.7018 46.1427 84.2341 47.3808 83.2942C48.6189 82.3565 49.7289 81.0642 50.7042 79.4172C52.9283 75.6644 52.7475 73.7891 50.1661 73.7891Z" fill="#11FF00"/>
<path d="M49.886 24.3233C50.0752 25.159 50.7437 25.5758 51.8936 25.5758C53.2158 25.5758 54.4686 25.1302 55.6479 24.2369C56.8272 23.3436 57.8299 22.1997 58.6582 20.8055C59.4717 19.4333 59.8038 18.294 59.6567 17.3918C59.5095 16.4874 58.7948 16.0352 57.5146 16.0352C56.3858 16.0352 55.2233 16.4696 54.0251 17.3386C52.8269 18.2075 51.7926 19.3757 50.9245 20.8387C50.0437 22.3261 49.6968 23.4876 49.886 24.3211V24.3233Z" fill="#11FF00"/>
<path d="M47.7354 53.0212L49.3015 50.3789C48.6477 50.6759 47.4138 51.0195 45.5997 51.4097C44.1639 51.7067 43.075 52.0436 42.3309 52.4227C41.5867 52.7995 40.9834 53.3781 40.523 54.1561C39.6423 55.6435 40.069 56.3861 41.8053 56.3861C43.0204 56.3861 44.1765 56.0536 45.2759 55.3908C46.3732 54.728 47.1952 53.9389 47.7375 53.0234L47.7354 53.0212Z" fill="#11FF00"/>
<path d="M127.237 6.75506C126.176 4.73566 124.155 3.48102 121.967 3.48102H117.542C115.451 3.48102 113.54 4.59823 112.432 6.46911L109.712 11.0576C108.165 10.335 106.294 9.96703 104.097 9.96703C100.889 9.96703 97.9043 10.7362 95.2178 12.248C93.6054 10.7584 91.3919 9.93378 88.7895 9.93378C88.1021 9.93378 87.4105 9.98919 86.7189 10.1C86.763 8.954 86.5171 7.79468 85.9706 6.75506C84.909 4.73566 82.8888 3.48102 80.7005 3.48102H76.2756C74.184 3.48102 72.2731 4.59823 71.1653 6.46911L68.8278 10.4148H65.3341C65.0419 10.4148 64.7497 10.437 64.4617 10.4813C63.644 10.202 62.7506 10.0291 61.7983 9.96481C61.8193 8.86312 61.5692 7.75478 61.0457 6.75727C59.9842 4.73788 57.964 3.48324 55.7757 3.48324H51.3508C49.2592 3.48324 47.3483 4.60044 46.2405 6.47132L44.0102 10.233C43.2597 10.2796 42.5135 10.3971 41.784 10.5921C41.3237 10.4746 40.8507 10.417 40.3756 10.417H38.9714C38.0128 7.64838 35.2444 3 27.4161 3C22.8524 3 18.2803 4.56276 13.8238 7.64395C9.63217 10.5411 6.15737 14.2918 3.49188 18.7872C0.313481 24.1516 -0.685024 28.8155 0.435404 33.0449C0.992465 35.1463 2.85494 39.6085 8.73246 40.9097C6.7901 42.918 5.06847 45.179 3.58648 47.6816C0.433302 53.0017 -0.577817 57.6301 0.496365 61.8307L0.51108 61.8839C1.06183 63.9676 2.90119 68.3854 8.71354 69.7154C6.74386 71.7371 5.00961 74.0069 3.52552 76.5096C0.347115 81.8739 -0.653493 86.5378 0.466936 90.7673C1.1228 93.2411 3.58858 98.9978 12.2977 98.9978C15.434 98.9978 18.5683 98.2619 21.6647 96.8055C22.7557 97.8451 24.1893 98.4481 25.7071 98.4481H30.132C32.0491 98.4481 33.8128 97.5082 34.9459 95.9122C36.5035 97.6899 38.8915 98.9645 42.2907 98.9645C43.6928 98.9645 45.0949 98.7495 46.4571 98.3261C46.8459 98.4082 47.2432 98.4503 47.6405 98.4503H51.9036C53.1985 98.4503 54.422 98.0225 55.431 97.2533C56.9887 98.2552 59.1139 98.9668 62.0127 98.9668C64.3335 98.9668 66.6185 98.499 68.8341 97.5769C69.7443 98.1399 70.7933 98.4525 71.8864 98.4525H76.3113C77.0933 98.4525 77.8522 98.2951 78.5501 98.0025C79.2459 98.2929 79.9963 98.4525 80.7699 98.4525H85.5207C87.6123 98.4525 89.5231 97.3353 90.6309 95.4644L93.5802 90.488C94.7406 88.5306 94.8015 86.059 93.74 84.0396C93.6159 83.8047 93.4772 83.5786 93.328 83.3658C93.7988 82.9446 94.2129 82.4458 94.5514 81.8739L96.9709 77.7908C97.8853 76.2502 98.1271 74.366 97.6394 72.6215C97.2295 71.1585 96.3361 69.9105 95.1358 69.0926C95.5415 68.913 95.9262 68.6869 96.2835 68.4187C97.816 69.4051 99.8929 70.1056 102.708 70.1056C105.932 70.1056 109.096 69.1812 112.108 67.3569C114.961 65.6301 117.324 63.389 119.131 60.6936C119.836 59.6428 120.216 58.4126 120.237 57.1291C121.339 56.4708 122.201 55.4821 122.732 54.2674C124.877 49.3707 123.975 45.844 122.84 43.7492C121.616 41.4904 119.001 38.7972 113.502 38.7972C113.454 38.7972 113.405 38.7994 113.357 38.7994C113.367 38.13 113.277 37.4561 113.086 36.8088L127.073 13.2056C128.234 11.2483 128.295 8.77667 127.233 6.75727L127.237 6.75506ZM101.789 16.2136C101.535 15.8368 100.952 15.6484 100.042 15.6484C98.0241 15.6484 96.4622 16.473 95.3565 18.12H91.4192C92.4745 16.4508 93.9334 15.0654 95.8 13.9681C97.6646 12.8709 99.7478 12.3211 102.048 12.3211C106.733 12.3211 107.797 14.4824 105.234 18.8071L99.9265 27.7648C99.1403 29.0926 98.8544 29.9039 99.0688 30.2009L98.9679 30.3716H94.7048C94.6628 30.0745 94.8772 29.4228 95.3439 28.4142H95.2787C94.3538 29.1701 93.3994 29.7531 92.4198 30.1654C91.4381 30.5777 90.2841 30.7839 88.9619 30.7839C87.2045 30.7839 86.0714 30.3162 85.5648 29.3763C85.0582 28.4386 85.3126 27.1108 86.33 25.3951C87.3874 23.6107 88.7495 22.3006 90.4165 21.465C92.0835 20.6293 94.0742 20.0529 96.3907 19.7315C98.0892 19.5032 99.2896 19.2682 99.998 19.0288C100.704 18.7894 101.24 18.3594 101.606 17.7409C101.987 17.1003 102.048 16.5905 101.795 16.2136H101.789ZM100.86 34.6941H105.285L102.804 38.8814H98.3793L100.86 34.6941ZM86.576 46.0878C86.4183 45.4938 85.8844 45.1945 84.9741 45.1945C83.9988 45.1945 82.9645 45.5714 81.8777 46.3272C80.7909 47.0831 79.8933 48.054 79.1891 49.2444L73.2717 59.2305H68.8467L83.387 34.6919H87.812L82.3423 43.9244H82.439C83.6372 42.9645 84.7429 42.2596 85.7561 41.8141C86.7693 41.3685 87.8288 41.1446 88.9345 41.1446C90.6478 41.1446 91.6736 41.7564 92.012 42.9801C92.3484 44.2037 91.9427 45.7886 90.7907 47.7326L83.9777 59.2283H79.5507L85.9558 48.4176C86.5255 47.4577 86.7315 46.6797 86.5739 46.0834L86.576 46.0878ZM45.1075 57.2754C44.1826 58.0313 43.2282 58.6143 42.2486 59.0266C41.2669 59.4389 40.1129 59.6451 38.7906 59.6451C37.0333 59.6451 35.9002 59.1773 35.3936 58.2375C34.887 57.2998 35.1414 55.972 36.1588 54.2563C37.2161 52.4719 38.5783 51.1618 40.2453 50.3261C41.9123 49.4904 43.903 48.9141 46.2195 48.5927C47.918 48.3644 49.1183 48.1294 49.8267 47.89C50.5331 47.6506 51.0691 47.2206 51.4349 46.6021C51.8132 45.9615 51.8763 45.4517 51.6241 45.0748C51.3697 44.698 50.7874 44.5096 49.8772 44.5096C47.8592 44.5096 46.2973 45.3342 45.1916 46.9812H41.2543C42.3096 45.312 43.7684 43.9266 45.6351 42.8293C47.4997 41.7321 49.5829 41.1823 51.8826 41.1823C56.5682 41.1823 57.6319 43.3436 55.0694 47.6683L49.7616 56.6259C48.9754 57.9537 48.6895 58.765 48.9039 59.0621L48.803 59.2328H44.5399C44.4979 58.9357 44.7123 58.284 45.179 57.2754H45.1138H45.1075ZM36.6023 44.4408C37.7333 43.4123 38.7591 42.6498 39.6798 42.1599C40.6006 41.6678 41.5381 41.4217 42.4925 41.4217C42.9486 41.4217 43.2681 41.4683 43.4531 41.5592L41.0336 45.6423H40.9369C39.5348 45.4827 38.1264 45.8263 36.7137 46.6708C35.3011 47.5176 34.0588 48.8454 32.9867 50.652L27.9038 59.2328H23.4788L33.9116 41.6279H38.1747L36.5077 44.4431H36.6044L36.6023 44.4408ZM61.0836 41.6279H65.3467L64.0455 43.8246H64.1422C66.4356 42.0402 68.6029 41.1469 70.6419 41.1469C72.8323 41.1469 74.0831 42.0047 74.39 43.7204C74.6969 45.4361 74.0305 47.6794 72.3888 50.4458C70.7071 53.2832 68.7059 55.542 66.3872 57.2244C64.0665 58.9069 61.8214 59.747 59.652 59.747C57.4827 59.747 56.3706 58.9113 56.3202 57.2422H56.255L51.6598 64.9983H47.2348L61.0836 41.6279ZM81.409 12.7645L79.9858 15.1674H80.0825C82.3717 13.2455 84.5895 12.2857 86.7378 12.2857C88.451 12.2857 89.4769 12.8975 89.8153 14.1211C90.1538 15.3447 89.7459 16.9296 88.594 18.8737L81.781 30.3694H77.354L83.7591 19.5586C84.3288 18.5966 84.5348 17.8207 84.3771 17.2244C84.2195 16.6304 83.6855 16.3311 82.7753 16.3311C81.7999 16.3311 80.7657 16.708 79.6789 17.4638C78.5921 18.2197 77.6945 19.1906 76.9903 20.381L71.0728 30.3671H66.6479L77.0807 12.7623H81.409V12.7645ZM74.2239 5.83292H78.6489L76.1684 10.0202H71.7434L74.2239 5.83292ZM70.1164 12.7645H74.5413L64.1085 30.3694H59.6836L70.1164 12.7645ZM58.8806 12.2857C60.8986 12.2857 61.977 13.0637 62.1199 14.6198H62.1851L63.2824 12.7667H67.5455L57.9052 29.0327C56.5493 31.3203 54.8298 33.1047 52.7466 34.386C50.615 35.7116 48.2144 36.3766 45.5468 36.3766C43.2892 36.3766 41.7693 35.8955 40.9831 34.9357C40.1969 33.9759 40.199 32.6237 40.9915 30.8858H45.385C45.0465 32.1893 45.776 32.8432 47.5775 32.8432C50.0517 32.8432 52.0129 31.6196 53.4634 29.1701L54.6028 27.2483H54.5061C52.5427 28.6204 50.6823 29.3076 48.9249 29.3076C46.951 29.3076 45.6856 28.5406 45.1285 27.0089C44.5715 25.4771 45.0465 23.44 46.5516 20.8997C48.0967 18.2907 50.0054 16.2048 52.2799 14.6376C54.5544 13.0704 56.7532 12.2857 58.8806 12.2857ZM49.2949 5.83292H53.7199L51.2394 10.0202H46.8144L49.2949 5.83292ZM45.1874 12.7645H49.6123L39.1795 30.3694H34.7546L45.1874 12.7645ZM38.3198 12.7645L36.6528 15.5797H36.7495C37.8804 14.5489 38.9062 13.7886 39.827 13.2965C40.7477 12.8044 41.6852 12.5583 42.6396 12.5583C43.0958 12.5583 43.4153 12.6049 43.6003 12.6958L41.1807 16.7789H41.084C39.6819 16.6193 38.2735 16.9629 36.8609 17.8074C35.4483 18.6542 34.2059 19.982 33.1359 21.7886L28.0509 30.3694H23.626L34.0588 12.7645H38.3219H38.3198ZM4.18768 27.3347C3.55495 24.9451 4.34324 21.8839 6.55256 18.1532C8.76189 14.4248 11.604 11.3591 15.0787 8.95622C18.5535 6.55334 21.9821 5.3519 25.3665 5.3519C28.7509 5.3519 30.7521 6.55334 31.3681 8.95622C31.984 11.3591 31.1873 14.4248 28.9779 18.1532C26.7686 21.8839 23.935 24.9429 20.4791 27.3347C17.0232 29.7265 13.6031 30.9213 10.2187 30.9213C6.83425 30.9213 4.82462 29.7265 4.19189 27.3347H4.18768ZM4.26336 56.1782C3.65585 53.7997 4.45045 50.7562 6.64506 47.0499C9.14027 42.8404 12.388 39.4999 16.3905 37.0283C19.4554 35.153 22.5055 34.2153 25.5431 34.2153C28.3852 34.2153 30.2161 34.9601 31.0401 36.4453C31.8621 37.9327 31.7296 39.9233 30.6428 42.417H26.0224C26.4722 41.1823 26.4722 40.1915 26.0224 39.4489C25.5725 38.7063 24.6329 38.3339 23.2013 38.3339C21.0971 38.3339 18.9929 39.1452 16.8929 40.77C14.7908 42.3949 12.9808 44.4874 11.4631 47.0499C9.95799 49.5902 9.31475 51.6717 9.53547 53.2965C9.75409 54.9213 10.8514 55.7326 12.8274 55.7326C14.5637 55.7326 16.3295 55.1674 18.131 54.0346C19.9304 52.9019 21.2569 51.6162 22.1103 50.1732L22.1923 50.0358H16.5944L18.871 46.192H28.6668L20.9395 59.2328H17.3911L19.18 55.9388H19.1148C16.1782 58.4791 13.2457 59.747 10.3154 59.747C6.90782 59.747 4.88979 58.5567 4.26126 56.1782H4.26336ZM20.5085 85.0571C17.0526 87.4489 13.6325 88.6437 10.2481 88.6437C6.86368 88.6437 4.85405 87.4489 4.22132 85.0571C3.58858 82.6675 4.37687 79.6063 6.5862 75.8778C8.79552 72.1494 11.6376 69.0837 15.1124 66.6808C18.5872 64.2779 22.0157 63.0765 25.4001 63.0765C28.7846 63.0765 30.7858 64.2779 31.4017 66.6808C32.0176 69.0837 31.2209 72.1494 29.0116 75.8778C26.8023 79.6063 23.9686 82.6675 20.5127 85.0571H20.5085ZM33.199 79.5154L28.114 88.0939H23.689L34.1218 70.4891H38.3849L36.7179 73.3043H36.8146C37.9456 72.2735 38.9714 71.5132 39.8921 71.0211C40.8129 70.529 41.7504 70.2829 42.7048 70.2829C43.1609 70.2829 43.4804 70.3295 43.6654 70.4203L41.2459 74.5035H41.1492C39.7471 74.3439 38.3387 74.6875 36.9261 75.532C35.5134 76.3788 34.2711 77.7066 33.2011 79.5132L33.199 79.5154ZM49.8856 88.0939H45.6225L46.9847 85.7952H46.9195C44.7228 87.6706 42.5072 88.6104 40.2726 88.6104C38.1684 88.6104 36.9639 87.7703 36.657 86.0878C36.3522 84.4054 37.0396 82.1466 38.7213 79.3092C40.3483 76.565 42.3411 74.3284 44.6976 72.5993C47.0562 70.8726 49.276 70.008 51.3592 70.008C53.4424 70.008 54.4998 70.877 54.5334 72.6171H54.6301L59.9989 63.5575H64.4259L49.8856 88.0962V88.0939ZM66.0488 86.9612C64.0749 88.0585 62.0569 88.6082 59.9947 88.6082C57.304 88.6082 55.7085 87.7326 55.204 85.9837C54.6995 84.2325 55.2565 81.9981 56.8688 79.2738C58.4286 76.6426 60.5034 74.4414 63.0932 72.6681C65.683 70.8947 68.1845 70.008 70.5915 70.008C73.217 70.008 74.6759 70.9701 74.9702 72.8897C75.2624 74.8116 74.453 77.3852 72.5422 80.6104H60.4361C59.7824 82.0069 59.5869 83.0865 59.8496 83.8534C60.1103 84.6204 60.8608 85.0039 62.0968 85.0039C63.7238 85.0039 65.2247 84.2835 66.5995 82.8426H70.9614C69.6602 84.4896 68.0206 85.8617 66.0467 86.9612H66.0488ZM83.5048 88.0939H78.754L81.7032 83.1175H86.454L83.5048 88.0939ZM87.4252 74.5035H87.3285C85.9264 74.3439 84.518 74.6875 83.1054 75.532C81.6927 76.3788 80.4504 77.7066 79.3804 79.5132L74.2954 88.0917H69.8704L80.3032 70.4868H84.5663L82.8994 73.302H82.996C84.127 72.2713 85.1528 71.511 86.0735 71.0189C86.9943 70.5267 87.9318 70.2807 88.8862 70.2807C89.3423 70.2807 89.6619 70.3272 89.8469 70.4181L87.4273 74.5013L87.4252 74.5035ZM90.7466 59.2328H86.3216L96.7544 41.6279H101.179L90.7466 59.2328ZM115.56 42.898C116.191 44.064 116.077 45.6312 115.215 47.5996H110.887C111.209 46.7994 111.248 46.1477 111.005 45.6445C110.761 45.1413 110.237 44.8886 109.434 44.8886C108.133 44.8886 106.842 45.3807 105.566 46.3649C104.288 47.3491 103.134 48.7102 102.104 50.4481C101.087 52.1638 100.62 53.5204 100.704 54.5157C100.786 55.5109 101.48 56.0097 102.781 56.0097C104.713 56.0097 106.42 55.0144 107.902 53.0238H112.165C110.86 54.9679 109.159 56.575 107.063 57.8451C104.965 59.1153 102.832 59.7492 100.662 59.7492C98.0808 59.7492 96.5295 58.8692 96.0124 57.107C95.4952 55.3447 96.0292 53.1258 97.6142 50.4481C99.2013 47.7703 101.28 45.5536 103.853 43.7914C106.426 42.0291 108.961 41.1491 111.457 41.1491C113.561 41.1491 114.929 41.7321 115.562 42.9003L115.56 42.898ZM105.375 30.3716H100.95L115.491 5.83292H119.916L105.375 30.3716Z" fill="#11FF00"/>
<path d="M92.4871 23.565C91.743 23.9418 91.1397 24.5204 90.6793 25.2984C89.7985 26.7858 90.2252 27.5284 91.9616 27.5284C93.1766 27.5284 94.3328 27.1959 95.4322 26.5331C96.5295 25.8703 97.3514 25.0812 97.8938 24.1657L99.4598 21.5234C98.8061 21.8205 97.5721 22.1641 95.758 22.552C94.3223 22.849 93.2334 23.1859 92.4892 23.565H92.4871Z" fill="#11FF00"/>
<path d="M61.0143 55.8717C62.1431 55.8717 63.314 55.404 64.5332 54.4642C65.7504 53.5265 66.8477 52.2342 67.823 50.5872C68.8657 48.8249 69.3723 47.4417 69.3408 46.4353C69.3071 45.429 68.6408 44.9258 67.3396 44.9258C66.0383 44.9258 64.7308 45.4467 63.4843 46.4863C62.2377 47.5282 61.1131 48.8936 60.1104 50.5872C59.1476 52.212 58.7314 53.4999 58.8638 54.4486C58.9942 55.3974 59.7131 55.8717 61.0143 55.8717Z" fill="#11FF00"/>
</g>
<defs>
<clipPath id="clip0_2486_1157">
<rect width="128" height="96" fill="white" transform="translate(0 3)"/>
</clipPath>
</defs>
</svg>
