<svg width="32" height="32" viewBox="0 0 32 32" fill="none" xmlns="http://www.w3.org/2000/svg">
<rect width="32" height="32" rx="16" fill="white"/>
<path d="M27.865 8.66497C27.6743 8.30736 27.3113 8.08518 26.918 8.08518H26.1229C25.7471 8.08518 25.4037 8.28303 25.2046 8.61433L24.7158 9.42691C24.4378 9.29894 24.1016 9.23377 23.7069 9.23377C23.1305 9.23377 22.5941 9.36999 22.1114 9.6377C21.8216 9.37391 21.4239 9.22788 20.9562 9.22788C20.8327 9.22788 20.7084 9.2377 20.5842 9.25733C20.5921 9.05438 20.5479 8.84908 20.4497 8.66497C20.2589 8.30736 19.8959 8.08518 19.5027 8.08518H18.7076C18.3317 8.08518 17.9884 8.28303 17.7893 8.61433L17.3693 9.31307H16.7415C16.689 9.31307 16.6365 9.31699 16.5847 9.32484C16.4378 9.27538 16.2772 9.24476 16.1061 9.23338C16.1099 9.03828 16.0649 8.84201 15.9709 8.66537C15.7801 8.30776 15.4171 8.08558 15.0239 8.08558H14.2288C13.8529 8.08558 13.5096 8.28342 13.3105 8.61473L12.9097 9.28088C12.7749 9.28912 12.6408 9.30993 12.5097 9.34447C12.427 9.32367 12.342 9.31346 12.2566 9.31346H12.0043C11.832 8.82317 11.3346 8 9.92788 8C9.10781 8 8.28624 8.27675 7.48544 8.82238C6.73224 9.33544 6.10784 9.99963 5.62887 10.7957C5.05773 11.7457 4.87831 12.5716 5.07964 13.3206C5.17974 13.6927 5.51442 14.4829 6.57056 14.7133C6.22154 15.069 5.91217 15.4694 5.64587 15.9126C5.07927 16.8547 4.89757 17.6743 5.0906 18.4182L5.09324 18.4276C5.19221 18.7966 5.52273 19.5789 6.56716 19.8145C6.21323 20.1725 5.90159 20.5744 5.63491 21.0176C5.06378 21.9676 4.88398 22.7935 5.08531 23.5425C5.20316 23.9806 5.64625 25 7.2112 25C7.77478 25 8.33799 24.8697 8.89439 24.6118C9.09044 24.7959 9.34805 24.9026 9.62078 24.9026H10.4159C10.7604 24.9026 11.0773 24.7362 11.2809 24.4536C11.5608 24.7684 11.9899 24.9941 12.6007 24.9941C12.8527 24.9941 13.1046 24.956 13.3494 24.8811C13.4193 24.8956 13.4907 24.903 13.5621 24.903H14.3281C14.5608 24.903 14.7806 24.8273 14.962 24.6911C15.2419 24.8685 15.6237 24.9945 16.1446 24.9945C16.5617 24.9945 16.9723 24.9117 17.3704 24.7484C17.534 24.8481 17.7224 24.9034 17.9189 24.9034H18.714C18.8545 24.9034 18.9909 24.8756 19.1163 24.8237C19.2413 24.8752 19.3762 24.9034 19.5152 24.9034H20.3689C20.7447 24.9034 21.0881 24.7056 21.2871 24.3743L21.8171 23.493C22.0256 23.1464 22.0366 22.7087 21.8458 22.3511C21.8235 22.3095 21.7986 22.2694 21.7718 22.2318C21.8564 22.1572 21.9308 22.0689 21.9916 21.9676L22.4264 21.2445C22.5907 20.9717 22.6341 20.638 22.5465 20.3291C22.4728 20.07 22.3123 19.849 22.0966 19.7042C22.1695 19.6724 22.2386 19.6323 22.3029 19.5848C22.5782 19.7595 22.9514 19.8836 23.4572 19.8836C24.0367 19.8836 24.6052 19.7199 25.1465 19.3968C25.659 19.091 26.0836 18.6941 26.4085 18.2168C26.535 18.0307 26.6034 17.8129 26.6072 17.5856C26.8051 17.469 26.96 17.2939 27.0555 17.0788C27.4408 16.2117 27.2788 15.5871 27.0748 15.2162C26.855 14.8162 26.385 14.3392 25.3969 14.3392C25.3882 14.3392 25.3795 14.3396 25.3708 14.3396C25.3727 14.2211 25.3565 14.1017 25.3221 13.9871L27.8356 9.80728C28.0441 9.46066 28.055 9.02298 27.8643 8.66537L27.865 8.66497ZM23.2922 10.34C23.2464 10.2732 23.1418 10.2399 22.9783 10.2399C22.6156 10.2399 22.335 10.3859 22.1363 10.6776H21.4288C21.6184 10.382 21.8806 10.1366 22.216 9.94232C22.551 9.74801 22.9254 9.65066 23.3386 9.65066C24.1806 9.65066 24.3717 10.0334 23.9113 10.7992L22.9575 12.3855C22.8162 12.6207 22.7648 12.7643 22.8034 12.8169L22.7852 12.8472H22.0192C22.0116 12.7946 22.0502 12.6792 22.134 12.5005H22.1223C21.9561 12.6344 21.7846 12.7376 21.6086 12.8107C21.4322 12.8837 21.2248 12.9202 20.9872 12.9202C20.6714 12.9202 20.4678 12.8373 20.3768 12.6709C20.2858 12.5049 20.3315 12.2697 20.5143 11.9659C20.7043 11.6499 20.9491 11.4179 21.2486 11.2699C21.5481 11.1219 21.9059 11.0199 22.3221 10.9629C22.6273 10.9225 22.843 10.8809 22.9703 10.8385C23.0972 10.7961 23.1936 10.72 23.2593 10.6104C23.3277 10.497 23.3386 10.4067 23.2933 10.34H23.2922ZM23.1252 13.6126H23.9203L23.4746 14.3541H22.6795L23.1252 13.6126ZM20.5585 15.6303C20.5302 15.5251 20.4342 15.4721 20.2706 15.4721C20.0954 15.4721 19.9095 15.5389 19.7142 15.6727C19.519 15.8066 19.3577 15.9785 19.2311 16.1893L18.1678 17.9577H17.3727L19.9855 13.6122H20.7806L19.7977 15.2472H19.8151C20.0304 15.0772 20.2291 14.9524 20.4112 14.8735C20.5932 14.7946 20.7836 14.7549 20.9823 14.7549C21.2902 14.7549 21.4745 14.8633 21.5353 15.08C21.5957 15.2966 21.5228 15.5773 21.3158 15.9216L20.0916 17.9573H19.2961L20.4471 16.0429C20.5494 15.8729 20.5864 15.7351 20.5581 15.6295L20.5585 15.6303ZM13.1069 17.6115C12.9407 17.7454 12.7692 17.8486 12.5932 17.9216C12.4168 17.9946 12.2094 18.0311 11.9718 18.0311C11.656 18.0311 11.4524 17.9483 11.3614 17.7819C11.2703 17.6158 11.3161 17.3807 11.4989 17.0768C11.6889 16.7608 11.9337 16.5289 12.2332 16.3809C12.5327 16.2329 12.8905 16.1308 13.3067 16.0739C13.6119 16.0335 13.8276 15.9918 13.9549 15.9495C14.0818 15.9071 14.1782 15.8309 14.2439 15.7214C14.3119 15.6079 14.3232 15.5177 14.2779 15.4509C14.2322 15.3842 14.1275 15.3508 13.964 15.3508C13.6014 15.3508 13.3207 15.4968 13.122 15.7885H12.4145C12.6041 15.4929 12.8663 15.2476 13.2017 15.0533C13.5368 14.859 13.9111 14.7616 14.3243 14.7616C15.1663 14.7616 15.3574 15.1443 14.897 15.9102L13.9432 17.4965C13.8019 17.7316 13.7506 17.8753 13.7891 17.9279L13.771 17.9581H13.0049C12.9974 17.9055 13.0359 17.7901 13.1197 17.6115H13.1069ZM11.5786 15.3387C11.7818 15.1565 11.9661 15.0215 12.1316 14.9347C12.297 14.8476 12.4655 14.804 12.637 14.804C12.719 14.804 12.7764 14.8122 12.8096 14.8283L12.3748 15.5514H12.3575C12.1055 15.5231 11.8524 15.584 11.5986 15.7336C11.3448 15.8835 11.1215 16.1186 10.9289 16.4386L10.0155 17.9581H9.22038L11.0951 14.8405H11.8611L11.5616 15.339H11.579L11.5786 15.3387ZM15.9777 14.8405H16.7437L16.5099 15.2295H16.5273C16.9394 14.9135 17.3288 14.7553 17.6952 14.7553C18.0888 14.7553 18.3136 14.9072 18.3688 15.2111C18.4239 15.5149 18.3042 15.9122 18.0091 16.4021C17.707 16.9045 17.3474 17.3045 16.9307 17.6025C16.5137 17.9004 16.1103 18.0492 15.7204 18.0492C15.3306 18.0492 15.1308 17.9012 15.1217 17.6056H15.11L14.2843 18.9791H13.4892L15.9777 14.8405ZM19.63 9.72917L19.3743 10.1547H19.3917C19.803 9.81435 20.2015 9.64438 20.5876 9.64438C20.8954 9.64438 21.0798 9.75272 21.1406 9.9694C21.2014 10.1861 21.1281 10.4668 20.9211 10.811L19.6969 12.8468H18.9014L20.0523 10.9323C20.1547 10.762 20.1917 10.6246 20.1634 10.519C20.135 10.4138 20.0391 10.3608 19.8755 10.3608C19.7003 10.3608 19.5144 10.4275 19.3191 10.5614C19.1238 10.6952 18.9626 10.8672 18.836 11.078L17.7727 12.8464H16.9776L18.8523 9.72877L19.63 9.72917ZM18.3389 8.50167H19.134L18.6883 9.24319H17.8932L18.3389 8.50167ZM17.6008 9.72917H18.3959L16.5212 12.8468H15.7261L17.6008 9.72917ZM15.5818 9.64438C15.9444 9.64438 16.1382 9.78216 16.1639 10.0577H16.1756L16.3728 9.72956H17.1388L15.4066 12.6101C15.1629 13.0152 14.8539 13.3312 14.4796 13.5581C14.0966 13.7928 13.6652 13.9106 13.1858 13.9106C12.7802 13.9106 12.5071 13.8254 12.3658 13.6554C12.2245 13.4854 12.2249 13.246 12.3673 12.9382H13.1568C13.0959 13.169 13.227 13.2848 13.5507 13.2848C13.9953 13.2848 14.3478 13.0682 14.6084 12.6344L14.8131 12.2941H14.7958C14.4429 12.537 14.1087 12.6587 13.7929 12.6587C13.4382 12.6587 13.2108 12.5229 13.1107 12.2517C13.0106 11.9804 13.0959 11.6197 13.3664 11.1698C13.644 10.7078 13.987 10.3384 14.3957 10.0609C14.8044 9.78334 15.1996 9.64438 15.5818 9.64438ZM13.8593 8.50167H14.6545L14.2088 9.24319H13.4136L13.8593 8.50167ZM13.1213 9.72917H13.9164L12.0417 12.8468H11.2465L13.1213 9.72917ZM11.8872 9.72917L11.5876 10.2277H11.605C11.8082 10.0452 11.9926 9.91052 12.158 9.82338C12.3235 9.73623 12.4919 9.69266 12.6634 9.69266C12.7454 9.69266 12.8028 9.7009 12.8361 9.717L12.4013 10.4401H12.3839C12.132 10.4118 11.8789 10.4726 11.625 10.6222C11.3712 10.7722 11.148 11.0073 10.9557 11.3272L10.042 12.8468H9.24682L11.1215 9.72917H11.8872ZM5.7539 12.3094C5.6402 11.8862 5.78185 11.3441 6.17885 10.6834C6.57585 10.0232 7.08655 9.48029 7.71095 9.05477C8.33534 8.62925 8.95143 8.41649 9.55958 8.41649C10.1677 8.41649 10.5273 8.62925 10.638 9.05477C10.7487 9.48029 10.6055 10.0232 10.2085 10.6834C9.81153 11.3441 9.30235 11.8858 8.68135 12.3094C8.06035 12.7329 7.44578 12.9445 6.83762 12.9445C6.22947 12.9445 5.86835 12.7329 5.75466 12.3094H5.7539ZM5.7675 17.4172C5.65833 16.996 5.80112 16.457 6.19547 15.8007C6.64384 15.0552 7.22745 14.4637 7.94665 14.026C8.49739 13.6939 9.04549 13.5278 9.59131 13.5278C10.102 13.5278 10.431 13.6597 10.5791 13.9227C10.7268 14.1861 10.703 14.5386 10.5077 14.9803H9.67744C9.75827 14.7616 9.75827 14.5861 9.67744 14.4546C9.5966 14.3231 9.42775 14.2572 9.17052 14.2572C8.7924 14.2572 8.41429 14.4009 8.03693 14.6886C7.6592 14.9763 7.33397 15.3469 7.06124 15.8007C6.79078 16.2505 6.6752 16.6191 6.71486 16.9069C6.75414 17.1946 6.95132 17.3383 7.30639 17.3383C7.6184 17.3383 7.9357 17.2382 8.25942 17.0376C8.58276 16.837 8.82111 16.6093 8.97447 16.3538L8.9892 16.3294H7.98329L8.39238 15.6488H10.1526L8.76407 17.9581H8.12646L8.44791 17.3748H8.4362C7.9085 17.8246 7.38156 18.0492 6.855 18.0492C6.24269 18.0492 5.88044 17.8384 5.7675 17.4172ZM8.68664 22.5313C8.06564 22.9548 7.45107 23.1664 6.84291 23.1664C6.23476 23.1664 5.87364 22.9548 5.75994 22.5313C5.64625 22.1081 5.7879 21.566 6.1849 20.9057C6.5819 20.2455 7.09259 19.7026 7.71699 19.2771C8.34139 18.8515 8.95747 18.6388 9.56563 18.6388C10.1738 18.6388 10.5334 18.8515 10.6441 19.2771C10.7547 19.7026 10.6116 20.2455 10.2146 20.9057C9.81758 21.566 9.30839 22.1081 8.68739 22.5313H8.68664ZM10.967 21.5499L10.0533 23.0691H9.25815L11.1329 19.9515H11.8989L11.5994 20.45H11.6167C11.82 20.2675 12.0043 20.1328 12.1697 20.0457C12.3352 19.9585 12.5037 19.915 12.6751 19.915C12.7571 19.915 12.8145 19.9232 12.8478 19.9393L12.413 20.6624H12.3956C12.1437 20.6341 11.8906 20.6949 11.6368 20.8445C11.3829 20.9945 11.1597 21.2296 10.9674 21.5495L10.967 21.5499ZM13.9655 23.0691H13.1994L13.4442 22.662H13.4325C13.0378 22.9941 12.6396 23.1605 12.2381 23.1605C11.86 23.1605 11.6436 23.0118 11.5884 22.7138C11.5336 22.4159 11.6571 22.0159 11.9593 21.5134C12.2517 21.0274 12.6098 20.6314 13.0332 20.3252C13.4571 20.0194 13.8559 19.8663 14.2303 19.8663C14.6046 19.8663 14.7946 20.0202 14.8007 20.3283H14.818L15.7828 18.724H16.5783L13.9655 23.0691ZM16.8699 22.8685C16.5152 23.0628 16.1526 23.1601 15.782 23.1601C15.2985 23.1601 15.0118 23.0051 14.9212 22.6954C14.8305 22.3852 14.9306 21.9896 15.2203 21.5071C15.5006 21.0412 15.8734 20.6514 16.3388 20.3373C16.8042 20.0233 17.2537 19.8663 17.6862 19.8663C18.158 19.8663 18.4201 20.0366 18.473 20.3766C18.5255 20.7169 18.3801 21.1727 18.0367 21.7438H15.8613C15.7439 21.9911 15.7087 22.1823 15.756 22.3181C15.8028 22.4539 15.9376 22.5219 16.1598 22.5219C16.4521 22.5219 16.7218 22.3943 16.9689 22.1391H17.7527C17.5188 22.4308 17.2246 22.6738 16.8699 22.8685ZM20.0066 23.0691H19.1529L19.6829 22.1878H20.5366L20.0066 23.0691ZM20.7111 20.6624H20.6937C20.4418 20.6341 20.1887 20.6949 19.9348 20.8445C19.681 20.9945 19.4578 21.2296 19.2655 21.5495L18.3518 23.0687H17.5566L19.4313 19.9511H20.1974L19.8978 20.4496H19.9152C20.1184 20.2671 20.3028 20.1324 20.4682 20.0453C20.6337 19.9581 20.8021 19.9146 20.9736 19.9146C21.0556 19.9146 21.113 19.9228 21.1462 19.9389L20.7115 20.662L20.7111 20.6624ZM21.3079 17.9581H20.5128L22.3875 14.8405H23.1826L21.3079 17.9581ZM25.7667 15.0654C25.88 15.2719 25.8596 15.5494 25.7047 15.898H24.927C24.9848 15.7563 24.992 15.6409 24.9481 15.5518C24.9043 15.4627 24.8103 15.4179 24.666 15.4179C24.4322 15.4179 24.2002 15.5051 23.9709 15.6794C23.7413 15.8537 23.5339 16.0947 23.3488 16.4025C23.166 16.7063 23.0821 16.9465 23.0972 17.1228C23.112 17.299 23.2366 17.3873 23.4704 17.3873C23.8176 17.3873 24.1243 17.2111 24.3906 16.8586H25.1567C24.9221 17.2029 24.6165 17.4874 24.2399 17.7124C23.8629 17.9373 23.4795 18.0496 23.0897 18.0496C22.6258 18.0496 22.3471 17.8937 22.2541 17.5817C22.1612 17.2696 22.2572 16.8766 22.542 16.4025C22.8272 15.9283 23.2007 15.5357 23.6631 15.2236C24.1254 14.9116 24.581 14.7557 25.0294 14.7557C25.4075 14.7557 25.6534 14.859 25.7671 15.0658L25.7667 15.0654ZM23.9366 12.8472H23.1414L25.7542 8.50167H26.5494L23.9366 12.8472Z" fill="black"/>
<path d="M17.6477 20.6891C17.605 20.5654 17.494 20.5038 17.3145 20.5038C16.9285 20.5038 16.5625 20.7267 16.2168 21.1723H17.5502C17.6579 20.9736 17.6904 20.8127 17.6477 20.6891Z" fill="black"/>
<path d="M8.38189 11.7957C8.74868 11.5099 9.06824 11.1405 9.34134 10.6868C9.61407 10.233 9.73948 9.86241 9.71757 9.57467C9.69566 9.28694 9.49961 9.14326 9.12906 9.14326C8.7585 9.14326 8.38643 9.28694 8.01285 9.57467C7.63889 9.86241 7.31593 10.233 7.04282 10.6868C6.77236 11.1366 6.65111 11.5052 6.67906 11.793C6.70702 12.0807 6.90608 12.2244 7.27626 12.2244C7.64644 12.2244 8.01511 12.0815 8.38189 11.7957Z" fill="black"/>
<path d="M9.72356 19.7941C9.70165 19.5064 9.50523 19.3627 9.13505 19.3627C8.76487 19.3627 8.39242 19.5064 8.01884 19.7941C7.64488 20.0818 7.32192 20.4524 7.04881 20.9062C6.77835 21.356 6.6571 21.7246 6.68505 22.0124C6.71263 22.3001 6.91207 22.4438 7.28225 22.4438C7.65243 22.4438 8.0211 22.3009 8.38789 22.0155C8.75467 21.7297 9.07423 21.3604 9.34733 20.9066C9.62006 20.4528 9.74547 20.0818 9.72356 19.7941Z" fill="black"/>
<path d="M14.0146 20.5366C13.8 20.5366 13.5828 20.6257 13.3626 20.8039C13.1424 20.9821 12.9433 21.2192 12.7654 21.5148C12.5826 21.8186 12.4968 22.0537 12.5082 22.2198C12.5195 22.3858 12.6264 22.4691 12.8292 22.4691C13.0631 22.4691 13.2916 22.3862 13.5141 22.2198C13.7366 22.0537 13.936 21.8249 14.1113 21.5332C14.5109 20.8687 14.4784 20.5366 14.0146 20.5366Z" fill="black"/>
<path d="M13.9637 11.7761C13.9977 11.9241 14.1178 11.9979 14.3244 11.9979C14.562 11.9979 14.7872 11.919 14.9991 11.7608C15.211 11.6026 15.3912 11.4001 15.54 11.1531C15.6862 10.9102 15.7459 10.7084 15.7194 10.5486C15.693 10.3885 15.5645 10.3084 15.3345 10.3084C15.1317 10.3084 14.9228 10.3853 14.7075 10.5392C14.4921 10.6931 14.3063 10.9 14.1503 11.159C13.992 11.4224 13.9297 11.6285 13.9637 11.7761Z" fill="black"/>
<path d="M13.5776 16.8577L13.8591 16.3898C13.7416 16.4424 13.5199 16.5032 13.1939 16.5723C12.9359 16.6249 12.7402 16.6846 12.6065 16.7517C12.4728 16.8184 12.3644 16.9209 12.2816 17.0587C12.1234 17.3221 12.2 17.4536 12.5121 17.4536C12.7304 17.4536 12.9381 17.3947 13.1357 17.2773C13.3329 17.1599 13.4806 17.0202 13.578 16.8581L13.5776 16.8577Z" fill="black"/>
<path d="M21.6191 11.6427C21.4854 11.7094 21.377 11.8119 21.2942 11.9497C21.136 12.2131 21.2126 12.3446 21.5247 12.3446C21.743 12.3446 21.9507 12.2857 22.1483 12.1683C22.3455 12.0509 22.4932 11.9112 22.5906 11.7491L22.872 11.2811C22.7546 11.3337 22.5328 11.3946 22.2068 11.4633C21.9488 11.5159 21.7528 11.5756 21.6191 11.6427Z" fill="black"/>
<path d="M15.9647 17.3641C16.1675 17.3641 16.3779 17.2813 16.597 17.1149C16.8157 16.9488 17.0129 16.72 17.1881 16.4283C17.3755 16.1162 17.4665 15.8713 17.4609 15.6931C17.4548 15.5149 17.3351 15.4258 17.1013 15.4258C16.8674 15.4258 16.6325 15.518 16.4085 15.7021C16.1845 15.8866 15.9824 16.1284 15.8022 16.4283C15.6292 16.7161 15.5544 16.9441 15.5782 17.1121C15.6017 17.2801 15.7308 17.3641 15.9647 17.3641Z" fill="black"/>
</svg>
